{"glyphs":{"0":{"ha":461,"x_min":10,"x_max":451,"o":"m 360 -68 q 356 -56 357 -61 q 353 -47 354 -51 q 351 -33 351 -43 l 342 -14 l 322 6 q 313 8 314 8 q 292 7 299 8 q 274 2 283 1 q 256 0 265 3 q 244 -12 244 -3 q 240 -25 243 -19 q 235 -40 238 -31 l 235 -174 q 231 -181 232 -178 q 225 -185 229 -183 q 222 -178 222 -182 q 219 -172 221 -175 q 217 -165 218 -169 q 214 -157 217 -161 l 214 -36 q 210 -26 211 -31 q 206 -18 208 -22 q 185 -6 199 -6 q 172 -6 178 -6 q 161 -7 167 -7 q 148 -19 151 -11 q 140 -36 144 -28 l 140 -172 q 138 -180 139 -176 q 133 -187 136 -183 q 133 -222 132 -204 q 133 -258 133 -240 l 133 -336 l 133 -407 q 122 -419 129 -417 q 118 -416 119 -417 q 114 -412 117 -415 q 109 -403 111 -408 q 104 -393 107 -399 l 104 -131 q 108 -124 107 -128 q 111 -115 108 -119 l 111 -81 q 106 -69 110 -74 q 104 -57 103 -64 l 104 -36 q 83 -14 96 -19 q 71 -21 75 -14 q 66 -30 68 -25 q 61 -40 64 -35 q 60 -90 58 -65 q 60 -137 61 -114 q 55 -149 57 -143 q 47 -157 53 -154 q 40 -151 40 -157 q 39 -131 39 -144 q 37 -119 39 -124 q 32 -108 35 -115 q 31 -58 31 -83 q 31 -7 32 -33 q 31 42 31 17 q 31 92 32 67 q 18 108 24 100 q 10 126 13 115 l 10 140 q 17 155 13 147 q 24 169 21 163 q 22 181 22 174 q 19 186 21 183 q 17 192 18 189 q 17 206 17 199 q 15 221 17 213 q 10 233 13 229 l 10 238 l 10 365 q 13 374 11 369 q 17 383 14 378 l 17 415 q 24 432 18 421 l 24 460 q 31 480 28 471 q 38 499 35 489 q 42 514 40 506 q 47 529 44 522 q 63 560 54 547 q 92 590 78 575 q 121 619 106 604 q 142 629 131 626 q 164 636 153 632 l 214 636 q 222 633 218 635 q 229 629 225 632 l 279 629 q 296 622 288 625 q 313 613 304 618 q 325 602 319 610 q 340 592 331 594 q 363 572 351 582 q 381 550 374 563 q 392 533 388 539 q 399 522 396 528 q 404 508 401 515 q 411 489 407 501 q 414 478 413 483 q 418 467 415 474 l 418 432 q 422 424 421 428 q 425 417 422 421 l 425 376 q 428 369 426 374 q 432 360 429 365 l 432 258 q 425 242 431 253 l 425 165 q 431 152 428 158 q 438 139 435 146 q 442 124 440 132 q 447 110 444 117 q 447 87 449 99 q 451 64 446 75 q 443 53 449 57 q 433 43 438 49 q 415 26 426 35 q 409 9 413 17 q 403 -8 406 1 l 403 -165 q 399 -174 400 -169 q 396 -182 399 -178 l 396 -347 q 389 -362 392 -354 q 379 -375 386 -371 q 368 -364 372 -374 q 367 -307 367 -336 q 367 -249 367 -278 l 367 -132 q 364 -124 365 -128 q 360 -114 363 -119 l 360 -68 m 279 253 l 279 365 q 283 375 282 371 q 286 383 285 379 q 287 409 286 396 q 286 435 288 422 q 280 455 279 444 q 279 474 281 465 q 274 490 276 483 q 269 504 272 497 q 256 524 264 515 q 238 538 249 533 q 228 542 233 539 l 204 542 q 198 536 201 539 q 190 531 194 533 q 181 525 186 528 q 171 515 175 522 q 167 508 169 513 q 163 497 165 504 l 163 413 q 159 403 160 407 q 156 394 158 399 l 156 353 q 160 343 158 347 q 163 335 161 339 l 163 265 q 168 251 165 260 q 169 233 171 242 q 174 214 168 224 q 185 202 179 208 q 199 189 192 196 q 201 188 200 188 q 204 185 203 188 q 225 192 218 190 q 236 192 231 193 q 249 194 242 192 l 263 201 q 267 210 265 207 q 271 218 268 214 q 272 233 271 228 q 275 242 274 238 q 279 253 276 246 z "},"1":{"ha":461,"x_min":58,"x_max":403,"o":"m 367 183 q 388 150 388 169 q 390 138 388 143 q 394 126 392 133 l 394 65 q 399 54 397 58 q 401 46 400 50 q 402 21 401 33 q 401 -3 403 8 q 389 -11 399 -11 q 379 -12 383 -11 q 363 -19 372 -15 q 343 -29 354 -24 q 335 -38 340 -33 q 322 -51 329 -43 q 316 -68 318 -57 q 308 -90 314 -79 q 307 -100 307 -93 q 306 -115 308 -108 q 300 -131 303 -122 l 300 -396 q 290 -410 296 -407 q 279 -403 283 -408 q 271 -392 275 -399 q 271 -330 269 -361 q 269 -267 272 -299 q 267 -259 268 -262 q 264 -250 265 -256 l 264 -78 q 260 -70 261 -74 q 257 -62 258 -67 q 256 -45 257 -54 q 256 -26 256 -36 q 251 -15 253 -21 q 246 -6 249 -10 q 230 11 238 3 q 215 26 222 19 q 214 49 208 40 q 219 66 218 57 q 219 83 219 75 q 223 91 222 88 q 226 97 224 94 l 226 104 l 226 368 l 226 382 q 222 388 225 385 q 215 390 218 392 q 210 389 213 389 q 206 386 208 389 q 169 369 186 378 q 133 351 151 360 q 124 346 128 349 q 114 342 119 343 q 94 335 103 339 q 76 328 86 331 q 74 339 74 333 q 74 350 75 344 q 71 359 72 354 q 67 371 69 364 l 67 417 q 63 426 64 422 q 60 435 61 431 q 59 446 58 440 q 60 456 60 451 q 72 469 61 465 q 81 474 76 472 q 92 478 86 476 q 126 497 107 483 q 146 513 136 506 q 167 528 156 521 q 190 546 179 536 q 207 569 200 556 q 224 596 218 581 q 236 626 231 611 q 239 629 239 629 q 241 630 240 629 q 243 631 242 631 q 281 631 263 631 q 318 632 299 632 q 328 628 324 629 q 336 625 332 628 q 353 624 344 622 q 368 622 361 625 q 370 619 369 619 q 372 615 371 618 l 372 608 l 372 488 q 369 479 371 483 q 367 471 368 475 q 366 448 367 468 q 365 399 365 428 q 365 335 365 369 q 365 270 365 301 q 366 215 365 239 q 367 183 367 192 z "},"2":{"ha":461,"x_min":4,"x_max":454,"o":"m 250 -181 q 243 -194 246 -187 q 236 -206 240 -200 q 232 -206 232 -206 q 231 -204 231 -206 q 228 -190 228 -196 l 228 -103 l 228 -71 q 223 -55 226 -61 q 221 -42 219 -49 q 218 -30 221 -35 q 213 -18 215 -25 q 194 0 207 -6 q 186 2 190 3 q 175 1 182 1 q 159 -7 168 -3 q 139 -17 150 -11 q 132 -26 136 -21 q 121 -37 128 -31 q 113 -54 115 -44 q 107 -75 110 -64 q 104 -83 104 -78 q 104 -92 104 -87 q 97 -114 104 -103 q 97 -158 96 -136 q 97 -204 97 -181 q 96 -250 96 -228 q 96 -296 96 -272 l 96 -385 q 92 -392 93 -389 q 86 -397 90 -396 q 76 -390 79 -394 q 68 -379 72 -385 q 67 -318 67 -349 q 67 -256 68 -287 q 64 -247 65 -251 q 60 -237 63 -243 l 60 -67 q 57 -58 58 -62 q 53 -49 56 -54 l 53 -15 q 45 1 49 -6 q 38 11 42 7 q 28 20 35 15 q 13 32 22 25 q 13 67 4 49 q 17 81 15 75 q 17 92 17 86 q 19 103 17 97 q 24 118 22 110 q 31 133 26 126 q 42 154 38 143 q 47 176 46 165 q 54 182 51 179 q 60 188 57 185 q 71 191 67 190 q 81 194 75 192 q 126 240 103 215 l 129 243 q 149 270 136 258 q 174 294 163 282 q 201 323 188 310 q 231 351 215 336 q 241 362 236 357 q 253 369 246 367 q 264 376 260 372 q 271 386 268 381 q 281 401 276 396 q 287 412 285 407 q 292 424 289 417 q 299 442 294 431 q 299 445 299 444 q 300 449 300 446 l 300 476 q 296 486 297 482 q 292 496 294 490 q 281 508 286 503 q 267 518 275 514 q 256 517 261 519 q 246 518 251 515 q 233 520 239 521 q 221 519 228 519 q 201 510 210 515 q 186 494 193 506 q 185 488 185 492 q 182 481 185 485 q 176 468 179 474 q 171 456 174 463 q 169 444 169 450 q 168 431 169 438 l 165 428 q 149 426 157 425 q 135 422 142 426 q 131 422 132 422 q 128 421 129 421 q 95 426 113 428 q 58 426 78 424 q 53 428 57 428 q 46 432 50 429 q 31 433 39 432 q 17 433 24 433 q 11 438 14 435 q 10 444 10 440 q 9 463 8 454 q 10 481 10 472 q 13 492 11 488 q 15 503 15 496 q 46 575 24 543 q 52 586 49 581 q 60 596 56 592 q 71 608 65 603 q 82 619 76 614 q 103 630 93 625 q 125 640 114 635 q 147 650 136 647 q 171 658 158 653 l 278 658 q 290 654 283 658 q 303 651 296 650 q 340 639 325 646 q 353 633 347 636 q 365 626 358 631 q 389 603 376 615 q 414 579 401 592 q 439 529 426 556 q 440 518 439 524 q 440 506 440 513 q 443 499 442 503 q 446 490 444 494 l 446 449 q 442 435 443 442 q 439 421 440 428 q 419 367 436 390 q 413 356 417 361 q 406 344 410 350 q 394 326 397 333 q 386 317 392 321 q 378 307 381 314 q 353 276 368 289 q 325 249 338 264 q 286 217 301 236 q 251 182 271 199 q 246 174 250 181 q 256 169 250 168 q 265 171 261 171 q 288 194 281 179 q 291 199 290 199 q 299 203 292 200 q 311 193 306 199 q 325 181 317 188 q 358 164 339 172 q 389 163 374 161 q 419 161 404 164 q 430 155 426 158 q 438 146 433 151 q 444 131 440 139 q 453 114 449 122 q 449 100 454 108 q 440 84 444 92 q 432 67 436 76 l 432 -10 q 429 -18 431 -14 q 425 -28 428 -22 q 425 -97 424 -62 q 425 -167 426 -132 q 414 -178 421 -176 q 408 -174 410 -176 q 403 -165 406 -171 l 403 -90 q 399 -78 400 -83 q 396 -67 397 -72 q 395 -58 394 -62 q 396 -49 396 -53 q 385 -36 389 -37 q 371 -36 382 -35 q 366 -40 368 -39 q 361 -44 364 -42 q 360 -60 360 -53 q 357 -74 360 -67 q 356 -79 357 -76 q 353 -86 354 -82 q 353 -193 350 -139 q 356 -203 354 -199 q 358 -211 357 -207 l 358 -397 q 354 -412 357 -404 q 351 -428 351 -419 q 346 -437 351 -432 q 338 -439 343 -444 q 334 -436 335 -437 q 332 -433 333 -435 q 331 -431 332 -432 q 331 -429 331 -431 q 331 -349 331 -389 q 329 -268 331 -308 q 324 -254 326 -260 q 323 -206 322 -231 q 324 -157 324 -182 q 322 -108 322 -133 q 322 -58 322 -83 q 316 -42 319 -51 q 303 -29 313 -33 q 293 -28 300 -28 l 274 -28 q 253 -44 260 -33 q 250 -51 250 -50 l 250 -132 l 250 -181 z "},"3":{"ha":461,"x_min":11,"x_max":449,"o":"m 353 -369 q 349 -362 350 -367 q 346 -354 349 -358 l 346 -196 q 342 -188 343 -192 q 339 -181 342 -185 q 338 -131 338 -156 q 339 -79 339 -106 q 332 -61 333 -68 l 332 -6 q 335 1 333 -3 q 338 10 336 4 q 339 20 339 15 q 333 29 339 25 q 331 30 332 29 q 326 29 329 31 q 318 23 322 26 q 311 14 314 19 q 310 10 311 11 q 310 7 310 10 l 310 -44 l 310 -83 q 306 -91 307 -87 q 303 -99 306 -94 q 302 -120 301 -110 q 301 -142 303 -131 l 301 -193 q 297 -199 301 -197 q 288 -187 290 -194 q 281 -171 285 -179 l 281 -60 q 280 -50 281 -54 q 279 -40 279 -46 q 276 -35 279 -37 q 271 -31 272 -31 q 267 -35 267 -31 q 265 -46 265 -39 q 263 -54 264 -50 q 258 -65 261 -58 l 258 -119 q 255 -128 256 -125 q 251 -136 254 -132 l 251 -212 q 247 -225 249 -219 q 244 -236 246 -231 q 244 -247 243 -242 q 240 -257 244 -251 q 229 -246 233 -257 l 229 -168 l 229 -83 l 229 -4 q 221 7 224 1 q 213 10 213 10 l 186 10 q 181 12 183 11 q 176 14 179 13 q 149 24 164 19 q 122 35 133 26 q 104 47 114 42 q 88 60 94 51 q 71 78 79 69 q 57 97 63 86 q 42 120 46 107 q 33 146 39 133 q 32 160 32 150 q 32 170 32 165 q 36 182 32 175 q 45 185 40 185 q 54 189 50 186 q 63 192 58 192 q 72 193 68 192 q 81 195 76 194 q 92 199 85 196 q 113 201 103 200 q 135 199 124 201 q 141 188 142 193 q 143 175 140 182 q 151 159 146 168 q 158 143 156 150 q 181 126 169 131 q 204 114 193 121 q 216 117 211 114 q 225 122 221 119 q 229 144 232 133 q 222 165 226 154 l 222 206 q 217 223 221 217 q 214 236 214 229 q 212 250 215 243 q 207 264 208 257 q 202 276 204 271 q 199 283 200 281 q 185 293 192 292 q 174 299 179 294 q 172 301 174 300 q 171 304 171 303 l 171 339 l 178 353 q 178 378 178 365 q 179 406 178 392 q 183 408 182 407 q 185 410 183 410 q 196 411 189 411 l 226 411 q 272 458 263 422 q 273 474 274 465 q 272 493 272 482 l 264 510 q 249 519 257 515 q 231 528 240 522 l 199 528 q 176 517 188 521 q 165 497 169 507 q 157 479 161 488 q 156 463 154 471 q 151 450 158 456 q 134 449 142 447 q 118 456 126 451 l 32 456 q 17 464 21 461 q 14 471 11 465 q 17 478 17 474 q 17 490 18 485 q 19 503 17 496 q 31 533 26 518 q 42 564 35 549 q 49 578 46 571 q 58 596 53 586 q 62 599 60 597 q 67 603 64 600 q 78 610 72 607 q 89 617 83 613 q 106 633 97 626 q 135 649 121 643 q 165 660 150 654 l 197 660 q 214 667 203 661 q 230 667 222 667 q 246 663 238 667 q 260 660 254 660 l 276 660 q 306 650 296 654 q 319 647 313 647 q 332 640 326 646 q 350 628 340 633 q 367 614 360 622 q 383 597 375 604 q 397 583 390 590 q 415 551 408 567 q 426 518 421 535 l 426 458 q 421 442 424 450 q 415 426 418 435 q 407 411 413 418 q 396 396 401 404 q 387 383 392 389 q 376 371 382 378 q 379 353 374 360 q 387 344 383 349 q 394 338 390 340 l 421 311 q 431 292 426 300 q 439 276 435 285 q 442 260 442 268 q 447 244 442 251 q 448 228 447 236 q 449 211 449 219 l 449 181 q 431 135 440 157 q 407 94 421 114 q 405 84 404 89 q 404 72 406 79 q 401 63 403 68 q 397 51 400 58 q 397 33 397 44 q 396 11 397 22 q 394 5 396 8 q 390 -4 393 1 q 390 -19 390 -11 q 389 -35 389 -26 q 386 -41 388 -37 q 382 -50 385 -44 l 382 -83 q 379 -91 381 -87 q 376 -99 378 -94 q 375 -152 374 -125 q 375 -207 376 -179 q 372 -215 372 -211 q 368 -226 371 -219 l 368 -360 q 368 -372 368 -367 q 367 -385 368 -378 q 361 -393 367 -387 q 358 -396 361 -393 q 354 -392 354 -396 q 353 -380 353 -385 q 353 -369 353 -375 z "},"4":{"ha":461,"x_min":-3,"x_max":464,"o":"m 224 -93 q 220 -85 221 -89 q 217 -76 219 -82 q 216 -57 217 -68 q 215 -35 215 -46 q 213 -26 214 -31 q 208 -17 211 -22 l 208 22 q 206 31 207 26 q 201 40 204 35 l 201 79 q 197 92 199 86 q 194 103 196 97 q 194 114 193 108 q 190 124 194 119 q 188 126 188 126 q 136 128 161 129 q 86 128 111 126 q 75 124 78 125 q 57 122 65 119 l 49 126 q 28 128 38 128 q 8 124 18 128 q 4 129 4 128 l 4 174 l 4 213 q 1 222 1 218 q -3 231 0 226 q 11 255 3 244 q 26 276 19 265 q 49 312 38 294 q 72 346 61 329 q 94 389 83 364 q 97 392 96 390 q 101 396 99 394 q 140 444 122 414 q 153 464 147 454 q 167 483 160 474 q 176 501 172 492 q 185 518 181 510 q 190 534 185 528 q 199 547 196 540 q 209 563 203 556 q 218 578 215 569 q 225 593 221 586 q 233 608 229 600 l 260 635 q 275 640 268 638 q 292 646 282 643 q 340 647 315 646 q 390 644 365 647 q 392 644 392 644 q 394 643 393 643 q 395 642 394 642 q 396 640 396 642 q 399 558 399 618 q 397 428 400 499 q 395 421 396 425 q 392 410 394 417 l 392 267 q 399 253 392 256 q 428 251 413 251 q 458 251 443 251 q 464 240 463 246 l 464 215 q 460 209 461 213 q 457 201 460 206 q 457 163 456 182 q 456 125 458 144 q 451 122 453 124 q 446 121 449 121 q 432 119 439 119 q 418 119 425 119 q 406 104 407 113 q 399 78 406 86 l 399 21 q 395 13 396 17 q 392 3 394 8 q 391 -12 392 -4 q 390 -28 390 -19 l 390 -357 l 390 -389 q 386 -396 390 -394 q 383 -395 385 -396 q 379 -394 382 -394 q 377 -387 376 -392 q 375 -378 378 -382 q 369 -360 372 -367 l 369 -283 q 366 -275 367 -279 q 363 -265 365 -271 l 363 -212 q 356 -192 357 -199 q 353 -183 353 -187 q 350 -175 354 -178 q 340 -182 340 -175 l 340 -214 l 340 -310 q 333 -326 335 -317 q 325 -342 332 -335 q 322 -343 325 -343 q 319 -342 319 -342 q 319 -335 319 -339 q 318 -328 318 -331 l 318 -240 q 315 -231 315 -236 q 311 -221 314 -226 l 311 -124 q 308 -115 308 -119 q 304 -106 307 -111 q 303 -55 303 -81 q 303 -4 304 -29 q 281 3 294 6 q 268 -10 274 1 q 266 -42 265 -25 q 267 -74 267 -58 q 277 -110 274 -92 q 289 -143 281 -128 l 289 -207 q 285 -214 286 -210 q 282 -225 285 -218 l 282 -322 q 278 -331 279 -326 q 274 -340 276 -335 l 274 -496 q 271 -506 271 -506 q 268 -517 268 -514 q 267 -524 267 -518 l 267 -535 q 264 -540 264 -537 q 258 -533 260 -537 q 253 -525 256 -529 q 252 -500 251 -512 q 253 -475 253 -487 q 252 -449 251 -461 q 253 -424 253 -436 l 253 -371 q 249 -364 250 -368 q 244 -353 247 -360 l 244 -239 q 242 -231 243 -235 q 239 -224 240 -228 q 238 -216 238 -221 q 238 -207 238 -211 l 238 -189 q 234 -181 235 -185 q 231 -171 233 -176 q 231 -157 231 -164 q 229 -143 231 -150 q 224 -126 228 -136 l 224 -93 m 253 304 l 253 325 q 251 343 251 335 q 251 361 251 351 q 247 367 251 363 q 240 365 242 367 q 235 361 238 364 q 217 335 226 347 q 201 310 208 322 q 184 284 193 296 q 164 261 175 272 q 160 254 163 261 q 172 244 163 249 l 200 244 l 229 244 q 238 240 235 242 q 246 238 242 239 q 260 244 253 235 q 260 267 260 256 q 258 289 260 278 q 256 297 257 293 q 253 304 254 300 z "},"5":{"ha":461,"x_min":21,"x_max":440,"o":"m 82 -296 l 82 -33 q 76 -18 79 -25 l 76 21 q 68 43 69 33 q 64 56 67 50 q 58 67 61 61 q 40 96 47 81 q 25 126 33 111 l 25 160 q 26 165 25 163 q 29 169 28 167 q 42 171 36 171 q 54 172 49 171 q 60 178 60 178 q 61 193 61 183 l 61 249 q 56 264 58 256 q 53 282 53 272 q 37 288 46 290 q 21 290 28 286 q 24 304 24 299 q 24 311 25 307 q 25 318 24 315 q 28 329 25 326 q 31 342 31 336 q 32 354 32 347 q 34 365 32 360 q 39 376 36 369 l 39 410 q 42 417 42 414 q 46 426 43 421 l 46 474 q 56 503 51 489 q 65 531 60 517 q 68 549 68 536 q 72 565 68 557 q 75 579 75 574 q 79 600 75 590 q 86 621 83 610 q 103 624 94 624 q 119 624 111 624 l 149 624 l 182 624 q 199 629 190 626 q 217 635 207 632 q 237 631 226 632 q 258 632 247 631 q 265 635 261 633 q 272 638 269 636 l 279 638 l 407 638 q 410 637 410 638 q 414 636 411 636 q 419 622 421 629 q 419 608 417 615 q 426 593 421 604 l 426 504 q 426 492 426 497 q 424 482 426 488 q 418 479 418 479 q 405 478 411 478 q 392 478 399 478 l 235 478 q 220 478 228 478 q 206 476 213 478 l 201 472 q 199 459 199 465 q 201 447 200 453 q 208 443 206 443 q 229 442 215 442 l 285 442 q 305 434 294 438 q 325 426 315 431 q 345 415 336 421 q 365 401 354 408 q 388 378 382 392 q 397 365 392 371 q 408 351 403 358 q 432 304 421 328 q 435 288 432 296 q 440 272 438 279 l 440 179 q 438 172 439 176 q 435 164 436 168 q 429 147 432 158 q 415 111 425 128 q 394 79 404 94 q 373 57 383 68 q 351 35 363 46 q 348 33 349 33 q 344 32 347 33 q 333 24 338 29 q 321 15 328 18 q 303 10 313 13 q 286 4 294 7 q 275 0 281 1 q 263 -4 269 -1 l 204 -4 q 193 -10 199 -6 q 192 -26 193 -18 q 192 -42 192 -33 q 188 -49 189 -44 q 185 -57 188 -53 l 185 -133 q 182 -140 183 -136 q 179 -147 181 -144 q 178 -167 176 -158 q 175 -185 179 -176 q 165 -183 167 -185 q 157 -174 163 -182 q 156 -130 156 -151 q 156 -86 157 -108 q 156 -44 156 -65 q 156 -3 157 -24 q 152 0 153 -1 q 149 1 151 1 q 142 1 146 4 q 138 0 139 1 q 135 -3 138 -1 q 134 -20 135 -11 q 133 -40 133 -29 q 131 -47 132 -43 q 126 -57 129 -51 l 126 -111 q 124 -119 125 -115 q 119 -129 122 -124 l 119 -192 q 116 -201 117 -197 q 113 -211 115 -206 l 113 -274 q 108 -283 110 -279 q 104 -290 107 -286 l 104 -347 q 99 -365 99 -356 q 97 -382 99 -374 q 85 -396 94 -393 q 81 -387 83 -392 q 76 -379 79 -383 q 76 -347 75 -364 q 75 -312 76 -331 q 78 -306 78 -310 q 82 -296 79 -301 m 239 250 q 221 193 231 218 q 214 161 214 175 q 212 151 214 156 q 208 140 210 146 l 208 106 q 217 99 213 99 q 232 100 226 99 q 245 105 239 103 q 258 110 251 107 q 272 123 265 117 q 283 136 278 129 q 285 139 285 138 q 286 143 285 140 q 280 158 283 150 q 272 172 276 165 l 272 221 q 267 235 269 229 q 263 247 265 240 q 260 250 263 247 l 239 250 m 128 193 q 132 181 131 186 q 133 171 133 176 q 138 153 135 161 q 144 136 142 146 q 160 129 147 126 q 161 132 161 132 q 163 170 164 151 q 163 208 163 189 q 162 213 163 211 q 161 218 161 215 q 144 226 153 224 q 137 219 138 221 q 135 215 136 218 q 132 205 133 210 q 128 193 131 200 z "},"6":{"ha":461,"x_min":15,"x_max":446,"o":"m 161 -318 l 161 -261 q 158 -255 160 -258 q 154 -246 157 -251 l 154 -103 q 151 -93 151 -97 q 147 -83 150 -89 q 147 -50 147 -67 q 146 -15 147 -33 q 144 -10 146 -12 q 142 -6 143 -8 l 131 -6 q 124 -15 125 -10 q 119 -25 122 -19 q 124 -62 114 -43 q 124 -78 124 -71 q 124 -93 125 -86 q 115 -104 124 -100 q 113 -103 114 -103 q 110 -101 111 -103 q 97 -88 101 -96 q 89 -71 93 -81 q 88 -4 88 -37 q 88 63 89 29 l 63 92 q 51 113 57 103 q 40 136 46 124 q 31 160 35 147 q 22 189 28 174 q 22 207 21 196 q 15 228 24 218 l 15 388 q 19 396 18 392 q 22 404 19 400 q 22 418 22 411 q 24 431 22 425 q 28 442 25 438 q 29 453 31 447 q 31 470 29 463 q 36 485 33 478 q 41 501 39 493 q 46 517 43 508 q 54 533 50 525 q 63 549 58 540 l 133 619 q 156 632 144 626 q 182 640 168 638 q 190 643 186 642 q 199 644 194 644 q 210 647 206 644 q 221 651 214 649 l 283 651 q 299 646 290 650 q 315 644 307 642 q 365 619 342 632 q 382 602 374 611 q 400 585 390 593 q 413 558 407 572 q 424 526 418 543 l 424 503 q 423 500 424 501 q 422 496 422 499 q 419 494 419 496 q 417 493 418 493 q 402 492 410 492 q 388 490 394 492 q 372 485 379 488 q 361 485 367 485 q 349 483 356 485 q 338 482 343 483 q 326 478 333 481 q 321 491 324 485 q 315 504 318 497 q 310 516 313 511 q 304 528 307 521 q 296 535 300 531 q 289 542 292 539 q 262 543 275 543 q 236 543 249 543 q 224 538 229 540 q 213 532 219 535 l 188 507 q 182 491 185 499 q 176 475 179 483 q 174 461 175 468 q 169 447 172 454 q 167 431 171 439 q 163 415 164 424 q 166 411 165 413 q 169 408 167 410 q 174 407 171 407 q 176 408 175 407 q 236 433 204 424 l 306 433 l 326 425 q 339 420 333 422 q 350 415 344 418 q 372 399 361 407 q 392 381 383 392 q 400 373 396 376 q 408 365 404 369 q 415 358 411 361 q 422 349 419 354 q 435 330 428 339 q 446 307 443 321 l 446 167 q 435 136 442 151 q 431 104 429 121 q 423 91 426 97 q 415 79 419 85 q 397 58 407 68 q 376 40 388 49 q 356 25 363 35 q 344 0 350 15 l 344 -62 q 340 -70 342 -67 q 336 -79 339 -74 l 336 -169 q 333 -179 335 -175 q 329 -190 332 -183 l 329 -289 q 326 -297 326 -293 q 322 -306 325 -300 l 322 -478 q 319 -485 319 -482 q 315 -493 318 -489 q 315 -527 314 -510 q 315 -561 315 -544 q 314 -583 314 -572 q 308 -604 314 -593 q 306 -612 306 -608 q 306 -621 307 -617 q 294 -614 297 -622 q 293 -607 293 -611 l 293 -517 q 297 -509 296 -512 q 300 -501 297 -506 l 300 -450 q 293 -435 297 -447 l 293 -271 q 290 -261 290 -265 q 286 -250 289 -257 l 286 -43 q 281 -31 283 -36 q 274 -22 278 -26 q 260 -22 268 -18 q 245 -44 251 -33 q 232 -68 239 -56 q 208 -115 221 -92 q 183 -164 196 -139 l 183 -192 l 183 -331 l 183 -344 q 178 -353 181 -351 q 169 -347 172 -354 q 167 -333 168 -340 q 161 -318 165 -325 m 300 196 l 300 254 q 296 267 297 261 q 293 278 294 272 q 279 303 288 293 q 256 321 271 314 q 249 324 254 321 l 228 324 q 208 314 213 317 q 194 301 204 311 q 178 269 186 286 q 161 236 169 253 q 160 217 161 226 q 163 197 160 207 q 172 178 168 188 q 186 164 179 171 q 201 150 193 157 q 215 149 207 149 q 233 146 228 149 q 253 141 243 140 q 272 142 263 142 q 283 147 278 144 q 293 151 288 149 q 306 167 301 163 q 306 181 308 175 q 300 196 303 188 z "},"7":{"ha":461,"x_min":31,"x_max":432,"o":"m 154 -349 q 151 -347 153 -347 q 149 -344 150 -346 q 142 -324 143 -331 q 139 -307 139 -315 q 143 -292 139 -299 q 146 -278 146 -285 q 149 -265 146 -272 q 167 -224 160 -246 q 183 -178 175 -203 l 183 -153 q 190 -133 189 -143 q 188 -125 189 -129 q 183 -115 186 -121 l 183 -94 q 182 -83 183 -86 q 176 -65 175 -75 q 171 -46 176 -54 q 169 -32 169 -39 q 167 -18 168 -25 q 146 -7 160 -3 q 143 -9 144 -8 q 140 -11 142 -10 q 135 -21 138 -17 q 132 -32 133 -25 q 129 -40 131 -36 q 125 -51 128 -44 l 125 -107 l 125 -201 q 121 -215 125 -210 q 112 -213 114 -215 q 104 -203 110 -211 q 103 -189 103 -196 q 103 -175 103 -182 q 99 -167 100 -171 q 96 -156 99 -162 l 96 -72 q 92 -63 93 -67 q 89 -56 92 -60 l 89 -14 q 85 -6 86 -10 q 81 3 83 -3 q 81 42 81 22 q 82 85 81 63 q 83 94 82 92 q 88 108 88 101 q 90 122 88 115 q 95 137 94 129 q 96 151 96 144 q 97 158 96 156 q 101 172 101 165 q 104 186 101 179 q 108 200 107 193 q 111 214 110 207 q 115 226 113 221 q 119 238 118 231 q 130 263 126 250 q 140 289 133 276 q 148 306 144 297 q 156 325 151 315 q 164 343 160 335 q 172 361 168 351 q 176 369 175 365 q 179 379 176 374 q 196 399 188 390 q 208 424 200 413 q 224 447 217 435 q 238 471 231 460 q 253 493 246 482 q 247 497 253 497 q 222 499 235 499 q 199 499 210 499 q 190 502 194 501 q 182 506 186 503 l 69 506 q 62 508 65 507 q 53 511 58 510 q 35 514 47 514 q 32 519 33 517 q 31 524 31 521 l 31 604 q 32 609 31 607 q 35 614 33 611 q 65 615 50 617 q 94 615 79 614 q 101 619 97 618 q 113 622 106 619 l 203 622 q 210 626 206 625 q 218 629 214 626 q 256 629 226 629 q 319 629 285 629 q 383 629 353 629 q 419 629 413 629 q 424 628 422 629 q 428 628 425 628 q 429 623 428 625 q 431 618 431 621 q 431 576 432 597 q 431 536 431 556 q 425 525 429 529 q 418 517 421 521 q 407 507 413 511 q 397 496 401 503 q 385 476 392 485 q 374 456 378 467 q 369 446 371 450 q 364 438 367 442 q 354 429 360 435 q 331 398 343 414 q 313 363 319 382 q 299 330 306 346 q 288 299 293 314 q 290 285 286 292 q 286 268 288 276 q 279 253 285 260 q 275 236 279 244 q 271 218 271 228 q 267 203 271 210 q 263 188 263 196 q 256 167 263 181 l 256 135 q 253 127 254 131 q 249 118 251 124 l 249 78 q 245 68 246 72 q 242 60 244 64 q 242 31 240 44 q 240 1 243 17 q 228 -6 236 -6 q 219 -18 222 -7 q 227 -38 224 -28 q 235 -60 231 -49 l 235 -93 q 239 -110 236 -104 q 242 -122 242 -115 q 240 -134 242 -129 q 235 -146 238 -139 l 235 -236 q 231 -246 232 -242 q 226 -257 229 -250 l 226 -296 q 223 -305 224 -301 q 219 -314 222 -308 l 219 -347 q 216 -355 217 -351 q 213 -364 215 -358 l 213 -433 q 209 -443 210 -439 q 206 -454 208 -447 l 206 -501 q 201 -509 203 -506 q 199 -517 200 -512 q 198 -522 199 -519 q 197 -528 197 -525 l 197 -578 q 192 -592 197 -586 q 182 -592 186 -597 q 180 -589 181 -590 q 176 -585 179 -587 q 176 -562 175 -574 q 176 -539 176 -550 q 179 -533 178 -536 q 182 -525 181 -529 q 183 -478 185 -501 q 183 -431 182 -454 q 187 -422 186 -426 q 190 -412 188 -418 l 190 -358 q 194 -350 193 -354 q 197 -342 194 -346 q 198 -308 200 -325 q 203 -272 196 -290 q 196 -250 197 -260 q 192 -249 193 -250 q 188 -249 190 -249 q 178 -260 183 -256 q 171 -272 174 -265 q 162 -287 165 -279 q 154 -306 158 -296 l 154 -349 m 154 -349 q 157 -351 156 -350 q 160 -353 158 -351 q 158 -358 161 -356 q 156 -358 158 -358 q 154 -356 156 -357 l 154 -349 z "},"8":{"ha":461,"x_min":15,"x_max":446,"o":"m 99 585 q 129 600 114 592 q 161 615 144 608 l 283 615 q 321 602 303 610 q 358 583 339 594 l 400 542 l 410 522 l 410 486 q 413 479 413 483 q 417 469 414 475 l 417 442 q 414 435 415 439 q 411 426 413 432 q 410 417 410 422 q 410 406 410 411 q 408 403 408 404 q 407 399 408 401 q 395 376 401 388 q 388 353 389 365 q 381 343 385 347 q 375 335 378 339 q 381 322 372 325 q 403 306 393 315 q 421 288 413 297 q 435 258 429 272 q 446 224 442 243 l 446 131 q 404 43 433 82 q 401 26 401 35 q 396 11 401 18 q 395 -6 396 3 q 394 -25 394 -15 q 389 -40 392 -33 q 388 -56 389 -47 q 388 -76 388 -65 q 385 -83 386 -79 q 381 -94 383 -87 l 381 -126 q 377 -135 378 -132 q 374 -143 376 -139 q 374 -160 374 -151 q 372 -178 374 -168 q 369 -188 371 -183 q 367 -199 368 -193 q 366 -210 365 -204 q 363 -219 367 -215 q 360 -214 360 -217 q 358 -199 358 -207 q 358 -185 358 -192 l 358 -42 l 358 -17 q 354 -12 356 -14 q 350 -8 353 -10 q 331 -8 340 1 q 322 -15 326 -11 q 315 -26 318 -19 q 315 -59 315 -42 q 314 -92 315 -76 q 310 -99 311 -96 q 304 -103 308 -101 q 299 -89 299 -96 q 301 -75 300 -82 q 303 -62 301 -68 q 307 -51 306 -57 q 304 -40 307 -44 q 299 -31 301 -36 q 290 -26 293 -26 q 279 -32 286 -26 q 278 -41 279 -36 q 278 -50 278 -46 q 258 -89 267 -69 q 252 -103 254 -96 q 247 -117 250 -110 q 242 -140 242 -131 q 239 -149 240 -144 q 235 -160 238 -153 l 235 -199 q 232 -207 233 -203 q 228 -217 231 -211 l 228 -247 l 228 -281 q 224 -287 225 -283 q 221 -294 224 -290 q 220 -345 221 -306 q 219 -435 219 -385 q 220 -535 219 -485 q 221 -617 221 -585 q 224 -624 222 -619 q 226 -632 225 -628 q 225 -643 228 -636 q 218 -644 222 -646 q 215 -642 215 -644 q 214 -636 214 -640 q 213 -614 213 -625 q 213 -592 213 -603 q 210 -583 211 -587 q 206 -572 208 -579 l 206 -365 q 202 -354 203 -358 q 199 -346 201 -350 l 199 -297 q 201 -290 200 -294 q 204 -282 203 -286 q 205 -278 204 -279 q 206 -275 206 -276 q 206 -166 206 -207 q 206 -100 207 -125 q 205 -62 206 -75 q 203 -37 204 -50 q 194 -27 200 -31 q 181 -21 188 -24 q 171 -32 172 -25 q 163 -58 167 -43 q 161 -71 161 -64 q 161 -85 161 -78 q 154 -100 158 -87 l 154 -156 q 151 -163 153 -160 q 147 -172 150 -167 l 147 -219 q 144 -229 144 -225 q 140 -239 143 -233 q 140 -253 140 -246 q 139 -267 139 -260 q 135 -277 136 -272 q 128 -285 133 -282 q 126 -282 126 -283 q 125 -260 125 -271 q 125 -240 125 -250 q 128 -231 128 -235 q 132 -222 129 -228 q 133 -171 133 -197 q 132 -117 132 -144 q 129 -107 131 -111 q 125 -97 128 -103 l 125 -60 q 120 -43 122 -51 q 114 -28 118 -35 q 97 -1 108 -18 q 90 3 94 1 q 81 8 85 6 q 76 14 76 13 q 57 53 67 32 l 40 69 q 33 85 38 78 q 25 101 29 93 q 23 117 22 110 q 17 132 24 125 q 16 169 15 151 q 15 206 17 188 q 21 219 18 211 q 24 239 24 231 q 40 274 33 256 q 57 289 49 281 q 74 306 65 297 q 97 318 89 314 q 110 325 106 322 q 117 330 114 328 q 122 335 119 332 q 121 338 121 335 q 110 344 115 340 q 100 351 106 349 q 84 362 90 356 q 71 375 78 368 q 63 392 67 383 q 53 410 58 401 q 46 442 53 425 l 46 507 q 71 558 56 529 q 83 570 76 564 q 99 585 89 576 m 243 99 q 258 108 250 103 q 272 118 265 113 q 283 131 279 122 q 285 139 285 133 q 286 166 286 153 q 286 192 286 179 q 274 222 279 207 q 260 250 269 236 q 243 257 251 254 q 222 259 232 260 q 201 264 211 258 q 186 257 190 258 q 172 243 179 250 q 158 231 165 236 q 147 208 153 218 q 141 198 144 203 q 133 188 138 193 q 139 167 136 181 q 140 156 140 161 q 143 143 140 150 q 171 115 156 128 l 190 106 q 206 106 199 106 q 219 104 213 106 q 231 100 226 103 q 243 99 236 97 m 147 442 l 147 421 q 149 417 147 418 q 150 414 150 417 q 157 408 153 410 q 164 403 161 406 q 174 397 169 400 q 182 390 178 393 q 190 387 186 388 q 199 383 194 386 l 235 383 q 251 394 243 389 q 265 403 258 399 q 269 410 267 404 q 272 433 272 421 q 271 456 271 444 q 263 474 267 465 q 251 490 258 483 q 236 499 240 496 q 199 499 214 501 q 164 475 172 489 l 147 442 z "},"9":{"ha":461,"x_min":13,"x_max":449,"o":"m 442 250 l 442 217 q 438 210 440 214 q 436 203 436 207 q 431 181 436 192 q 426 156 426 169 q 415 129 418 144 q 403 100 411 114 q 372 69 388 85 q 342 38 357 54 q 340 10 339 24 q 340 -15 342 -3 q 344 -24 343 -19 q 347 -32 344 -28 q 348 -60 347 -46 q 346 -90 349 -74 q 336 -82 340 -86 q 334 -78 335 -79 q 333 -74 333 -76 q 325 -39 333 -53 l 325 3 q 311 18 321 15 q 288 10 300 14 q 264 1 276 6 q 261 -3 263 -1 q 260 -8 260 -6 l 260 -40 l 260 -325 l 260 -360 q 256 -369 257 -365 q 253 -376 256 -372 l 253 -465 q 250 -476 250 -474 q 246 -486 249 -481 q 242 -496 244 -490 l 239 -493 q 238 -438 238 -465 q 238 -383 238 -411 q 241 -376 240 -381 q 244 -369 242 -372 q 245 -335 244 -360 q 246 -282 246 -311 q 245 -223 246 -253 q 244 -172 244 -193 q 242 -164 243 -168 q 238 -154 240 -160 l 238 -64 q 235 -56 236 -60 q 232 -47 233 -51 q 231 -28 229 -37 q 228 -7 232 -18 l 219 -3 l 176 -3 q 149 6 163 1 q 124 14 136 10 q 117 19 121 17 q 110 25 113 22 q 93 18 97 28 q 92 4 92 11 q 92 -10 92 -3 q 88 -14 92 -14 q 82 -10 86 -14 q 78 -3 81 -8 l 78 15 q 72 36 78 22 q 70 47 71 42 q 68 58 69 51 q 54 89 61 74 q 42 122 47 104 q 42 153 40 136 q 47 158 44 156 q 53 163 50 160 q 54 179 57 171 q 49 196 51 188 l 49 229 q 44 237 46 233 q 42 244 43 240 q 41 275 40 268 q 47 297 42 282 q 40 308 44 304 q 32 317 35 311 q 25 328 28 324 q 19 340 22 333 l 19 390 q 16 398 17 394 q 13 406 15 401 l 13 442 q 18 457 15 450 q 18 465 18 460 q 19 476 18 469 q 19 481 19 479 q 19 486 18 483 q 25 504 25 494 q 29 521 25 514 q 33 533 32 528 q 35 546 33 539 q 40 557 38 551 q 46 569 42 563 q 60 583 53 575 q 75 597 67 590 q 83 606 79 601 q 93 614 88 611 q 113 628 104 621 q 136 639 122 635 q 161 644 149 639 q 188 654 174 649 l 251 654 q 264 649 258 651 q 276 646 269 647 q 314 635 293 644 q 326 628 321 632 q 339 622 332 625 q 371 590 356 606 q 403 558 386 574 q 414 536 408 547 q 425 514 419 525 q 433 490 429 503 q 442 463 436 478 q 442 447 442 456 q 443 429 443 439 q 446 421 444 425 q 449 411 447 417 l 449 268 q 446 261 447 265 q 442 250 444 257 m 167 497 q 164 491 165 494 q 161 485 163 488 q 160 467 156 478 l 165 456 l 165 394 q 169 382 168 388 q 172 371 171 376 q 182 350 176 360 q 200 333 188 340 q 210 333 206 333 q 221 336 215 333 l 242 353 q 271 357 258 354 q 279 365 278 361 q 284 372 282 368 q 288 381 286 376 q 294 399 289 392 q 303 413 299 406 l 303 450 q 298 460 300 456 q 294 467 296 464 q 272 491 282 481 q 251 513 261 501 q 239 517 244 515 q 226 519 233 518 q 209 515 218 514 q 192 514 200 517 l 167 497 m 151 142 q 158 130 154 135 q 164 118 161 125 q 175 113 169 115 q 185 107 181 110 q 197 107 192 107 q 207 111 201 107 l 207 118 q 194 142 200 131 q 182 167 189 154 q 181 169 182 168 q 181 174 181 171 q 179 194 179 181 q 174 205 176 200 q 167 213 172 210 q 163 210 165 211 q 160 207 161 210 q 151 196 154 201 l 151 142 m 110 236 q 97 231 103 238 l 85 210 l 85 176 q 86 172 85 174 q 89 168 88 171 q 96 165 94 165 l 118 165 q 135 179 129 165 l 135 210 q 131 219 132 214 q 126 228 129 224 q 110 236 115 232 m 279 236 q 275 233 276 235 q 271 231 274 232 q 265 215 268 222 q 260 199 263 207 l 260 153 q 261 142 260 146 q 269 138 263 138 q 275 144 274 140 q 279 153 276 149 q 289 172 285 163 l 289 190 q 292 201 290 196 q 294 210 293 206 q 291 222 292 217 q 288 232 290 226 q 279 236 285 236 z "},"\u0000":{"ha":0,"x_min":0,"x_max":0,"o":""},"\r":{"ha":694,"x_min":0,"x_max":0,"o":""}," ":{"ha":694,"x_min":0,"x_max":0,"o":""},"&":{"ha":619,"x_min":29,"x_max":593,"o":"m 474 515 l 474 451 q 461 424 469 438 q 455 410 458 417 q 447 396 451 403 q 413 361 432 378 q 393 348 403 354 q 374 335 383 342 q 375 328 375 332 q 383 322 379 325 q 390 317 388 319 q 398 310 394 314 q 406 301 401 306 q 413 285 410 293 q 419 268 417 276 q 424 269 422 268 q 426 269 425 269 q 435 285 433 276 q 442 301 438 294 q 461 308 451 314 q 482 303 471 303 q 503 296 493 303 q 525 292 514 297 q 549 288 536 286 q 564 279 560 282 q 568 261 571 272 q 565 249 567 254 q 561 238 564 243 q 549 206 554 222 q 533 174 543 189 q 526 162 531 167 q 519 150 522 157 q 521 146 521 147 q 522 143 521 144 q 528 135 525 139 q 538 128 532 131 q 549 121 544 125 q 558 113 553 117 q 572 99 565 106 q 586 89 578 93 q 589 71 593 85 q 582 63 586 68 q 572 53 578 58 q 566 40 569 46 q 558 26 563 33 q 544 12 551 19 q 529 -3 538 4 q 521 -1 524 -3 q 481 26 501 13 q 440 53 460 39 q 424 50 429 56 q 410 38 417 44 q 396 26 404 31 q 365 7 382 17 q 360 2 363 4 q 353 -1 357 0 q 350 -1 351 -1 q 346 0 349 0 q 331 -6 339 -3 q 311 -11 322 -8 q 273 -11 293 -12 q 232 -12 253 -10 q 229 -16 231 -15 q 228 -18 228 -17 q 226 -30 226 -25 q 226 -40 226 -35 l 226 -201 l 226 -236 q 223 -244 224 -240 q 219 -251 222 -247 q 218 -290 217 -271 q 217 -328 219 -308 q 214 -329 215 -329 q 211 -328 213 -329 q 208 -325 211 -328 q 207 -322 207 -324 q 204 -318 207 -321 l 204 -221 l 204 -122 q 205 -73 204 -97 q 204 -25 206 -49 q 197 -15 201 -18 q 188 -7 193 -11 q 176 -5 182 -6 q 164 -1 169 -4 q 149 3 157 1 q 133 10 140 4 q 119 18 126 14 q 106 26 113 22 q 100 31 103 29 q 94 36 97 33 l 61 69 q 51 90 57 81 q 43 110 46 99 q 37 134 39 121 q 29 158 35 147 l 29 199 q 36 219 35 213 q 37 228 38 224 q 36 238 36 232 q 42 247 39 243 q 47 258 44 251 q 54 265 50 261 q 61 274 58 269 q 72 288 69 282 q 97 314 82 306 q 112 324 106 318 q 125 336 118 329 q 135 344 129 342 q 146 351 140 347 q 151 364 153 357 q 123 399 132 379 q 103 439 114 419 q 101 455 101 447 q 94 469 101 463 l 94 504 q 104 531 99 518 q 110 560 110 544 q 113 564 113 563 q 117 568 114 565 q 125 583 122 575 q 135 594 128 590 q 155 608 146 601 q 175 621 164 615 q 193 629 185 625 q 210 638 201 633 q 230 638 221 639 q 246 644 239 638 q 283 646 265 646 q 319 646 300 646 q 328 644 324 646 q 338 642 332 643 q 356 637 347 639 q 375 632 365 635 q 404 617 394 625 q 415 610 410 614 q 425 603 421 607 q 438 592 432 597 q 449 581 443 586 l 465 547 q 468 531 468 539 q 474 515 468 522 m 307 415 q 328 447 318 432 q 343 482 338 463 q 335 501 340 488 q 319 514 331 510 q 310 514 315 514 q 297 513 304 514 q 281 507 290 507 q 264 504 272 507 q 257 498 261 501 q 251 489 253 494 q 258 465 253 478 q 274 440 265 449 q 277 434 276 438 q 281 428 278 431 q 284 417 283 422 q 288 408 285 413 q 296 411 290 408 q 307 415 301 414 m 260 190 q 253 179 256 183 q 249 169 251 175 q 243 152 247 163 q 233 122 239 142 q 235 119 235 121 q 239 114 236 117 q 246 113 242 114 q 253 114 250 113 q 268 118 260 117 q 285 126 276 119 q 285 149 285 138 q 283 171 285 160 q 272 190 279 183 q 260 190 265 192 m 315 153 l 311 149 q 313 143 308 146 l 315 143 q 318 151 324 149 q 315 153 318 153 z "},"'":{"ha":218,"x_min":22,"x_max":196,"o":"m 31 500 q 25 512 28 507 q 22 522 22 517 q 23 555 24 539 q 22 586 22 571 q 33 608 28 597 q 40 629 38 618 q 47 647 43 639 q 54 667 51 656 l 64 676 q 76 688 71 682 q 89 699 82 693 q 113 713 101 706 q 139 725 125 721 q 144 726 142 726 q 150 725 147 725 q 153 720 153 722 q 156 715 154 718 q 176 676 167 696 q 196 638 185 657 q 181 627 189 631 q 164 619 172 624 q 153 617 158 618 q 142 615 149 617 q 132 606 138 610 q 122 596 126 601 q 119 586 119 593 q 136 574 124 574 q 154 572 149 574 q 161 567 156 572 q 162 524 163 546 q 161 481 161 503 q 156 467 158 474 q 151 453 154 460 q 148 451 149 453 q 144 450 147 450 q 117 449 131 450 q 90 449 104 449 q 82 446 86 447 q 72 443 78 444 q 64 442 68 442 q 54 442 60 443 q 46 439 50 440 q 38 436 42 438 q 32 440 32 436 q 31 454 31 444 l 31 500 z "},"(":{"ha":303,"x_min":25,"x_max":281,"o":"m 25 419 q 37 445 32 432 q 46 471 42 458 q 49 491 44 482 q 56 510 53 500 q 63 531 58 521 q 69 551 67 540 q 75 567 75 558 q 76 588 75 576 l 110 654 q 113 660 113 657 q 115 664 113 663 q 127 682 122 672 q 138 701 132 692 q 154 717 144 711 q 180 717 164 717 q 213 718 196 718 q 247 717 231 718 q 274 717 263 717 q 276 704 281 711 q 267 683 272 693 q 257 661 261 672 q 249 641 254 650 q 239 621 243 632 q 233 602 236 611 q 225 585 229 593 q 219 567 221 576 q 214 550 217 558 q 208 533 210 542 q 201 515 206 524 q 194 501 197 508 q 186 486 190 493 q 185 469 183 478 q 181 451 186 460 q 178 440 178 449 q 177 428 178 433 q 174 415 176 422 q 171 401 171 411 q 169 387 172 394 q 164 372 167 379 l 164 267 q 158 254 161 263 q 163 222 151 238 l 163 182 q 169 158 169 165 q 171 147 171 153 q 171 136 171 142 q 174 128 172 132 q 178 118 175 124 q 178 101 178 110 q 185 83 178 92 q 188 63 183 72 q 193 42 193 53 q 201 15 197 28 q 210 -10 206 3 q 222 -48 217 -29 q 235 -86 228 -67 q 235 -91 236 -89 q 235 -96 235 -93 q 228 -99 229 -99 q 199 -101 213 -101 q 171 -100 185 -100 q 165 -97 168 -97 q 160 -93 163 -96 q 149 -72 154 -82 q 136 -53 143 -62 q 129 -42 132 -47 q 124 -29 126 -36 q 108 -11 115 -18 l 63 81 q 60 93 61 88 q 57 106 60 99 q 49 128 53 117 q 42 150 46 139 q 40 155 40 153 q 39 160 40 157 q 38 167 39 164 q 36 175 38 171 q 35 180 36 178 q 32 185 33 182 l 32 214 q 25 229 29 217 l 25 419 z "},")":{"ha":335,"x_min":39,"x_max":296,"o":"m 146 -108 q 119 -110 132 -110 q 92 -110 106 -110 q 87 -106 89 -107 q 82 -103 85 -106 q 79 -89 76 -94 q 84 -72 82 -81 q 90 -56 86 -62 q 94 -47 93 -51 q 99 -39 96 -43 l 115 -6 q 122 10 119 1 q 128 28 124 19 q 129 44 129 36 q 129 60 129 53 q 136 72 132 64 q 136 87 136 79 q 138 103 136 94 q 140 109 139 106 q 143 118 142 113 l 143 151 q 147 159 146 156 q 150 167 147 163 q 151 181 150 174 q 151 196 151 189 q 158 213 153 201 l 158 313 q 156 319 157 315 q 151 329 154 324 l 151 385 q 148 392 149 389 q 144 401 147 396 q 144 414 144 407 q 143 429 143 421 q 138 444 140 436 q 136 460 135 451 q 130 474 133 467 q 122 488 126 481 q 122 501 122 494 q 121 517 122 508 q 115 536 118 526 q 108 557 111 546 q 101 575 106 567 q 93 593 96 583 q 85 613 90 604 q 75 633 79 622 q 68 642 72 638 q 61 649 64 646 q 47 676 54 663 q 39 706 40 690 q 51 708 44 708 q 64 708 57 707 l 90 708 q 97 711 93 710 q 107 715 101 713 l 136 715 q 147 710 142 713 q 160 704 153 707 q 173 690 167 697 q 185 675 179 683 q 199 653 192 664 q 211 632 206 643 q 227 599 218 615 q 244 567 236 582 q 251 549 249 558 q 257 533 254 540 q 265 517 261 525 q 269 499 268 508 q 275 485 275 492 q 278 471 275 478 q 281 457 281 464 q 283 443 282 450 q 290 419 283 436 l 290 381 q 296 364 294 371 l 296 271 q 290 254 294 264 l 290 218 q 285 202 288 208 q 282 189 282 196 q 283 178 283 183 q 282 168 282 174 q 268 140 276 154 q 269 133 268 138 q 267 126 269 129 q 251 78 258 103 q 232 32 244 54 q 227 20 229 25 q 224 8 225 15 q 213 -15 219 -3 q 196 -43 203 -26 q 184 -63 190 -54 q 171 -83 178 -72 q 146 -108 163 -100 z "},"+":{"ha":517,"x_min":26,"x_max":488,"o":"m 488 313 q 482 306 482 310 q 481 281 481 293 q 481 258 481 269 q 479 240 481 246 q 474 233 479 239 q 424 233 449 232 q 372 233 399 233 q 326 239 353 243 l 321 233 q 319 197 318 215 q 319 160 321 179 l 315 151 q 313 143 315 149 l 313 94 l 306 88 q 270 87 288 86 q 235 86 253 88 q 221 92 228 89 q 207 97 214 94 q 204 104 204 103 q 203 131 203 118 q 203 158 203 144 l 203 224 q 201 242 203 236 q 198 244 199 243 q 196 246 197 246 q 181 247 190 247 l 97 247 q 90 245 93 246 q 82 243 86 244 q 62 247 72 249 q 40 249 51 246 q 38 252 39 251 q 36 254 36 253 q 35 264 36 260 q 35 274 35 268 l 35 339 q 29 353 32 347 q 31 367 26 360 q 36 369 33 369 q 54 371 42 371 l 142 371 l 164 371 q 186 383 181 378 q 188 399 188 392 q 189 416 189 406 q 189 442 189 426 q 188 482 189 457 q 185 488 186 485 q 182 494 185 490 q 182 533 179 514 q 185 536 185 535 q 189 538 186 538 q 207 539 194 539 l 296 539 q 310 544 304 543 q 320 536 315 540 q 332 528 325 532 q 333 524 332 525 q 333 521 333 524 q 335 468 335 494 q 335 415 335 442 q 335 405 335 410 q 336 393 335 400 q 338 391 336 392 q 340 388 339 390 q 376 386 358 385 q 414 385 394 388 q 421 383 417 383 q 432 379 425 382 l 488 379 l 488 313 z "},",":{"ha":214,"x_min":21,"x_max":193,"o":"m 182 136 q 183 133 182 135 q 185 128 185 131 q 185 106 186 117 q 185 83 185 94 q 193 65 190 72 l 193 -4 q 185 -28 189 -17 q 178 -50 182 -39 q 169 -71 175 -61 q 161 -92 164 -81 q 129 -119 147 -111 q 119 -127 124 -122 q 111 -136 115 -132 q 98 -140 104 -139 q 86 -144 92 -142 q 77 -150 82 -147 q 67 -151 72 -153 q 57 -137 60 -144 q 50 -122 54 -129 q 44 -109 47 -115 q 39 -96 40 -103 q 32 -79 38 -90 q 26 -67 29 -72 q 21 -57 24 -62 q 29 -50 24 -50 q 40 -47 35 -50 q 51 -43 46 -44 q 64 -39 57 -42 q 74 -35 69 -36 q 82 -33 79 -35 q 92 -21 89 -26 q 97 -10 94 -15 q 88 0 96 -1 q 73 1 81 1 q 58 3 65 0 q 56 8 57 6 q 54 13 54 10 l 54 93 q 59 106 57 100 q 64 119 61 113 q 73 126 68 124 q 82 131 78 128 q 107 128 97 133 q 132 126 118 122 q 163 138 149 133 q 182 136 169 142 z "},"-":{"ha":317,"x_min":28,"x_max":289,"o":"m 279 251 q 265 250 272 250 q 245 249 254 249 q 226 250 236 250 q 217 253 221 251 q 206 257 213 254 l 115 257 q 106 260 110 260 q 97 264 103 261 l 64 264 q 53 269 58 267 q 44 274 49 271 q 42 281 42 279 q 41 305 42 293 q 40 328 40 317 q 35 342 38 335 q 33 356 32 349 q 28 378 35 365 l 28 385 q 39 394 35 392 q 61 395 50 394 q 83 396 72 396 q 90 399 86 397 q 101 403 94 400 l 200 403 q 208 406 204 406 q 215 410 211 407 l 250 410 q 263 415 257 411 q 275 417 268 418 q 288 410 283 417 q 289 397 289 407 l 289 301 q 283 274 289 286 q 281 264 281 269 q 279 251 281 258 z "},".":{"ha":194,"x_min":18,"x_max":175,"o":"m 104 138 q 119 143 113 140 q 132 146 125 146 q 141 147 138 144 q 149 150 144 149 q 164 151 158 153 q 168 150 167 151 q 172 147 169 149 q 174 106 175 126 q 174 67 174 86 q 171 59 172 63 q 167 50 169 56 q 167 34 167 43 q 165 17 167 25 q 160 1 163 8 q 156 -15 158 -7 q 149 -13 151 -14 q 143 -11 146 -12 q 135 -8 143 -11 l 83 -8 q 67 -3 75 -6 q 50 0 60 0 q 38 10 42 0 q 35 24 35 17 q 35 42 36 32 q 28 60 32 50 q 22 81 25 69 q 24 86 24 83 q 26 92 25 89 q 22 104 28 96 q 24 126 18 115 q 28 129 26 128 q 32 131 29 131 q 45 133 39 131 q 58 138 51 135 l 104 138 z "},"/":{"ha":303,"x_min":21,"x_max":285,"o":"m 171 217 q 165 203 168 210 q 158 190 161 197 q 156 173 161 181 q 151 156 151 165 q 147 140 151 147 q 143 124 143 132 q 139 106 143 114 q 136 89 135 99 q 130 72 133 81 q 124 54 126 64 q 121 39 121 47 q 115 24 121 31 q 110 6 114 14 q 104 -11 107 -3 q 94 -14 97 -14 q 79 -8 90 -14 q 56 -7 68 -7 q 33 -7 44 -7 q 26 -3 28 -4 q 21 6 24 0 q 26 22 24 14 q 26 38 28 29 q 28 44 26 43 q 33 60 31 53 q 39 75 36 68 q 41 90 42 82 q 46 104 40 97 q 49 113 46 104 l 49 158 q 51 167 50 163 q 56 176 53 171 l 56 203 q 60 215 58 210 q 64 228 63 221 q 68 246 64 238 q 71 264 72 254 q 74 274 75 268 q 75 285 72 279 q 78 301 78 296 l 78 306 q 82 315 79 311 q 85 326 85 319 l 85 349 q 88 355 86 351 q 90 361 90 358 q 95 385 90 374 q 100 407 100 396 q 103 417 101 413 q 107 428 106 422 l 107 450 q 110 458 108 454 q 114 468 111 463 q 114 478 114 474 q 115 490 114 483 q 121 503 118 496 q 128 517 124 510 q 128 524 128 519 q 131 533 128 529 q 136 565 136 546 q 138 574 136 569 q 143 586 140 579 q 143 610 143 597 q 144 636 143 622 q 148 639 147 638 q 150 640 149 640 q 161 642 154 642 q 178 643 169 643 q 193 643 186 643 q 201 646 197 644 q 208 649 204 647 q 275 649 242 650 q 281 636 285 642 q 275 615 275 625 q 269 594 275 604 q 268 590 268 593 q 267 574 267 582 q 263 558 267 567 q 260 544 260 551 q 256 531 260 538 q 253 515 251 524 q 247 499 254 506 q 242 474 246 486 q 236 450 238 463 q 231 433 229 443 q 228 415 232 424 q 222 398 224 407 q 215 381 219 389 q 210 358 210 369 q 203 336 210 347 q 197 313 201 324 q 190 290 193 301 q 186 278 188 283 q 182 267 185 274 q 180 253 179 260 q 176 242 181 247 q 174 230 174 236 q 171 217 174 224 z "},":":{"ha":203,"x_min":22,"x_max":179,"o":"m 108 256 q 124 261 118 258 q 136 264 129 264 q 147 266 143 263 q 157 269 151 269 q 167 271 163 271 q 178 264 172 271 q 178 222 179 243 q 178 179 178 200 q 175 169 176 174 q 171 160 174 165 l 171 114 q 167 106 171 110 q 153 104 160 101 q 139 110 147 107 l 89 110 q 72 115 79 113 q 56 118 64 118 q 42 129 46 118 q 40 149 39 139 q 39 169 40 158 q 36 175 38 172 q 33 182 35 178 q 32 196 32 189 q 32 211 32 203 q 28 221 29 217 q 28 244 22 233 q 35 248 31 249 q 44 249 40 247 q 53 252 49 251 q 64 256 57 253 l 108 256 m 176 588 q 179 551 179 571 q 178 496 179 531 q 171 481 175 493 l 171 454 q 171 441 171 447 q 168 429 171 435 q 156 430 161 428 q 144 432 151 432 q 131 431 138 431 q 118 432 125 432 l 92 432 q 58 439 75 439 q 40 453 46 439 q 40 469 40 460 q 39 489 39 478 q 36 496 38 492 q 33 506 35 500 q 32 519 32 513 q 32 533 32 526 q 26 548 28 540 q 26 565 24 556 q 32 569 29 567 q 38 574 35 572 q 47 578 42 575 l 93 578 q 108 578 100 578 q 124 583 117 578 q 142 587 133 585 q 160 592 150 589 q 176 588 168 593 z "},";":{"ha":219,"x_min":18,"x_max":201,"o":"m 47 132 q 52 145 50 140 q 54 157 54 150 q 55 165 54 161 q 56 174 56 169 q 71 181 63 179 q 86 186 79 183 q 96 183 93 186 q 128 183 111 178 q 147 188 138 186 q 167 193 157 189 q 174 193 167 193 q 178 190 176 190 q 182 186 179 189 q 183 176 186 182 q 182 172 183 174 q 179 167 181 169 q 184 153 182 160 q 186 138 186 146 q 185 91 185 114 q 186 44 186 68 q 175 15 181 29 q 163 -14 169 0 q 158 -25 160 -19 q 153 -37 156 -31 q 140 -52 147 -44 q 124 -64 133 -60 q 110 -77 118 -72 q 92 -85 101 -82 q 78 -90 85 -86 q 65 -96 72 -93 q 61 -93 63 -93 q 58 -90 60 -93 q 38 -51 47 -71 q 18 -10 28 -31 q 19 -6 18 -7 q 19 -3 19 -4 q 24 3 22 3 q 46 10 35 6 q 68 18 57 14 q 88 35 78 24 q 85 54 93 43 q 69 56 76 56 q 53 57 61 56 q 50 60 51 60 q 49 63 49 61 q 47 78 47 68 l 47 132 m 81 385 q 74 391 76 389 q 68 396 71 393 q 64 417 60 404 q 67 423 65 419 q 67 431 68 426 q 56 447 64 436 q 55 481 53 464 q 50 513 57 497 q 67 522 61 518 q 99 523 82 524 q 135 524 115 522 q 141 526 138 525 q 150 529 144 526 q 167 531 158 531 q 185 536 176 531 q 189 537 186 538 q 194 536 192 536 q 200 529 196 533 q 201 476 201 503 q 200 422 200 449 q 197 415 199 418 q 194 408 196 411 q 193 390 192 399 q 190 372 194 381 q 151 377 171 379 q 113 378 132 375 q 81 385 99 385 z "},"=":{"ha":540,"x_min":43,"x_max":496,"o":"m 432 179 q 423 182 426 181 q 415 186 419 183 l 324 186 q 314 190 318 189 q 303 193 310 190 l 146 193 q 138 197 142 196 q 129 200 133 197 l 72 200 q 63 205 67 203 q 54 210 58 207 q 52 214 53 213 q 51 218 51 215 q 50 256 50 238 q 50 294 50 275 q 47 303 50 299 q 44 311 43 307 q 48 314 47 313 q 50 315 49 315 q 61 317 56 317 q 72 317 67 317 q 83 319 78 317 q 94 324 88 321 l 263 324 q 279 329 274 326 q 292 332 285 332 q 303 330 299 332 q 314 325 307 328 l 363 325 q 381 331 371 328 q 403 339 392 335 l 482 339 q 494 333 490 339 q 495 301 494 322 q 496 258 496 281 q 495 214 496 235 q 494 183 494 193 q 489 181 489 181 q 478 179 485 179 l 432 179 m 268 507 q 319 507 297 522 l 363 507 q 381 513 371 510 q 403 521 390 517 q 444 522 422 522 q 489 522 467 521 q 492 518 492 519 q 494 514 493 517 q 496 507 496 513 l 496 376 q 489 363 496 368 q 461 360 475 360 q 432 361 447 361 q 424 365 428 364 q 414 368 419 365 l 332 368 q 326 370 329 369 q 321 372 324 371 q 313 375 321 372 l 163 375 q 153 379 157 378 q 143 383 149 381 l 74 383 q 62 388 67 386 q 51 396 57 390 q 50 415 49 406 q 50 435 51 424 l 50 481 q 47 486 50 482 q 46 497 43 490 q 63 500 54 501 q 82 501 72 499 q 88 503 85 503 q 96 507 92 504 l 268 507 z "},"?":{"ha":544,"x_min":35,"x_max":510,"o":"m 131 392 q 130 404 129 399 q 128 417 131 410 q 107 428 121 422 q 74 428 92 429 q 40 429 57 428 q 38 433 39 432 q 36 436 36 435 q 35 457 35 447 q 40 476 35 467 q 42 486 42 479 q 42 496 43 492 q 44 504 42 500 q 49 519 47 511 q 56 535 51 528 q 65 554 61 544 q 74 572 69 564 q 88 585 81 581 q 101 594 94 589 q 112 603 107 599 q 124 615 117 608 q 155 631 139 622 q 186 646 171 639 q 201 648 194 647 q 215 654 208 649 q 263 655 239 656 q 308 654 286 654 q 320 650 315 651 q 331 647 325 649 q 363 642 350 647 q 372 639 367 639 q 381 639 376 639 q 403 627 392 632 q 425 614 415 622 q 475 563 457 594 q 494 534 488 550 q 510 503 500 518 l 510 438 q 501 417 504 426 q 494 396 499 407 q 483 376 489 385 q 469 356 476 367 q 454 340 463 347 q 439 325 446 332 q 435 322 436 324 q 432 321 435 321 q 420 313 425 318 q 410 303 415 308 q 397 290 403 296 q 382 281 390 285 q 371 273 375 278 q 363 263 367 268 q 353 254 358 258 q 344 244 349 250 q 340 235 342 240 q 335 225 338 231 q 331 204 335 214 q 324 183 328 194 q 320 182 321 183 q 317 181 319 181 q 273 179 294 179 q 229 182 251 179 q 226 187 228 185 q 225 192 225 189 l 225 257 q 250 318 233 289 l 275 343 q 276 356 275 351 q 319 383 306 360 l 319 456 q 312 478 314 467 q 300 499 310 490 q 292 494 292 501 q 290 476 290 485 q 290 458 290 468 q 287 450 288 454 q 283 440 286 446 l 283 385 q 279 377 281 381 q 276 369 278 374 l 276 356 q 263 369 267 357 q 261 410 260 389 q 261 450 263 431 q 250 469 257 460 q 235 468 243 474 q 222 438 225 454 q 210 406 218 421 l 210 365 q 207 357 208 361 q 203 346 206 353 l 203 150 q 215 144 211 144 q 233 144 218 143 q 240 147 236 146 q 247 151 243 149 l 293 151 q 308 156 303 153 q 321 158 314 158 q 332 161 328 158 q 342 164 336 164 q 353 165 347 165 q 363 160 358 165 q 363 116 364 138 q 364 74 363 94 q 360 64 361 68 q 357 54 360 60 q 357 31 357 43 q 356 8 357 19 q 354 4 356 6 q 351 0 353 3 q 342 1 346 -3 q 333 4 338 4 l 272 4 q 256 10 264 7 q 240 13 249 13 q 225 26 231 14 q 225 44 225 35 q 224 64 225 53 q 218 78 221 72 l 218 88 q 217 104 217 96 q 217 121 218 113 q 211 131 217 125 q 206 132 211 132 q 204 129 204 131 q 203 113 203 121 q 203 96 203 104 l 203 43 q 197 28 199 36 q 196 -10 194 8 q 194 -49 197 -29 q 192 -50 192 -50 q 188 -49 189 -50 q 186 -46 186 -47 q 184 -43 185 -44 q 181 -39 183 -42 l 181 279 q 176 294 178 288 q 171 308 174 301 q 160 318 167 311 q 159 349 160 333 q 158 381 158 364 q 151 388 156 385 q 143 396 147 392 l 131 392 m 131 392 q 129 378 129 388 q 125 375 129 371 q 124 378 124 376 q 131 392 121 388 z "},"@":{"ha":879,"x_min":46,"x_max":833,"o":"m 46 343 q 49 351 47 347 q 51 358 50 354 q 50 364 50 361 q 49 369 50 367 q 51 378 49 372 q 52 391 53 385 q 54 404 51 397 q 62 428 58 415 q 69 451 65 440 q 79 478 75 468 q 88 498 83 489 q 99 517 93 507 q 115 542 106 526 q 123 553 119 547 q 129 563 126 558 q 153 586 140 575 q 189 622 169 606 q 199 633 194 628 q 211 642 204 639 q 227 653 219 647 q 244 663 235 660 q 256 668 251 665 q 267 674 261 671 q 301 689 283 685 q 335 700 318 693 q 347 703 342 703 q 360 703 353 703 q 367 706 363 706 q 375 710 371 707 l 408 710 q 425 717 414 711 l 467 717 l 510 717 q 519 713 515 714 q 529 710 524 713 l 561 710 q 578 703 572 704 q 626 690 607 696 q 667 672 644 683 q 691 660 679 665 q 714 644 703 654 q 725 639 721 643 q 733 631 729 635 l 763 601 q 772 593 767 597 q 779 583 776 589 q 793 563 786 572 q 803 542 800 554 q 813 505 806 522 q 826 467 819 488 l 826 440 q 830 432 829 436 q 833 424 831 428 l 833 354 q 826 333 828 340 q 825 317 825 325 q 821 301 825 310 q 818 283 818 297 q 804 256 811 269 q 790 228 797 243 q 778 208 785 217 q 767 188 772 199 q 757 176 764 183 q 746 165 751 171 q 735 153 740 160 q 721 140 726 144 q 710 131 715 135 q 699 122 706 126 q 681 111 692 118 q 663 99 671 104 q 643 88 654 93 q 625 76 636 85 q 615 74 619 75 q 603 72 610 74 q 598 67 600 69 q 593 63 596 65 q 593 47 593 54 q 592 32 593 39 q 582 25 592 26 q 574 40 576 32 q 569 56 572 47 q 560 65 567 63 q 544 63 551 68 q 536 39 540 51 q 528 14 532 26 q 535 3 528 3 q 551 1 543 1 q 568 1 560 1 q 576 4 572 3 q 586 8 581 6 q 605 10 596 7 q 624 15 614 13 q 651 25 638 21 q 678 36 665 29 q 690 44 685 39 q 701 53 694 49 q 726 67 714 60 q 747 86 738 75 q 778 89 767 89 q 815 88 790 89 q 818 84 817 85 q 822 81 819 83 q 825 71 828 74 q 808 48 815 60 q 790 28 801 36 q 785 23 788 25 q 781 18 783 21 q 763 0 772 8 q 753 -7 758 -4 q 744 -12 749 -10 q 731 -22 738 -17 q 717 -31 724 -26 q 706 -37 711 -33 q 694 -42 701 -40 q 677 -49 685 -44 q 658 -57 669 -53 q 640 -60 649 -56 q 619 -67 631 -64 q 607 -71 613 -69 q 594 -72 601 -72 q 581 -74 588 -71 q 567 -79 575 -76 l 507 -79 q 492 -92 496 -83 q 490 -112 489 -103 q 489 -132 492 -122 q 488 -133 489 -133 q 488 -135 488 -133 q 479 -133 485 -133 q 476 -135 478 -135 q 474 -137 475 -135 q 469 -144 472 -139 q 469 -194 468 -169 q 468 -246 469 -219 l 468 -347 l 468 -446 q 469 -497 468 -472 q 468 -547 469 -522 q 463 -558 465 -553 q 456 -567 461 -564 q 449 -561 449 -567 q 447 -539 447 -550 q 446 -517 447 -528 q 440 -501 443 -508 q 439 -437 439 -469 q 439 -372 439 -406 l 439 -242 l 439 -114 q 435 -101 438 -106 q 429 -90 432 -96 q 426 -89 428 -89 q 412 -87 419 -87 q 394 -85 404 -86 q 382 -81 392 -85 q 367 -79 375 -79 q 351 -78 360 -79 q 338 -72 343 -75 q 322 -72 331 -72 q 304 -74 314 -71 q 297 -86 303 -78 q 294 -92 294 -89 q 290 -99 293 -96 q 283 -100 285 -99 q 267 -85 274 -94 q 265 -74 264 -79 q 263 -62 265 -69 q 257 -53 261 -57 q 250 -47 253 -50 q 243 -43 244 -44 q 213 -31 228 -42 q 202 -24 207 -28 q 192 -17 197 -21 q 183 -10 188 -14 q 174 -4 179 -7 q 160 7 168 -1 l 129 38 q 121 46 125 42 q 114 54 117 50 q 104 69 108 61 q 94 85 100 76 l 86 101 q 70 135 78 118 q 58 171 63 151 q 53 182 57 176 q 53 197 53 189 q 51 214 53 206 q 49 221 50 217 q 46 228 47 225 l 46 343 m 383 607 q 371 601 376 604 q 358 600 365 599 q 351 599 354 600 q 344 596 347 597 q 318 587 331 593 q 293 575 306 581 q 276 565 283 571 q 260 553 269 558 q 250 546 254 550 q 242 536 246 542 l 221 515 q 210 506 215 510 q 201 494 204 501 q 188 474 194 483 q 176 454 182 465 q 172 442 174 447 q 168 431 169 438 q 162 417 165 424 q 156 404 158 411 q 150 387 153 394 q 147 369 147 379 q 145 359 147 364 q 140 347 143 354 l 140 301 q 135 290 136 296 q 136 274 131 282 q 138 268 138 271 q 140 263 139 265 l 140 224 q 149 196 146 208 q 157 172 153 183 q 168 149 163 160 q 179 126 174 138 q 189 117 185 122 q 200 113 193 111 q 208 122 206 117 q 213 133 210 128 l 213 142 q 203 155 208 149 q 194 169 197 161 q 188 186 192 178 q 185 203 185 194 q 181 217 185 211 q 176 229 178 224 l 176 300 q 180 308 179 304 q 183 315 181 311 q 184 330 183 322 q 185 344 185 338 q 190 360 188 351 q 219 431 200 397 q 234 453 226 442 q 251 474 242 464 q 280 503 267 489 q 307 529 293 517 q 322 537 315 533 q 335 543 328 540 q 353 551 344 547 q 372 556 363 554 q 385 559 379 557 q 397 563 390 561 l 458 563 q 486 554 474 558 q 499 548 493 551 q 514 543 506 544 l 535 556 l 582 556 q 609 556 596 556 q 636 557 622 557 q 639 558 639 558 q 638 565 640 563 q 626 572 632 569 q 614 582 619 575 q 611 583 613 583 q 608 585 610 583 q 578 593 593 588 q 549 601 564 599 q 540 603 544 601 q 533 607 536 606 l 383 607 m 389 429 q 358 399 371 410 q 338 358 344 378 q 324 318 332 338 q 322 309 322 314 q 322 300 322 304 q 315 285 318 292 q 308 271 311 278 l 308 219 q 325 206 314 207 q 347 201 336 206 q 361 199 351 199 q 382 197 368 197 q 417 194 401 188 q 428 199 422 197 q 440 203 433 200 q 457 219 450 210 q 464 233 461 226 q 469 244 467 239 q 480 266 476 256 q 488 288 483 276 q 488 313 493 300 q 486 319 488 318 q 488 325 488 322 q 490 331 489 328 l 490 351 q 483 367 485 363 q 483 387 483 378 q 482 406 483 396 q 449 439 467 424 q 428 440 438 439 q 408 439 419 440 q 400 434 404 436 q 389 429 396 432 m 674 500 q 672 480 672 489 q 667 463 672 471 q 666 457 665 460 q 665 451 667 454 q 666 444 665 449 q 664 438 667 440 q 659 418 658 428 q 653 399 660 408 q 651 389 651 396 q 651 376 651 382 q 647 364 650 371 q 643 350 643 357 q 640 336 643 343 q 636 319 636 328 q 631 301 636 310 q 627 283 631 292 q 622 267 624 275 q 620 254 622 260 q 615 242 618 249 q 614 229 614 235 q 613 217 614 224 q 611 214 613 215 q 619 206 611 203 q 631 210 626 208 q 642 215 636 213 q 691 273 675 243 q 717 325 707 303 q 718 339 714 332 q 724 354 722 346 l 724 444 q 719 458 721 451 q 714 472 717 465 q 708 485 711 479 q 701 499 704 492 q 685 517 694 511 q 678 509 681 514 q 674 500 676 504 m 383 50 q 379 41 381 44 q 375 33 378 38 q 375 15 372 24 q 388 1 376 8 l 411 1 q 417 14 418 11 q 412 29 414 22 q 407 43 410 36 q 383 50 400 54 m 303 36 q 311 26 308 28 q 322 24 314 24 q 338 35 338 24 q 337 47 338 42 q 336 60 336 53 q 332 65 336 61 q 314 65 322 67 q 310 63 315 65 q 307 50 310 58 q 303 36 301 39 m 283 -156 q 285 -159 283 -158 q 286 -162 286 -160 q 287 -180 286 -171 q 285 -197 288 -189 q 282 -200 285 -197 q 278 -185 279 -189 q 279 -161 278 -181 q 281 -159 279 -160 q 283 -156 282 -158 z "},"A":{"ha":590,"x_min":-6,"x_max":596,"o":"m 532 186 q 535 173 535 179 q 538 160 535 167 q 546 136 543 149 q 556 113 549 124 q 563 90 561 101 q 572 69 565 79 q 574 66 574 67 q 576 63 575 65 q 581 47 579 54 q 585 31 582 39 q 591 18 588 24 q 596 4 594 13 q 592 3 593 4 q 589 1 590 1 l 524 1 q 501 6 511 1 q 490 3 500 6 q 475 7 486 4 q 465 2 468 7 q 456 -1 463 -3 q 452 13 453 6 q 449 26 451 19 q 444 40 446 33 q 439 53 442 46 l 414 132 q 397 140 406 140 q 377 132 386 138 q 358 122 368 126 q 349 106 354 117 q 346 103 347 104 q 343 101 344 103 q 340 100 342 100 q 335 111 336 106 q 331 124 333 117 q 306 149 322 140 q 299 151 303 150 q 293 154 296 153 l 257 154 q 233 132 243 149 q 229 119 231 125 q 225 107 228 114 q 219 83 219 97 q 217 69 219 78 q 215 64 215 67 q 213 58 214 61 l 213 4 q 209 -4 210 0 q 206 -14 208 -8 l 206 -92 q 211 -107 208 -100 q 211 -121 214 -114 q 201 -135 211 -126 q 190 -124 194 -133 l 190 -72 q 194 -65 193 -69 q 197 -56 194 -60 l 197 44 q 194 53 194 49 q 192 60 193 57 q 190 87 189 74 q 189 114 192 100 q 178 124 181 124 q 165 122 175 125 q 163 119 163 122 q 160 103 161 111 q 154 89 158 96 q 153 83 153 86 q 151 78 153 81 q 142 54 144 67 q 132 31 139 42 q 122 14 128 22 q 113 11 117 8 q 103 15 108 14 q 96 13 100 14 q 86 8 92 11 q 42 8 64 8 q -3 10 19 8 q -6 18 -6 18 q 1 37 -3 28 q 8 56 6 46 q 11 67 8 61 q 21 89 18 78 q 29 111 24 100 l 29 135 q 22 144 25 140 q 15 153 18 149 q 15 181 14 168 q 15 207 15 194 q 19 212 18 210 q 22 217 21 214 q 33 222 28 219 q 42 226 38 224 q 51 228 47 228 q 60 229 56 228 q 71 238 69 232 q 85 261 78 250 q 99 285 93 272 q 103 301 101 293 q 110 315 104 308 q 117 331 115 322 q 121 346 118 339 q 128 367 125 357 q 139 386 132 376 q 139 401 139 393 q 140 415 139 408 q 149 442 144 429 q 160 467 154 454 q 167 490 164 478 q 175 514 171 503 q 176 519 176 517 q 178 525 176 522 q 192 558 188 540 q 204 592 197 575 q 206 601 206 596 q 210 610 207 606 q 215 623 213 617 q 224 635 218 629 q 274 638 242 638 q 351 636 307 638 q 365 625 358 635 q 368 617 367 621 q 371 611 369 614 q 379 590 374 600 q 388 567 385 579 q 396 545 390 556 q 404 524 401 535 q 422 480 415 503 q 438 435 428 457 q 444 416 439 424 q 451 399 449 408 q 457 378 454 388 q 464 360 460 369 q 477 327 472 344 q 489 292 482 310 q 490 287 490 289 q 492 282 490 285 q 501 263 497 272 q 507 244 504 254 q 515 226 511 235 q 522 208 519 218 q 527 197 525 201 q 532 186 529 192 m 271 397 q 265 381 267 388 q 260 367 263 374 q 257 354 257 360 q 254 342 257 349 q 250 328 251 335 q 247 314 249 321 q 236 292 243 303 q 246 279 231 279 q 253 280 249 279 q 260 281 257 281 q 266 283 263 282 q 274 286 269 285 l 317 286 q 322 288 319 286 q 326 290 324 289 q 325 322 332 306 q 319 339 322 331 q 315 357 315 347 q 313 375 315 367 q 307 392 310 383 q 303 402 306 397 q 300 413 301 407 q 296 432 300 424 q 289 450 292 440 q 286 451 288 451 q 283 453 285 451 q 276 444 279 449 q 271 433 274 439 l 271 397 m 464 -90 q 467 -96 467 -93 q 469 -117 468 -107 q 467 -139 469 -128 q 464 -140 465 -140 q 460 -124 461 -129 q 461 -96 460 -119 q 463 -92 461 -93 q 464 -90 464 -92 m 38 -156 q 36 -174 38 -167 q 32 -176 36 -181 q 31 -174 31 -174 l 31 -137 q 35 -135 31 -131 q 35 -136 35 -136 q 36 -137 36 -136 q 37 -147 36 -142 q 38 -156 38 -151 m 486 -293 q 485 -291 486 -292 q 483 -289 483 -290 q 486 -281 481 -281 q 488 -282 488 -281 q 489 -292 489 -285 q 486 -293 488 -293 z "},"B":{"ha":565,"x_min":32,"x_max":533,"o":"m 336 -115 q 331 -127 333 -122 q 329 -137 329 -132 l 329 -196 q 328 -201 329 -199 q 328 -206 328 -203 q 317 -199 319 -207 q 315 -187 315 -193 q 315 -176 315 -182 q 318 -168 317 -172 q 322 -157 319 -164 l 322 -104 q 328 -83 328 -89 q 328 -62 329 -78 q 322 -54 324 -56 q 317 -49 319 -51 q 313 -44 315 -47 l 304 -44 q 288 -60 293 -51 q 279 -79 283 -68 q 275 -90 276 -85 q 271 -106 274 -96 l 271 -190 l 271 -250 q 267 -258 271 -258 q 258 -251 261 -257 q 250 -233 253 -240 l 250 -211 q 253 -204 251 -208 q 256 -194 254 -200 q 257 -181 257 -187 q 257 -167 257 -174 q 260 -160 260 -164 q 264 -151 261 -156 l 264 -29 q 254 -10 263 -21 q 247 -7 249 -7 q 218 -7 232 -6 q 212 -16 214 -11 q 206 -26 210 -21 l 206 -71 q 202 -78 203 -74 q 199 -87 201 -82 l 199 -122 q 202 -130 201 -126 q 206 -137 203 -133 l 206 -201 q 202 -210 203 -206 q 199 -221 201 -214 l 199 -349 q 194 -356 196 -353 q 190 -365 193 -360 l 190 -501 q 182 -521 185 -515 q 169 -521 172 -524 q 163 -512 168 -518 l 163 -474 q 165 -467 164 -471 q 168 -458 165 -462 q 169 -437 171 -447 q 175 -417 168 -426 q 176 -402 176 -410 q 176 -387 176 -394 q 180 -379 179 -383 q 183 -369 181 -375 l 183 -276 q 180 -269 181 -272 q 176 -260 179 -265 l 176 -212 q 173 -204 174 -208 q 169 -196 172 -200 l 169 -149 q 165 -137 167 -142 q 163 -126 164 -132 q 161 -108 161 -119 q 146 -96 157 -94 q 138 -103 140 -99 q 133 -114 136 -108 q 132 -132 133 -125 q 129 -138 131 -135 q 125 -146 128 -142 l 125 -207 l 125 -339 q 122 -353 125 -349 q 117 -354 121 -354 q 106 -346 108 -354 q 104 -335 104 -342 q 103 -306 103 -319 q 103 -278 103 -292 q 106 -270 106 -274 q 110 -261 107 -267 l 110 -207 q 114 -196 113 -200 q 118 -186 115 -192 l 118 -118 q 125 -101 119 -112 q 126 -83 126 -92 q 132 -67 125 -74 q 132 3 135 -31 q 130 6 131 6 q 128 10 129 7 q 108 14 119 18 q 100 10 104 13 q 93 7 96 8 q 89 -8 89 1 l 89 -107 l 89 -142 q 83 -157 86 -150 q 78 -171 81 -164 q 75 -172 76 -171 q 71 -172 74 -172 q 63 -165 68 -171 q 60 -148 60 -157 q 53 -131 60 -139 l 53 -94 q 56 -87 54 -92 q 58 -79 57 -83 q 60 -62 60 -71 q 60 -44 60 -54 q 65 -28 65 -33 q 67 -17 67 -22 q 67 -6 67 -11 q 64 4 67 -1 q 58 8 61 7 q 50 11 54 8 q 46 18 46 14 q 43 26 46 22 q 32 36 39 29 l 32 54 q 37 59 35 57 q 42 64 39 61 q 44 71 44 67 l 44 103 l 44 519 l 44 556 q 48 563 47 558 q 51 569 49 567 q 52 603 54 586 q 53 638 50 621 q 60 643 57 642 q 65 644 63 643 q 71 644 68 644 q 183 644 128 644 q 296 643 239 644 l 301 643 q 308 641 304 642 q 315 638 311 640 l 356 638 q 377 629 367 633 q 399 622 388 625 q 413 617 406 619 q 428 608 421 614 q 441 599 435 601 q 454 589 447 596 q 476 563 467 576 q 496 529 485 550 q 497 509 499 519 q 503 488 496 499 q 500 481 501 485 q 499 474 499 476 q 497 457 497 465 q 492 442 497 449 q 490 429 490 435 q 489 417 490 424 q 484 406 486 411 q 479 396 482 401 q 463 379 472 388 q 446 364 454 371 q 436 358 442 360 q 428 351 431 356 q 428 342 426 346 q 443 333 435 335 q 460 326 451 331 q 475 319 468 324 q 492 311 482 315 q 510 292 496 306 q 516 279 513 286 q 522 265 519 272 q 528 249 525 257 q 533 233 531 242 l 533 208 q 530 198 532 203 q 528 188 528 193 q 526 172 526 179 q 521 156 525 164 q 519 148 518 153 q 518 139 519 143 q 510 126 514 132 q 503 114 507 121 q 494 104 499 108 q 485 94 490 100 q 474 85 479 90 q 465 76 469 81 q 462 64 463 69 q 458 54 461 58 q 453 44 456 49 q 449 35 451 39 q 447 -6 458 14 l 447 -68 q 443 -79 444 -75 q 439 -89 442 -83 l 439 -158 q 435 -167 436 -164 q 432 -174 435 -171 l 432 -237 q 438 -251 435 -244 q 439 -264 440 -257 q 440 -278 438 -271 q 446 -292 443 -285 l 446 -371 q 440 -385 443 -376 q 440 -390 440 -387 q 439 -396 439 -393 l 439 -429 q 433 -433 439 -433 q 431 -431 433 -433 q 425 -418 425 -426 l 425 -365 q 428 -358 426 -362 q 432 -349 429 -354 l 432 -293 q 427 -278 429 -286 q 422 -264 425 -271 q 413 -253 418 -258 q 400 -249 408 -249 q 394 -258 396 -253 q 388 -267 392 -262 l 388 -411 q 385 -422 386 -418 q 382 -431 383 -426 q 380 -440 379 -435 q 378 -449 381 -444 q 367 -442 371 -446 q 360 -432 364 -439 q 358 -414 357 -424 q 358 -396 360 -404 q 363 -386 361 -390 q 365 -376 364 -382 l 365 -315 q 358 -294 364 -308 q 362 -286 361 -290 q 365 -275 363 -282 l 365 -204 q 373 -190 369 -197 q 381 -172 376 -182 l 381 -117 q 384 -109 383 -112 q 388 -101 385 -106 q 388 -57 389 -79 q 388 -11 388 -35 l 388 -4 q 381 11 382 3 q 378 26 381 19 q 367 31 372 31 q 357 29 363 31 q 352 26 354 28 q 347 24 350 25 q 342 8 344 15 q 336 -10 339 0 l 336 -115 m 181 289 q 176 267 176 281 q 178 219 175 254 q 181 213 179 215 q 183 207 182 210 q 183 174 185 190 q 185 143 182 158 q 190 138 188 140 q 196 133 193 136 q 235 133 218 131 q 244 138 240 136 q 251 140 249 139 q 275 134 269 135 q 296 135 281 133 q 327 149 311 142 q 358 165 343 157 q 373 180 365 172 q 388 197 381 188 q 388 236 389 218 q 383 243 385 242 q 375 253 379 249 q 368 260 371 257 q 341 269 353 265 q 315 272 329 274 q 307 274 311 272 q 297 279 303 276 l 222 279 q 210 283 215 282 q 201 286 206 285 q 181 289 188 289 m 279 381 l 317 381 q 326 381 322 381 q 336 385 331 382 q 353 401 344 392 q 371 418 363 410 q 376 430 374 425 q 381 439 378 435 l 381 468 q 377 475 378 471 q 375 482 376 479 q 372 491 372 486 q 367 500 372 496 q 353 509 360 504 q 338 519 346 514 l 324 519 l 307 519 q 299 516 303 517 q 292 513 296 515 l 249 513 l 217 513 q 199 499 206 513 q 199 462 197 481 q 197 425 200 443 q 193 414 194 417 q 194 404 190 407 q 203 397 200 399 q 219 395 211 394 q 235 392 228 396 q 251 388 242 388 q 267 386 260 389 q 272 385 269 386 q 279 381 275 383 m 436 -615 q 433 -612 433 -612 q 425 -587 429 -603 l 425 -472 q 428 -462 425 -468 q 431 -461 428 -461 q 436 -464 436 -458 q 439 -469 439 -467 l 439 -612 l 436 -615 z "},"C":{"ha":563,"x_min":36,"x_max":525,"o":"m 489 517 q 472 517 481 517 q 457 521 464 517 q 443 524 450 525 q 429 528 436 524 q 415 531 422 532 q 399 533 407 531 q 386 538 394 535 l 338 538 q 322 533 331 535 q 306 528 314 531 q 268 513 285 522 q 235 492 251 503 q 226 483 228 488 l 206 454 q 201 446 203 450 q 199 438 199 442 q 192 422 196 429 q 189 406 189 415 q 188 395 190 400 q 182 383 185 390 l 182 324 l 182 265 q 189 248 185 256 q 190 232 193 240 q 203 206 197 218 q 218 182 210 193 q 250 150 231 163 q 274 136 261 143 q 299 124 286 129 q 313 122 306 121 q 325 115 319 122 q 377 115 351 114 q 428 115 403 115 q 436 119 432 117 q 446 121 440 121 q 462 124 454 122 q 476 129 469 126 q 490 135 483 132 q 504 140 497 138 q 514 143 510 143 q 525 136 522 146 l 525 129 l 525 88 q 519 72 522 81 q 518 48 517 60 q 517 25 519 36 q 493 13 507 15 q 481 8 486 11 q 471 3 476 6 q 462 -15 464 -4 q 457 -36 460 -25 q 450 -28 454 -32 q 444 -25 447 -25 q 440 -28 442 -25 q 430 -51 438 -42 q 415 -72 422 -61 q 413 -76 414 -75 q 410 -81 411 -78 q 408 -94 408 -87 q 408 -107 408 -100 l 408 -125 q 406 -133 407 -129 q 403 -142 404 -137 q 413 -161 408 -156 q 417 -169 415 -165 q 422 -175 419 -172 q 423 -179 422 -178 q 422 -183 424 -181 q 417 -199 419 -190 q 415 -215 414 -207 q 414 -226 417 -221 q 408 -237 411 -231 l 408 -278 q 415 -293 410 -282 q 416 -335 415 -304 q 417 -399 417 -365 q 416 -462 417 -433 q 415 -497 415 -492 q 414 -500 414 -500 q 411 -503 411 -503 q 403 -499 403 -506 q 401 -478 401 -492 l 401 -294 l 401 -260 q 395 -240 396 -246 q 393 -212 394 -235 q 390 -206 392 -210 q 388 -199 389 -201 q 387 -193 388 -196 q 386 -187 386 -190 l 386 -35 q 386 -28 386 -32 q 383 -21 386 -24 q 378 -18 382 -18 q 367 -26 371 -19 q 362 -41 364 -33 q 357 -57 360 -49 l 357 -203 q 354 -212 356 -208 q 350 -222 353 -217 l 350 -257 q 353 -263 351 -260 q 357 -272 354 -267 q 357 -353 360 -312 q 343 -365 350 -365 q 338 -366 340 -367 q 332 -365 335 -365 q 336 -336 336 -349 q 335 -285 335 -310 q 336 -233 336 -260 q 335 -226 336 -231 q 335 -219 335 -222 q 330 -215 332 -217 q 325 -210 328 -212 q 332 -204 328 -207 q 339 -199 336 -201 q 342 -193 340 -196 q 343 -187 343 -190 l 343 -50 q 340 -42 343 -47 q 332 -31 338 -35 q 322 -21 326 -26 q 312 -15 317 -18 q 301 -10 307 -12 q 288 -9 294 -10 q 275 -8 282 -8 q 251 3 264 -1 q 226 11 239 7 q 219 13 224 14 q 211 14 215 13 q 187 25 199 19 q 164 40 175 31 q 152 47 157 43 q 142 57 147 51 q 117 82 129 69 q 92 106 104 94 q 72 144 82 125 q 53 183 63 164 q 51 197 50 190 q 47 210 51 203 q 43 226 43 215 q 36 253 46 242 l 36 338 q 38 342 38 342 q 43 357 39 350 q 43 370 43 364 q 44 383 43 376 q 49 397 47 390 q 51 410 51 403 q 56 424 51 415 q 60 438 58 431 q 65 454 63 446 q 70 467 68 461 q 78 481 72 474 q 88 497 85 488 q 99 517 92 506 q 129 548 114 532 q 161 579 144 564 q 176 591 168 586 q 190 601 183 596 q 258 626 217 618 q 270 630 265 628 q 282 633 275 632 q 306 640 297 636 l 429 640 q 436 638 432 639 q 446 633 440 636 l 474 633 q 496 626 485 628 q 517 613 507 624 q 519 583 519 597 q 518 553 518 568 q 511 539 514 546 q 496 524 507 528 q 489 517 490 521 m 410 -635 q 409 -601 408 -607 q 413 -590 410 -596 q 416 -598 417 -593 q 417 -607 415 -603 q 420 -615 418 -611 q 422 -624 422 -619 q 429 -651 424 -636 q 429 -667 432 -658 q 425 -669 429 -672 q 422 -668 422 -668 q 417 -658 418 -665 q 413 -647 414 -653 q 410 -635 413 -642 m 411 -531 q 417 -544 418 -537 q 415 -558 415 -551 q 410 -560 413 -560 q 406 -562 408 -561 q 403 -558 406 -561 q 403 -533 399 -546 q 411 -531 406 -528 m 457 -181 q 456 -203 465 -193 q 457 -181 449 -189 m 489 517 q 493 513 493 517 q 490 514 490 513 q 489 517 489 514 z "},"D":{"ha":611,"x_min":29,"x_max":582,"o":"m 374 -110 q 356 -121 363 -108 l 356 -157 q 352 -165 353 -161 q 349 -175 351 -169 l 349 -222 q 345 -229 346 -225 q 342 -239 344 -233 q 340 -260 340 -250 q 340 -282 340 -271 q 336 -286 340 -286 q 332 -285 333 -286 q 325 -274 326 -281 q 319 -264 324 -268 l 319 -240 l 319 -219 q 313 -201 314 -208 l 313 -160 q 315 -153 314 -157 q 318 -143 315 -149 l 318 -81 l 318 -76 q 315 -71 317 -74 q 313 -65 314 -68 q 312 -50 313 -58 q 311 -32 311 -42 q 306 -27 308 -29 q 301 -22 304 -25 q 267 -21 285 -18 q 259 -30 261 -25 q 254 -42 257 -35 l 254 -92 q 259 -105 256 -99 q 260 -119 263 -111 q 257 -125 260 -122 q 254 -126 257 -126 q 249 -125 249 -129 q 242 -102 246 -112 q 236 -81 239 -92 q 226 -68 231 -74 q 214 -60 221 -62 q 206 -62 210 -60 q 197 -67 201 -64 q 196 -72 197 -69 q 194 -76 194 -74 l 194 -157 q 199 -165 197 -161 q 203 -176 200 -169 q 201 -197 201 -186 q 201 -218 201 -207 l 199 -221 q 188 -210 192 -221 l 188 -128 l 188 -49 q 183 -33 186 -39 q 181 -19 179 -26 q 177 -6 181 -12 q 169 7 174 0 q 155 10 158 10 q 140 7 151 10 q 136 -3 138 1 q 135 -14 136 -10 q 129 -28 132 -22 l 129 -100 q 133 -106 132 -103 q 136 -115 133 -110 l 136 -179 q 143 -194 139 -186 q 151 -211 147 -201 l 151 -281 q 154 -288 153 -285 q 157 -297 156 -292 l 157 -333 q 151 -358 151 -344 q 157 -385 150 -371 q 157 -446 160 -414 q 153 -450 154 -449 q 150 -454 153 -451 q 140 -456 146 -458 q 136 -442 136 -451 l 136 -431 q 133 -422 133 -426 q 129 -411 132 -418 l 129 -276 q 124 -265 126 -269 q 117 -257 122 -260 q 100 -275 106 -264 q 93 -293 94 -283 q 86 -311 92 -303 l 86 -347 q 88 -353 88 -350 q 92 -362 89 -357 q 92 -373 92 -368 q 93 -383 93 -378 q 92 -467 92 -425 q 92 -551 92 -510 q 88 -556 92 -556 q 86 -553 86 -554 q 85 -545 86 -549 q 85 -537 85 -542 l 85 -487 l 85 -460 q 82 -453 83 -457 q 78 -442 81 -449 l 78 -387 q 74 -378 75 -382 q 71 -369 74 -374 l 71 -315 q 76 -301 72 -308 q 78 -286 79 -294 q 85 -262 78 -271 q 85 -211 86 -236 q 85 -161 85 -186 q 82 -151 83 -156 q 78 -142 81 -147 l 78 -72 q 74 -63 75 -67 q 71 -56 74 -60 l 71 -17 q 61 13 67 -3 q 56 16 58 14 q 51 21 54 18 q 49 38 49 29 q 47 54 50 46 q 42 68 44 63 l 42 103 q 45 111 44 107 q 49 121 46 115 l 49 183 q 46 190 47 186 q 42 200 44 194 l 42 254 q 39 263 40 258 q 35 272 38 267 l 35 300 l 35 581 q 34 601 33 592 q 29 619 35 610 q 48 623 39 624 q 71 626 57 622 q 71 626 68 625 q 78 629 74 628 l 128 629 q 136 626 132 628 q 146 624 140 625 l 274 624 l 286 628 q 307 628 297 632 q 319 624 314 625 q 332 622 325 622 q 350 618 342 622 q 364 615 357 615 q 378 613 371 615 q 397 605 388 608 q 414 597 406 601 q 440 586 429 594 q 461 571 450 578 q 478 560 469 565 q 493 547 486 554 q 502 538 497 542 q 511 529 507 533 q 517 520 514 525 q 522 510 519 515 q 540 485 532 497 q 554 457 549 472 q 563 438 558 447 q 567 417 567 428 q 567 413 568 414 q 568 410 567 411 q 574 390 575 400 q 575 368 574 379 q 578 361 576 365 q 581 353 579 357 q 582 331 582 342 q 575 310 582 321 l 575 285 q 575 263 574 275 q 572 253 575 257 q 568 243 568 249 q 560 213 567 226 q 551 183 554 199 q 542 164 550 175 q 533 152 536 158 q 525 140 531 146 q 518 129 521 135 q 511 118 515 124 q 500 106 506 111 q 489 94 494 101 q 483 90 486 92 q 478 85 479 88 q 467 63 471 72 q 469 53 465 57 q 475 47 472 50 q 488 40 479 46 q 493 28 496 35 q 492 23 493 25 q 490 19 490 21 q 481 19 485 18 q 475 22 478 21 q 453 14 461 26 l 451 13 l 451 10 l 451 -26 q 453 -33 453 -29 q 457 -43 454 -37 l 457 -76 q 460 -83 460 -79 q 464 -93 461 -87 q 465 -120 464 -106 q 464 -151 465 -135 q 460 -161 464 -156 q 457 -175 457 -167 q 447 -185 454 -182 q 438 -175 439 -183 q 433 -162 435 -168 q 428 -147 431 -157 q 428 -89 428 -119 q 428 -28 429 -58 q 426 -6 428 -12 q 422 1 426 -3 l 397 1 q 388 -7 393 -1 q 385 -13 386 -10 q 384 -23 385 -17 q 384 -40 383 -29 q 385 -71 385 -51 q 390 -84 388 -78 q 392 -97 393 -90 q 393 -110 390 -104 q 399 -124 396 -117 l 399 -185 q 403 -193 401 -189 q 407 -203 404 -197 l 407 -250 q 410 -261 410 -257 q 414 -271 411 -265 q 415 -317 414 -294 q 413 -365 415 -340 q 403 -369 407 -368 q 398 -365 400 -367 q 394 -360 396 -362 q 393 -357 393 -358 l 393 -356 q 392 -353 393 -354 q 392 -351 392 -353 l 392 -344 l 392 -156 q 386 -140 389 -147 q 383 -122 383 -132 q 374 -110 383 -115 m 165 381 l 165 201 q 162 191 163 196 q 158 182 161 186 q 158 153 158 167 q 160 125 157 139 q 167 115 161 121 q 181 110 174 113 q 196 106 189 108 l 224 106 q 233 108 229 107 q 240 111 236 110 l 297 111 q 307 119 303 115 q 315 125 311 122 q 335 135 329 131 q 357 149 346 142 q 378 167 368 156 q 403 192 390 181 q 417 226 413 208 q 428 258 421 243 l 428 344 q 422 361 425 350 q 421 380 421 371 q 421 397 421 389 q 406 422 414 411 q 392 444 399 433 q 381 447 386 446 q 371 450 376 449 q 353 467 358 463 q 344 469 349 469 q 338 471 340 469 q 328 477 333 474 q 319 483 324 481 q 310 483 315 483 q 301 485 306 483 q 290 488 296 486 q 278 492 285 489 l 232 492 q 220 497 225 494 q 208 499 215 499 l 190 499 q 174 485 179 497 q 173 440 172 463 q 172 396 174 418 q 169 388 169 392 q 165 381 168 385 m 344 -536 q 333 -524 336 -532 q 326 -510 331 -517 q 326 -459 326 -485 q 325 -411 325 -433 q 326 -372 325 -389 q 328 -347 326 -354 q 331 -346 328 -346 q 333 -356 333 -350 q 333 -367 332 -361 q 336 -375 335 -371 q 340 -386 338 -379 q 340 -401 340 -393 q 342 -419 340 -410 q 347 -433 343 -426 q 349 -447 350 -440 q 349 -460 347 -454 q 354 -472 351 -465 q 354 -525 357 -497 q 350 -532 351 -531 q 347 -534 349 -533 q 344 -536 346 -535 m 267 -257 l 257 -267 q 249 -265 254 -265 q 247 -255 247 -260 q 245 -243 246 -250 q 245 -224 244 -236 q 246 -189 246 -211 q 256 -162 251 -179 q 258 -164 258 -164 q 260 -178 261 -171 q 261 -194 260 -186 q 264 -201 263 -197 q 268 -211 265 -206 q 268 -234 268 -222 q 267 -257 268 -246 m 82 -629 q 79 -626 79 -626 q 77 -601 76 -614 q 79 -574 78 -587 q 89 -569 81 -569 q 92 -579 92 -575 q 92 -594 93 -586 q 92 -610 92 -603 q 82 -629 90 -621 z "},"E":{"ha":572,"x_min":35,"x_max":539,"o":"m 311 381 q 336 374 325 374 l 417 374 q 435 372 428 374 q 437 371 436 372 q 440 368 438 369 q 442 316 442 349 q 440 263 442 283 q 437 260 438 261 q 435 258 436 258 q 423 258 428 258 q 413 257 418 257 l 226 257 q 215 257 221 257 q 204 254 210 257 q 201 244 201 249 q 200 219 200 232 q 200 196 200 207 q 196 184 197 189 q 193 174 194 179 q 207 149 190 156 q 253 148 231 147 q 301 147 276 149 q 308 144 304 146 q 318 140 313 143 l 350 140 q 357 138 353 139 q 364 136 361 138 q 371 134 367 135 q 378 132 375 133 l 390 115 q 400 112 396 113 q 408 111 404 111 q 422 109 415 111 q 435 104 428 107 l 479 104 q 494 100 489 103 q 504 97 499 97 q 514 97 510 97 q 524 96 518 96 q 528 92 526 93 q 533 89 531 90 q 535 21 539 76 q 528 13 532 17 q 522 3 525 8 l 522 -18 q 522 -24 521 -21 q 521 -29 522 -26 q 515 -47 514 -37 q 514 -65 515 -56 q 511 -68 511 -65 q 508 -60 507 -64 q 507 -51 508 -56 q 506 -49 506 -50 q 506 -47 507 -49 q 497 -28 501 -37 q 488 -12 493 -19 q 475 -7 482 -4 q 461 -15 469 -10 q 456 -22 458 -17 q 447 -40 449 -31 q 443 -57 446 -49 q 436 -74 440 -65 q 433 -92 432 -82 q 429 -96 433 -96 q 427 -84 426 -90 q 426 -71 428 -78 q 422 -60 424 -65 q 419 -47 419 -54 q 416 -35 418 -40 q 413 -22 414 -29 q 407 -11 410 -15 q 403 -1 404 -7 q 379 0 390 4 q 361 -19 371 -6 l 361 -61 q 358 -71 358 -67 q 354 -79 357 -75 l 354 -187 q 358 -195 357 -192 q 361 -203 358 -199 l 361 -244 q 350 -265 356 -260 q 344 -261 346 -264 q 340 -256 343 -258 q 346 -218 336 -233 l 346 -146 q 343 -139 344 -143 q 339 -129 342 -135 l 339 -69 q 335 -56 338 -61 q 332 -44 332 -50 l 332 -26 q 322 -6 326 -15 q 306 7 317 3 q 296 6 300 8 q 288 1 292 3 l 232 1 q 224 -4 225 -1 q 221 -10 222 -7 l 213 -31 q 206 -23 207 -28 q 200 -15 204 -18 q 191 -8 194 -12 q 185 -1 188 -4 q 151 2 165 1 q 111 0 136 3 q 99 -17 99 -4 q 96 -31 99 -22 q 93 -35 94 -33 q 90 -39 92 -36 q 78 -37 83 -37 q 65 -40 72 -36 q 63 -40 64 -42 q 58 -39 61 -39 q 55 -29 54 -35 q 53 -18 56 -24 q 46 -3 51 -10 q 40 5 43 1 q 35 11 38 8 q 47 47 40 31 q 56 83 53 64 q 62 97 58 90 q 68 110 65 103 q 66 117 67 113 q 63 126 65 122 q 65 133 64 129 q 68 140 67 136 l 68 219 q 66 226 67 222 q 64 233 65 231 q 65 243 63 239 q 68 254 68 247 l 68 504 q 66 511 67 507 q 63 519 65 515 q 61 581 61 554 q 64 625 61 607 q 69 628 67 626 q 74 629 71 629 l 94 629 l 460 629 q 473 629 467 629 q 486 628 479 629 q 490 624 486 628 q 492 595 492 613 q 492 559 492 578 q 492 523 492 540 q 490 496 492 506 q 485 492 488 493 l 460 492 q 350 490 404 490 q 240 490 296 490 q 230 491 235 490 q 221 489 225 492 q 215 475 215 485 q 208 446 215 463 l 208 392 q 210 387 208 389 q 213 382 211 385 q 263 381 238 379 q 311 381 288 383 m 88 -265 q 84 -248 85 -254 q 85 -219 83 -242 q 88 -214 85 -217 q 91 -230 90 -225 q 90 -258 92 -235 q 89 -262 90 -261 q 88 -265 88 -262 m 522 -278 q 522 -290 521 -285 q 519 -300 522 -294 l 517 -300 q 515 -297 515 -299 l 515 -262 q 519 -258 515 -258 q 521 -261 521 -261 q 522 -270 521 -265 q 522 -278 522 -275 m 67 -424 q 64 -424 64 -424 q 63 -415 60 -419 q 64 -412 64 -412 q 68 -415 68 -408 q 67 -424 68 -421 m 440 -197 q 438 -199 438 -200 q 436 -193 433 -199 l 438 -192 q 440 -197 440 -193 m 521 -343 l 518 -346 q 515 -340 515 -344 l 518 -337 q 521 -343 521 -339 z "},"F":{"ha":479,"x_min":25,"x_max":454,"o":"m 104 -140 q 108 -133 107 -136 q 111 -124 108 -129 l 111 -82 q 106 -69 108 -75 q 104 -57 103 -64 q 99 -33 104 -43 q 103 -12 93 -25 q 106 -8 104 -10 q 108 -4 107 -7 l 106 -1 q 81 0 93 0 q 58 1 69 0 q 56 5 57 4 q 54 7 54 6 q 53 25 53 14 l 53 135 q 47 152 50 144 q 44 169 43 160 q 39 178 42 174 q 33 185 36 182 q 31 194 31 189 q 31 203 32 199 q 28 211 29 207 q 25 221 26 215 q 30 226 28 224 q 35 231 32 228 q 38 236 38 233 q 38 242 39 239 q 39 247 38 244 q 42 256 40 251 q 44 264 44 260 q 46 277 46 271 q 46 290 46 283 l 46 443 q 42 451 43 447 q 39 463 40 456 l 39 592 q 44 604 39 601 q 73 606 58 607 q 103 607 88 604 q 111 610 107 608 q 119 613 115 611 l 183 613 q 190 610 186 611 q 199 607 194 610 l 315 607 q 329 613 324 610 q 347 613 338 613 q 365 614 356 614 q 374 617 369 615 q 382 619 378 618 q 413 620 397 619 q 443 619 428 621 q 448 618 446 619 q 453 615 450 617 q 453 587 453 604 q 454 551 454 569 q 453 515 454 532 q 453 488 453 497 q 447 483 449 483 q 436 482 442 482 q 425 482 431 482 l 225 482 q 210 482 218 482 q 196 481 203 482 q 190 476 193 478 q 185 471 188 474 q 185 388 182 426 q 199 374 189 378 q 231 372 214 371 q 267 372 249 372 l 336 372 q 370 373 353 372 q 404 371 388 374 q 408 368 407 369 q 410 365 408 367 l 410 358 l 410 256 q 406 243 410 246 q 393 243 399 240 q 381 249 388 246 q 290 249 336 247 q 199 247 244 250 q 194 244 200 247 q 188 229 193 240 q 181 246 182 240 q 171 239 171 244 q 170 231 169 235 q 171 225 171 228 q 178 219 174 219 q 188 217 183 219 q 197 206 190 213 q 207 203 201 203 q 218 201 213 204 q 213 197 215 199 q 208 193 211 196 q 208 190 208 190 q 207 186 207 189 q 211 158 204 168 q 211 143 214 154 q 193 129 201 136 q 178 111 185 122 q 177 80 178 100 q 176 38 176 60 q 177 -6 176 15 q 178 -37 178 -26 q 188 -49 181 -44 q 196 -54 190 -51 q 191 -58 193 -57 q 186 -62 189 -60 q 185 -67 186 -65 q 185 -72 185 -69 l 185 -182 q 188 -207 183 -193 q 183 -211 188 -211 q 165 -201 172 -212 q 163 -194 163 -196 l 163 -117 q 165 -110 164 -114 q 168 -103 167 -107 q 170 -85 171 -94 q 169 -65 169 -75 q 166 -58 167 -61 q 163 -51 165 -54 l 163 -40 q 163 -22 163 -31 q 161 -4 163 -12 q 160 1 161 -1 q 158 6 158 3 q 144 6 147 7 q 135 -4 142 4 q 133 -24 132 -14 q 132 -44 135 -33 q 130 -50 131 -47 q 126 -58 129 -53 q 126 -73 126 -65 q 125 -87 125 -81 q 119 -103 121 -94 q 119 -108 119 -106 q 118 -114 118 -111 l 118 -329 q 118 -337 118 -333 q 115 -346 118 -342 q 110 -349 114 -349 q 107 -346 107 -346 q 106 -343 106 -346 q 104 -329 104 -339 l 104 -140 m 107 -433 q 110 -449 110 -443 q 111 -481 111 -454 q 106 -496 108 -487 q 100 -511 103 -504 q 94 -514 97 -514 q 90 -510 90 -517 q 90 -500 88 -506 q 95 -481 93 -490 q 100 -461 97 -471 q 103 -448 104 -456 q 107 -433 103 -440 m 110 -374 q 117 -378 115 -376 q 119 -391 118 -385 q 117 -404 119 -397 q 110 -407 115 -407 q 108 -406 108 -407 q 107 -406 108 -406 q 106 -403 106 -403 q 106 -381 101 -390 q 110 -374 106 -378 m 64 -26 q 67 -37 67 -35 q 64 -47 67 -40 q 60 -36 60 -39 q 64 -26 60 -33 z "},"G":{"ha":601,"x_min":33,"x_max":568,"o":"m 261 -490 q 265 -499 264 -496 q 268 -507 265 -503 q 268 -528 268 -518 q 267 -550 268 -539 q 263 -555 267 -553 q 256 -554 258 -557 q 254 -553 254 -554 q 253 -553 254 -553 q 251 -550 251 -551 q 247 -546 250 -549 q 246 -512 244 -529 q 244 -476 247 -496 q 242 -471 243 -474 q 239 -462 242 -468 q 238 -428 238 -446 q 239 -392 239 -410 l 239 -319 q 242 -310 242 -314 q 246 -300 243 -306 l 246 -268 q 249 -260 247 -264 q 253 -250 250 -256 l 253 -208 q 256 -201 256 -204 q 260 -194 257 -197 q 260 -163 260 -182 q 261 -125 261 -144 q 260 -87 261 -106 q 260 -60 260 -69 q 236 -56 251 -50 q 224 -82 225 -68 q 217 -104 224 -94 q 217 -183 215 -144 q 215 -260 218 -221 q 213 -261 214 -261 q 208 -254 210 -258 q 204 -246 207 -250 q 203 -243 203 -244 l 203 -239 l 203 -99 q 206 -92 204 -96 q 208 -83 207 -87 q 210 -65 210 -75 q 215 -49 210 -56 l 215 -31 q 208 -25 213 -25 q 200 -22 203 -25 q 197 -19 197 -19 q 196 -17 196 -18 q 194 -11 194 -14 q 193 -6 194 -8 q 178 29 183 11 q 160 64 172 47 q 136 82 147 71 q 114 104 125 93 q 110 110 111 107 q 101 124 107 118 q 89 138 94 131 q 53 222 64 182 q 35 265 46 246 q 34 313 33 289 q 35 361 35 338 q 40 376 38 369 q 42 391 42 383 q 42 407 42 399 q 47 422 46 414 q 50 438 49 429 q 59 456 54 447 q 68 474 64 464 q 74 487 71 481 q 79 500 78 493 q 82 507 79 504 q 94 525 89 515 q 107 542 99 535 q 125 558 117 550 q 142 575 133 567 q 150 585 146 581 q 160 593 154 590 q 178 605 169 599 q 197 615 186 611 q 215 624 207 619 q 233 633 224 629 q 253 640 243 639 q 265 646 260 643 q 278 647 271 649 q 285 649 283 647 q 300 654 292 654 q 317 654 308 654 q 322 655 319 654 q 326 656 324 656 q 334 658 331 657 q 342 661 338 660 l 449 661 q 456 659 451 660 q 465 656 460 658 q 473 655 468 656 q 482 654 478 654 q 491 654 486 654 q 500 651 496 654 q 517 647 508 647 q 531 643 524 647 q 540 641 535 642 q 549 638 544 640 q 564 631 557 636 q 566 626 565 628 q 567 622 567 625 l 567 575 q 564 569 565 572 q 561 560 563 565 q 560 531 560 546 q 560 501 560 517 q 546 494 553 493 q 535 498 540 497 q 525 501 531 499 q 488 508 506 510 q 480 512 483 511 q 474 515 476 513 q 451 517 463 518 q 431 522 440 515 q 398 523 414 524 q 367 524 382 522 q 355 519 360 521 q 344 517 350 517 q 316 512 329 517 q 289 501 303 507 q 279 496 283 499 q 268 490 275 493 l 231 453 q 219 438 224 446 q 208 424 215 431 q 199 408 201 417 q 193 390 196 400 q 188 376 190 383 q 188 363 186 369 q 181 342 188 353 l 181 297 q 183 291 182 294 q 186 283 185 288 q 188 269 188 276 q 188 256 188 263 q 199 224 193 240 q 215 193 204 208 l 254 154 q 271 146 263 150 q 286 138 279 142 l 290 138 q 319 150 303 143 l 346 150 q 353 149 350 150 q 364 143 358 146 q 375 136 369 140 q 387 128 381 131 q 400 122 393 125 q 417 123 410 121 q 428 136 424 125 l 428 165 q 419 185 425 171 q 410 195 415 190 q 401 204 406 200 q 401 221 400 214 q 410 236 404 229 q 419 251 415 243 q 417 257 422 257 q 407 260 411 260 l 349 260 q 341 260 344 260 q 333 261 338 261 q 331 263 332 263 q 328 267 329 264 q 328 335 325 300 q 333 339 332 339 q 344 340 338 340 l 376 340 q 384 344 381 343 q 393 347 388 344 l 535 347 q 544 351 540 350 q 554 354 549 353 q 565 349 558 356 q 567 300 567 339 q 568 213 568 261 q 567 119 568 165 q 567 50 567 74 q 565 39 567 43 q 541 28 554 32 q 515 19 528 25 l 507 19 q 483 14 494 19 q 473 11 478 11 q 463 10 468 11 q 444 -8 450 4 q 444 -14 444 -11 q 443 -19 443 -17 l 443 -43 q 454 -68 447 -57 q 465 -92 461 -79 q 464 -97 464 -94 q 463 -101 464 -99 q 460 -107 461 -104 q 458 -114 460 -110 l 458 -228 q 458 -237 457 -233 q 456 -246 458 -242 q 449 -249 453 -251 q 446 -247 447 -247 q 444 -244 444 -244 q 444 -237 444 -240 q 443 -229 443 -233 l 443 -153 q 442 -133 443 -139 q 432 -121 438 -122 q 407 -99 415 -114 l 407 -89 q 419 -72 414 -81 q 428 -53 425 -64 l 428 -17 q 424 -8 425 -12 q 419 0 422 -3 q 397 3 408 7 q 394 1 396 1 q 392 -3 393 0 q 387 -12 389 -8 q 385 -22 385 -17 q 372 -37 383 -31 q 342 -39 357 -40 q 311 -40 326 -37 q 303 -50 304 -44 q 297 -58 301 -56 l 297 -90 q 294 -97 294 -93 q 290 -104 293 -100 q 290 -118 290 -111 q 289 -132 290 -125 q 288 -139 289 -136 q 282 -156 282 -150 q 278 -181 283 -168 q 275 -194 275 -185 q 271 -217 275 -207 q 268 -231 268 -225 q 263 -254 268 -244 q 261 -261 261 -257 q 260 -269 261 -265 q 258 -278 258 -274 q 254 -289 257 -282 l 254 -337 q 260 -353 257 -346 q 260 -387 261 -369 q 261 -424 260 -404 l 261 -490 z "},"H":{"ha":600,"x_min":28,"x_max":571,"o":"m 81 -203 q 77 -195 78 -199 q 74 -186 76 -192 l 74 -124 q 70 -116 71 -119 q 67 -108 69 -112 q 66 -80 65 -94 q 67 -50 67 -65 q 72 -34 69 -43 q 72 -15 75 -25 q 71 -10 72 -12 q 68 -6 69 -8 q 51 -5 60 -6 q 36 -4 43 -4 q 30 14 28 6 q 36 32 32 22 q 37 81 38 56 q 38 132 36 107 l 38 235 l 38 336 q 40 344 39 340 q 44 356 42 349 l 44 390 l 44 594 q 46 615 44 608 q 50 621 46 617 q 76 622 60 622 q 110 622 92 622 q 144 622 128 622 q 169 621 160 622 q 174 615 174 617 q 175 608 175 614 l 175 544 q 172 537 174 540 q 168 528 171 533 l 168 408 q 164 396 165 401 q 161 385 163 390 q 175 361 158 367 l 211 361 q 219 364 215 363 q 228 367 224 365 l 321 367 q 328 365 324 365 q 338 361 332 364 q 435 361 383 358 q 440 366 438 364 q 443 371 442 368 q 443 381 446 376 q 439 392 440 385 l 439 542 q 435 549 436 546 q 432 557 435 553 q 432 617 429 586 q 439 622 436 621 l 446 622 q 540 622 493 624 q 550 621 547 622 q 553 617 551 618 q 554 614 554 617 q 556 601 556 607 q 556 589 556 596 l 556 479 q 558 471 557 475 q 563 460 560 467 l 563 201 q 566 193 565 197 q 569 186 567 189 q 570 163 571 175 q 563 142 569 151 q 563 78 561 110 q 561 17 564 47 q 558 14 561 14 q 549 10 554 10 q 539 10 544 11 q 527 7 532 8 q 515 3 522 6 q 474 2 496 3 q 431 3 453 1 q 428 6 429 6 q 425 10 426 7 q 424 24 424 17 q 424 39 424 31 q 421 45 422 42 q 418 53 419 49 q 417 63 417 56 l 417 215 q 417 230 417 222 q 415 244 417 238 q 413 247 414 246 q 410 250 411 247 q 385 249 396 253 q 381 243 383 246 q 381 219 381 231 q 379 197 381 208 q 385 180 382 188 q 388 164 389 172 q 389 152 386 157 q 394 140 392 147 l 394 79 q 398 68 397 72 q 401 58 399 64 l 401 11 q 406 2 404 6 q 408 -4 407 -1 l 408 -8 l 408 -99 q 397 -107 408 -107 q 388 -100 390 -104 q 387 -48 386 -74 q 388 6 388 -22 l 388 110 q 382 126 383 118 q 379 142 381 135 q 363 154 376 156 q 351 138 351 150 q 351 121 351 129 q 350 106 350 113 q 347 98 349 101 q 343 89 346 94 l 343 42 q 338 24 340 35 q 336 1 336 13 q 335 -21 336 -10 q 329 -25 335 -22 l 328 -25 q 325 -24 326 -25 q 319 -10 322 -17 q 314 4 317 -4 l 314 44 q 307 61 313 50 l 307 104 q 310 111 310 107 q 314 121 311 115 l 314 178 q 308 192 311 183 q 307 212 307 203 q 306 231 307 221 q 301 238 303 236 q 299 240 300 239 q 294 243 297 240 l 269 243 q 251 226 258 238 q 249 219 249 221 l 249 172 q 254 158 251 165 q 256 144 257 151 q 253 139 254 140 q 246 136 253 138 q 242 146 242 140 q 240 158 242 151 l 224 192 q 196 197 213 204 q 192 192 192 193 q 190 181 190 189 l 190 107 q 193 100 192 104 q 197 89 194 96 l 197 54 q 196 44 197 47 q 190 35 193 39 q 183 26 186 31 q 183 13 183 19 q 182 1 182 7 q 175 -4 178 -3 q 165 -5 169 -4 q 154 -6 160 -6 q 149 -10 151 -7 q 149 -23 146 -17 q 153 -36 151 -29 l 153 -69 q 151 -76 151 -72 q 147 -85 150 -81 q 146 -106 146 -96 q 153 -128 146 -117 q 153 -154 154 -140 q 154 -181 153 -168 q 145 -190 147 -189 q 136 -193 143 -192 q 131 -175 131 -185 q 125 -158 132 -165 l 125 -60 q 125 -40 125 -50 q 124 -19 125 -31 q 122 -10 124 -12 q 101 -6 114 -3 q 99 -8 100 -8 q 96 -11 97 -8 q 91 -20 93 -15 q 88 -31 89 -25 q 85 -39 86 -35 q 81 -50 83 -43 l 81 -85 q 86 -99 83 -90 q 88 -140 88 -110 q 89 -208 89 -171 q 88 -283 89 -244 q 88 -346 88 -321 q 83 -360 85 -353 q 78 -374 81 -367 q 74 -369 75 -371 q 73 -361 74 -367 q 73 -344 72 -356 q 74 -312 74 -333 q 76 -306 75 -310 q 81 -296 78 -301 l 81 -203 m 336 -157 q 343 -172 340 -169 q 343 -186 343 -179 q 344 -200 343 -193 q 347 -208 346 -204 q 350 -217 349 -212 l 350 -260 q 344 -269 350 -264 q 335 -269 342 -276 l 322 -249 l 322 -222 l 322 -85 q 324 -83 324 -85 q 325 -82 324 -82 q 328 -86 328 -82 q 329 -101 329 -93 q 329 -115 329 -108 q 333 -122 332 -118 q 336 -131 333 -126 l 336 -157 m 263 10 q 253 -3 260 1 q 247 -3 250 -4 q 243 1 243 -1 q 242 4 243 3 q 242 8 242 6 l 242 76 l 250 93 l 253 93 q 256 86 256 90 q 256 79 256 82 q 256 74 256 76 q 257 68 257 71 q 259 61 258 65 q 263 54 260 57 l 263 47 q 263 28 263 38 q 263 10 264 18 z "},"I":{"ha":285,"x_min":28,"x_max":257,"o":"m 39 560 q 28 569 32 567 l 28 576 q 33 581 31 579 q 39 586 36 583 q 40 599 39 593 q 40 611 40 604 q 46 616 43 614 q 51 621 49 618 q 54 628 53 625 q 57 636 56 632 l 68 625 q 100 624 83 624 q 132 624 117 625 l 197 624 q 228 613 213 618 q 257 597 244 608 q 254 587 256 592 q 251 576 253 582 q 251 565 250 571 q 247 550 251 558 q 242 545 246 547 q 232 540 238 543 q 228 533 229 538 q 224 526 226 529 q 223 522 224 524 q 222 518 222 521 l 222 456 q 219 446 222 451 q 217 444 219 444 q 210 446 213 443 q 208 458 207 453 q 207 471 208 464 q 204 482 207 474 q 201 483 203 483 q 196 481 199 485 q 193 471 193 475 l 193 407 q 190 400 192 404 q 186 390 189 396 l 186 263 q 182 251 183 256 q 178 243 181 247 l 178 35 q 175 28 176 32 q 172 18 174 24 q 170 1 169 10 q 164 -17 171 -8 q 163 -60 163 -39 q 164 -104 164 -82 l 164 -187 q 169 -203 165 -197 q 171 -215 172 -208 q 174 -228 171 -222 q 178 -240 176 -233 q 180 -253 179 -247 q 182 -264 181 -258 q 167 -271 178 -275 q 163 -260 164 -265 q 158 -247 161 -254 q 157 -237 157 -242 q 156 -226 157 -232 q 153 -218 154 -222 q 150 -207 153 -214 q 149 -197 150 -203 q 149 -183 149 -190 l 149 -35 l 149 -10 q 144 -7 146 -8 q 142 -6 143 -6 q 131 -4 138 -4 l 97 -4 q 79 2 86 -1 q 65 6 72 6 q 60 22 61 14 q 57 36 60 29 q 58 71 49 51 q 60 74 60 74 q 61 78 60 75 l 61 121 q 58 128 58 125 q 54 136 57 132 l 54 178 q 51 185 51 182 q 47 194 50 189 l 47 432 q 44 441 44 436 q 40 451 43 446 l 40 489 q 33 508 35 503 q 34 519 32 515 q 39 529 36 524 l 39 560 m 208 299 l 208 315 q 210 319 208 318 q 211 321 211 319 l 214 318 l 214 275 q 211 271 214 274 q 208 274 208 274 q 208 286 208 281 q 207 299 207 292 l 208 299 z "},"J":{"ha":372,"x_min":26,"x_max":346,"o":"m 147 -71 q 141 -58 144 -64 q 135 -44 138 -51 q 124 -17 133 -33 q 109 -13 117 -14 q 93 -10 101 -12 q 90 -11 92 -11 q 88 -12 89 -11 q 76 -27 81 -19 q 68 -44 72 -35 q 65 -54 68 -49 q 58 -54 58 -54 q 54 -49 57 -54 q 54 -35 54 -42 q 53 -22 54 -29 q 49 -9 50 -15 q 44 4 47 -3 q 33 14 40 7 q 31 42 29 28 q 26 69 33 57 q 29 76 29 74 q 32 83 29 79 l 32 122 q 31 140 32 131 q 33 158 31 149 q 39 157 36 157 q 44 156 42 157 q 58 150 51 153 q 71 144 64 147 q 83 141 78 142 q 96 139 89 140 q 106 135 101 138 q 117 133 111 133 q 138 128 131 131 q 147 125 142 125 q 154 125 151 125 q 166 130 161 128 q 175 135 171 132 q 188 146 182 140 q 199 160 193 151 q 200 184 201 171 q 200 213 199 197 q 203 219 201 215 q 207 228 204 222 l 207 467 q 210 474 210 471 q 214 482 211 478 q 215 532 215 507 q 214 583 214 557 q 219 597 217 590 q 224 610 221 603 q 227 613 226 611 q 231 614 228 614 l 300 614 l 317 614 q 322 607 322 608 q 324 597 324 604 q 331 576 329 583 q 331 560 332 568 q 331 543 331 551 l 331 515 q 335 506 333 510 q 338 497 336 501 q 338 492 338 494 q 339 486 339 489 l 339 435 q 335 426 336 431 q 332 417 335 422 q 335 410 333 414 q 339 401 336 407 q 338 310 339 357 q 339 215 338 263 q 346 197 340 208 l 346 157 q 341 142 343 150 q 338 126 339 135 q 333 113 336 119 q 328 99 331 106 q 322 84 325 92 q 314 68 318 76 q 301 55 307 61 q 289 42 296 49 q 281 7 286 24 q 267 -28 275 -10 q 265 -42 265 -35 q 265 -56 265 -49 q 262 -64 263 -60 q 258 -74 261 -68 l 258 -114 q 255 -121 256 -117 q 251 -131 254 -125 l 251 -210 q 256 -226 256 -222 q 257 -242 257 -231 q 247 -251 254 -250 q 236 -240 240 -250 q 235 -187 235 -214 q 236 -132 236 -160 l 236 -28 q 231 -18 233 -22 q 226 -10 229 -14 q 217 -7 221 -7 q 204 -6 210 -6 q 193 -7 199 -7 q 174 -22 183 -10 q 169 -33 171 -28 q 165 -44 168 -39 q 163 -58 163 -51 q 160 -72 163 -65 q 156 -85 157 -79 q 153 -97 156 -90 q 149 -90 150 -93 q 147 -71 149 -86 m 56 -340 q 53 -299 54 -325 q 53 -245 53 -272 q 53 -196 53 -218 q 56 -165 54 -174 l 57 -164 q 60 -167 60 -164 q 60 -200 60 -175 q 61 -253 61 -225 q 60 -305 61 -281 q 60 -336 60 -329 l 56 -340 z "},"K":{"ha":629,"x_min":28,"x_max":601,"o":"m 188 404 q 199 393 192 394 q 208 401 206 394 q 217 415 210 407 l 267 465 q 281 479 274 472 q 293 496 288 486 q 298 503 294 500 q 304 510 301 507 q 313 519 308 515 q 319 531 317 524 q 322 533 321 532 q 324 536 322 535 q 356 575 342 553 q 376 600 368 586 q 396 628 385 614 q 409 633 403 631 q 422 638 415 635 q 508 638 461 639 q 576 636 554 638 l 581 628 q 567 613 575 619 q 557 596 560 606 q 553 590 556 593 q 547 585 550 588 q 531 568 539 576 q 514 553 522 560 q 506 537 510 544 q 497 521 501 529 q 487 510 492 515 q 476 499 482 504 q 463 479 471 488 q 446 463 454 471 q 439 454 440 457 q 425 435 433 443 q 408 418 417 426 q 397 405 403 411 q 389 392 392 399 q 379 381 388 389 q 369 370 374 375 q 360 360 364 365 q 358 343 353 350 q 374 338 365 336 q 389 335 382 340 q 383 322 386 328 q 378 308 381 315 l 378 288 q 394 274 382 274 q 403 280 399 276 q 413 286 407 283 q 418 282 417 288 q 403 264 411 275 q 400 242 397 254 q 402 239 401 240 q 404 236 403 238 q 419 220 411 228 q 432 201 426 213 q 437 195 433 199 q 443 189 440 192 q 451 179 447 183 q 458 168 456 175 q 469 154 461 163 q 483 141 476 147 q 496 128 489 135 q 519 99 504 111 q 546 71 533 86 q 554 63 550 67 q 561 51 558 58 q 565 46 563 49 q 569 40 567 43 q 582 28 576 33 q 593 15 588 22 q 601 -1 597 8 q 592 -4 593 -4 l 496 -4 q 488 -1 492 -3 q 479 1 483 0 q 447 3 463 3 q 414 3 431 3 q 412 3 413 3 q 410 4 411 4 q 407 6 408 6 q 404 8 406 7 q 381 40 393 26 q 368 51 374 46 q 357 63 363 57 q 347 74 351 68 q 339 86 342 79 q 329 97 338 92 q 323 106 326 101 q 317 115 319 110 q 307 125 315 119 q 297 135 299 131 q 283 152 290 144 q 267 167 275 160 q 250 168 263 171 q 247 163 249 165 q 246 158 246 161 l 246 107 q 242 99 243 103 q 239 89 242 94 l 239 -18 q 242 -25 240 -21 q 246 -35 243 -29 l 246 -54 q 249 -68 246 -60 q 253 -85 253 -76 q 253 -100 253 -93 q 245 -110 247 -108 q 236 -112 243 -111 q 229 -103 232 -108 q 224 -92 226 -99 l 224 -29 l 224 22 q 223 37 224 29 q 218 51 222 44 q 217 61 217 54 q 213 78 217 71 q 204 92 208 85 q 201 94 203 93 q 199 96 200 94 q 192 96 196 97 q 189 92 189 94 q 188 81 189 86 q 188 69 188 76 l 188 15 q 182 13 185 14 q 176 11 179 11 q 160 10 168 10 q 144 8 153 10 q 141 7 142 8 q 138 4 140 6 q 143 -19 140 -6 q 144 -31 144 -25 q 143 -40 143 -36 q 147 -48 146 -44 q 151 -57 149 -51 l 151 -90 q 154 -98 153 -94 q 157 -106 156 -101 q 158 -115 158 -108 q 154 -129 158 -124 q 151 -140 151 -137 q 150 -147 150 -143 q 149 -154 150 -151 q 144 -168 147 -160 q 142 -173 143 -171 q 140 -178 142 -175 q 133 -192 139 -183 q 118 -200 129 -194 q 107 -187 111 -197 l 107 -144 q 110 -136 110 -140 q 114 -126 111 -132 l 114 -86 q 121 -71 119 -75 q 122 -67 121 -68 q 122 -64 122 -67 q 122 -47 121 -56 q 119 -31 122 -39 q 104 -19 108 -22 q 100 -3 99 -11 q 99 11 101 4 q 90 17 96 17 q 79 21 83 18 q 78 47 76 35 q 78 72 79 60 q 73 85 76 79 q 71 97 69 90 q 64 118 71 107 q 64 135 64 126 q 63 154 64 144 q 58 167 61 161 q 56 182 56 174 q 51 194 56 189 q 49 206 47 199 q 46 219 50 213 q 42 233 42 226 q 56 275 49 254 q 71 318 63 296 l 71 389 q 67 395 68 392 q 64 403 67 399 q 63 444 63 424 q 64 486 64 465 q 63 527 63 507 q 64 567 64 547 q 68 581 65 575 q 71 594 71 588 q 74 608 69 601 q 81 621 78 614 q 88 622 85 621 q 93 622 90 622 q 172 622 132 624 q 186 617 182 622 q 188 581 189 599 q 188 544 188 564 l 188 475 l 188 404 m 190 240 q 200 232 193 231 q 203 235 203 233 q 207 239 204 236 q 190 240 199 247 m 28 133 q 31 138 29 138 q 38 139 32 139 q 45 127 42 133 q 49 113 49 121 q 44 108 44 108 q 40 110 42 108 q 36 115 38 113 q 28 133 31 126 z "},"L":{"ha":490,"x_min":26,"x_max":464,"o":"m 354 -385 q 351 -377 353 -381 q 347 -368 350 -374 l 347 -283 q 343 -272 344 -275 q 340 -262 342 -271 l 340 -194 q 337 -185 338 -189 q 333 -178 336 -182 l 333 -129 q 330 -122 331 -125 q 326 -112 329 -118 l 326 -74 q 321 -57 324 -64 q 315 -42 318 -50 q 302 -28 308 -35 q 289 -15 296 -22 q 276 -10 282 -12 q 265 -6 271 -8 q 246 3 251 0 q 233 3 239 3 q 219 3 226 4 q 211 -1 215 3 q 208 -10 208 -7 l 208 -118 q 213 -128 211 -124 q 217 -137 214 -132 l 217 -185 q 222 -200 219 -192 q 223 -204 222 -203 q 224 -207 224 -206 l 224 -254 q 221 -261 224 -258 q 211 -259 214 -264 q 204 -251 208 -254 q 199 -237 201 -244 q 194 -219 197 -229 l 194 -187 q 191 -180 192 -183 q 188 -171 190 -176 l 188 -124 q 183 -114 185 -118 q 181 -106 182 -110 q 180 -100 181 -103 q 179 -94 179 -97 l 179 -11 q 174 3 179 -3 q 140 4 157 6 q 107 4 122 3 q 100 -10 99 -4 q 106 -25 101 -18 q 106 -58 107 -42 q 107 -90 106 -75 q 88 -104 99 -106 q 83 -99 85 -101 q 78 -94 81 -97 q 78 -49 76 -71 q 76 -4 79 -26 q 74 -1 75 -1 q 71 3 72 0 q 51 4 61 4 q 31 6 42 4 q 28 10 29 8 q 26 15 26 13 l 26 119 q 29 126 28 122 q 33 136 31 131 l 33 338 q 37 345 36 342 q 40 354 38 349 q 41 400 42 376 q 40 447 40 424 l 40 538 l 40 632 l 46 638 q 53 638 50 638 q 58 639 56 639 l 106 639 q 113 635 108 636 q 121 632 117 635 q 135 632 128 632 q 151 631 143 632 q 157 624 153 628 q 158 596 158 610 q 157 567 157 582 q 158 538 158 551 q 157 508 157 524 l 157 450 q 160 443 160 447 q 164 435 161 439 q 165 382 165 408 q 165 328 164 356 q 169 317 168 322 q 172 306 169 313 q 165 289 171 300 q 165 267 165 278 q 171 246 164 257 q 172 197 174 222 q 172 147 171 172 q 181 138 178 143 q 185 137 183 138 q 189 136 188 136 l 289 136 q 303 142 297 139 l 339 142 q 346 139 342 140 q 357 135 350 138 l 383 135 q 400 135 392 135 q 417 135 408 136 q 431 135 424 135 q 446 132 439 136 q 451 119 449 125 q 457 104 454 113 l 457 76 q 460 70 460 74 q 464 64 461 67 l 464 60 l 464 26 q 463 22 464 24 q 463 17 463 19 q 451 11 458 10 q 439 8 444 13 q 436 1 436 3 q 435 -19 435 -6 l 435 -132 q 439 -142 438 -137 q 442 -151 440 -146 l 442 -300 q 446 -308 444 -304 q 450 -319 447 -312 l 450 -367 q 453 -374 451 -371 q 456 -382 454 -378 q 456 -415 456 -393 q 457 -462 457 -437 q 456 -510 457 -487 q 456 -546 456 -533 q 450 -554 453 -550 q 440 -557 447 -558 q 435 -543 435 -551 l 435 -469 l 435 -436 q 431 -427 432 -431 q 428 -418 431 -424 l 428 -311 q 424 -303 425 -307 q 421 -296 424 -300 q 420 -239 419 -268 q 421 -181 421 -210 q 414 -162 415 -169 l 414 -50 q 410 -42 411 -46 q 407 -33 410 -37 q 406 -17 404 -25 q 404 -1 407 -8 q 401 1 401 1 q 386 10 390 7 q 371 8 379 11 q 361 4 365 6 q 350 0 357 3 q 349 -5 350 -3 q 347 -10 347 -7 l 347 -96 q 353 -116 353 -111 q 356 -140 354 -121 q 360 -153 357 -147 q 363 -168 364 -160 q 364 -181 361 -175 q 369 -194 367 -187 l 369 -351 q 373 -361 372 -357 q 376 -371 374 -365 l 376 -447 q 381 -456 379 -453 q 383 -464 382 -460 q 384 -486 383 -475 q 383 -508 385 -497 q 367 -526 378 -519 q 357 -518 360 -526 q 356 -504 356 -514 q 354 -466 354 -485 q 354 -428 354 -447 l 354 -385 z "},"M":{"ha":710,"x_min":33,"x_max":678,"o":"m 669 164 q 672 156 671 160 q 675 149 674 153 q 677 78 678 117 q 675 21 676 40 q 670 18 672 19 q 665 17 668 17 l 621 17 q 600 13 610 17 q 589 15 597 13 q 575 10 581 13 q 562 15 568 13 q 549 19 556 17 q 546 25 546 22 q 545 42 546 33 q 544 58 544 50 l 544 196 q 542 206 543 201 q 538 215 540 210 l 538 293 q 540 299 539 296 q 544 308 542 303 q 545 333 544 321 q 544 358 546 346 q 540 364 542 364 q 537 365 539 365 q 533 364 535 364 q 524 336 528 351 q 518 319 521 331 q 517 316 517 317 q 515 313 517 315 q 493 233 510 268 q 482 204 486 218 q 472 175 478 190 l 450 108 q 449 85 447 99 q 449 58 451 72 q 446 57 447 57 q 442 61 443 60 q 439 64 442 63 q 433 61 433 61 q 421 35 425 49 q 415 19 418 26 q 410 4 413 11 q 393 2 401 1 q 376 1 385 3 q 363 -4 371 -1 q 343 -6 353 -7 q 322 -7 333 -4 q 319 -17 319 -15 q 319 -58 318 -37 q 319 -100 319 -78 q 322 -106 321 -103 q 326 -117 324 -110 q 326 -129 326 -122 q 325 -143 326 -136 l 325 -154 l 317 -162 q 306 -162 313 -167 q 297 -146 303 -157 q 297 -71 294 -110 l 311 -57 l 311 -21 q 297 19 304 -1 q 283 61 290 40 q 281 68 281 64 q 278 75 281 72 q 267 103 271 89 q 257 132 263 117 q 249 139 251 138 q 245 138 246 139 q 242 138 244 138 q 238 122 238 131 q 232 107 239 114 q 231 90 232 99 q 229 72 231 82 q 221 69 226 72 q 210 100 213 85 q 204 114 207 107 q 200 128 201 121 q 190 138 200 135 q 187 125 186 131 q 188 113 188 119 q 187 102 186 107 q 188 92 188 97 q 183 82 185 86 q 181 74 182 78 q 181 41 179 57 q 179 8 182 25 l 174 3 q 159 2 167 3 q 144 1 151 1 q 93 3 118 3 q 42 3 68 3 q 39 4 40 4 q 37 7 38 6 q 35 10 36 8 q 34 15 35 13 q 33 21 33 18 l 33 307 q 37 314 36 310 q 40 324 38 318 q 42 476 42 400 q 42 629 42 551 l 42 631 q 43 633 43 632 q 53 636 49 636 q 83 637 68 638 q 113 636 99 636 q 122 633 118 635 q 129 631 125 632 q 169 630 149 628 q 211 629 190 632 q 224 606 219 619 q 231 583 226 594 q 238 561 235 572 q 239 557 239 558 q 240 554 239 556 q 259 509 251 532 q 274 463 267 486 q 301 380 288 421 q 328 297 315 339 q 333 276 331 290 q 337 266 335 271 q 340 256 339 261 q 342 243 340 249 q 346 231 343 238 q 348 219 349 225 q 349 206 347 213 q 358 186 353 196 q 364 190 361 189 q 367 194 367 192 q 377 225 371 210 q 385 257 383 240 q 392 276 392 267 q 396 296 392 286 q 401 313 399 304 q 407 331 404 321 q 415 350 410 340 q 422 371 421 360 q 435 397 431 383 q 446 424 439 411 q 448 431 447 426 q 450 438 449 435 q 458 461 454 449 q 468 485 463 474 q 478 510 474 497 q 486 536 482 522 q 491 550 488 543 q 493 564 494 557 q 496 576 493 571 q 501 588 499 582 q 511 619 506 606 q 522 622 519 622 l 572 622 l 646 622 q 663 621 657 622 q 668 615 668 615 q 669 601 668 608 q 669 586 669 593 l 669 246 l 669 164 m 158 -165 q 163 -176 161 -172 q 165 -185 164 -181 q 163 -193 164 -189 q 158 -203 161 -197 l 158 -212 q 158 -240 158 -226 q 157 -268 157 -253 q 153 -271 157 -274 q 152 -269 153 -269 q 151 -268 151 -269 q 151 -222 151 -244 q 150 -176 151 -200 q 151 -160 150 -168 q 151 -144 151 -151 q 154 -142 151 -142 q 157 -146 157 -144 q 158 -165 158 -151 m 582 -112 q 581 -143 582 -128 q 581 -174 581 -158 q 578 -176 581 -174 q 575 -172 575 -174 l 575 -49 q 576 -47 576 -49 q 578 -46 576 -46 q 581 -51 581 -46 l 581 -112 l 582 -112 m 618 -346 q 617 -356 618 -353 q 615 -358 615 -358 q 611 -354 611 -354 l 611 -326 q 614 -324 611 -326 q 617 -328 617 -326 q 617 -337 618 -332 q 617 -346 617 -342 l 618 -346 m 224 -72 l 224 -67 q 226 -61 224 -64 q 231 -65 231 -61 l 231 -79 q 228 -81 229 -81 q 225 -79 228 -82 q 224 -75 225 -76 q 224 -72 224 -74 z "},"N":{"ha":664,"x_min":26,"x_max":638,"o":"m 501 7 l 501 -292 q 496 -307 499 -300 q 494 -336 494 -314 q 492 -342 493 -339 q 489 -351 490 -346 q 488 -364 488 -358 q 486 -376 488 -369 q 481 -381 483 -379 q 476 -386 479 -383 q 460 -374 464 -386 q 465 -357 463 -365 q 471 -340 468 -349 q 474 -324 474 -332 q 481 -307 474 -315 l 481 -69 q 488 -50 482 -60 l 488 -18 q 478 10 482 -6 q 475 13 475 13 q 465 15 469 14 q 453 17 460 15 q 439 30 446 24 q 428 46 432 36 q 418 57 422 54 q 408 68 413 63 q 397 78 404 74 q 377 101 386 89 q 358 126 368 113 q 351 138 356 132 q 342 149 347 143 l 333 161 q 317 184 325 172 q 299 207 310 196 q 287 223 292 214 q 276 240 282 232 q 273 244 274 243 q 269 249 272 246 q 264 251 269 249 l 263 249 q 261 230 261 239 q 261 211 261 221 q 267 202 263 206 q 274 193 271 199 q 282 176 278 186 q 277 162 281 169 q 275 146 274 154 q 274 134 276 139 q 268 122 271 129 l 268 8 l 268 -28 q 264 -33 268 -33 q 258 -29 263 -33 q 256 -26 258 -29 q 253 -18 253 -22 q 254 -8 254 -14 l 254 119 q 251 140 254 133 q 244 145 249 144 q 232 150 239 146 l 221 161 q 218 185 215 171 q 224 193 221 189 q 231 201 228 197 q 239 219 236 213 l 239 254 q 231 272 236 261 q 217 288 226 281 q 207 290 211 293 q 196 286 201 290 l 196 268 q 194 253 194 264 q 188 244 192 249 q 182 235 185 240 q 181 178 181 207 q 181 122 181 150 l 181 14 l 175 8 q 122 7 147 6 q 71 6 96 8 q 57 -11 57 0 q 55 -24 57 -18 q 50 -37 53 -31 l 50 -94 q 56 -110 53 -103 q 57 -144 57 -126 q 57 -181 57 -162 l 57 -254 q 60 -262 58 -258 q 64 -272 61 -267 l 64 -297 q 69 -312 67 -306 q 65 -331 72 -319 q 68 -328 68 -328 q 65 -331 68 -328 q 47 -331 57 -340 q 45 -326 46 -328 q 43 -322 44 -325 q 42 -301 42 -312 q 42 -279 42 -290 q 39 -272 40 -276 q 35 -261 38 -268 l 35 -171 q 28 -156 33 -167 q 28 -135 28 -140 q 35 -114 29 -129 l 35 -54 q 38 -46 38 -50 q 42 -36 39 -42 l 42 0 l 29 13 q 27 72 28 24 q 26 182 26 121 q 27 303 26 243 q 28 400 28 364 q 35 418 29 404 l 35 460 l 35 628 q 42 640 35 636 q 79 635 58 646 l 164 635 q 178 625 174 631 q 219 562 199 593 q 263 499 240 531 q 292 453 278 475 q 322 408 307 431 q 340 372 333 394 q 363 333 350 351 q 388 294 375 314 q 400 280 393 286 q 415 267 407 274 q 418 267 418 267 q 421 269 421 267 q 422 382 422 326 q 422 496 421 438 q 413 513 417 504 q 404 532 408 522 q 396 538 400 535 q 386 544 392 542 q 385 550 386 547 q 385 556 385 553 q 381 581 385 568 q 390 604 371 597 q 410 613 396 607 q 417 615 413 614 q 424 618 421 615 q 433 620 428 619 q 440 624 438 621 q 449 628 444 625 q 456 633 453 631 q 513 635 478 635 q 569 633 547 635 q 574 631 572 631 q 575 610 576 619 q 578 593 574 601 q 588 597 588 593 q 590 606 590 601 q 590 615 590 611 q 595 624 593 619 q 600 631 597 628 q 604 625 603 628 q 603 615 604 619 q 600 604 603 610 q 597 586 596 594 q 603 578 600 581 q 615 576 610 576 q 628 575 621 576 q 633 571 631 572 q 638 565 636 569 q 619 547 621 554 q 625 518 618 539 q 626 510 626 515 q 626 501 626 506 q 626 494 626 499 q 625 486 625 490 q 607 473 615 479 q 592 457 599 467 q 587 448 589 453 q 582 436 585 443 l 582 417 l 582 286 q 585 278 585 282 q 589 271 586 275 q 590 256 589 264 q 590 240 590 247 q 604 232 594 235 q 608 230 607 232 q 606 225 608 228 q 601 222 603 222 q 597 218 600 221 q 594 216 596 217 q 592 214 593 215 q 594 200 590 207 q 597 186 599 193 q 596 179 596 183 q 594 172 596 175 q 593 167 594 169 q 590 161 592 164 q 590 110 589 136 q 589 60 590 85 q 596 21 600 40 q 583 15 592 13 l 567 21 q 542 22 556 22 q 517 21 529 21 q 512 17 514 18 q 507 14 510 17 q 505 11 506 13 q 501 7 504 10 m 429 443 l 429 278 q 433 268 432 272 q 436 261 433 264 q 436 242 436 251 q 438 225 436 233 q 454 192 446 206 q 458 188 456 189 q 461 185 460 186 q 471 206 476 190 q 465 219 471 211 l 465 304 q 461 315 463 311 q 458 324 460 319 l 458 443 q 453 457 456 450 q 447 471 450 464 l 440 471 q 435 458 438 464 q 429 443 432 451 z "},"O":{"ha":674,"x_min":35,"x_max":639,"o":"m 636 269 q 632 256 635 264 q 635 246 635 250 q 639 238 636 242 q 630 216 636 226 q 619 194 624 206 q 619 180 618 183 q 625 165 619 176 l 625 135 q 611 118 621 126 l 574 93 q 567 84 571 89 q 560 74 564 79 q 544 58 553 65 q 533 49 538 51 q 518 39 522 43 q 510 31 514 35 q 504 24 507 26 q 501 7 501 15 q 501 -10 501 -1 q 507 -26 504 -18 q 513 -40 510 -33 q 528 -64 519 -57 q 522 -83 525 -74 q 517 -101 519 -92 q 515 -191 514 -146 q 514 -282 517 -236 q 513 -283 514 -283 q 513 -285 513 -283 q 501 -275 507 -283 q 501 -233 500 -254 q 501 -192 501 -212 q 501 -152 501 -172 q 500 -112 501 -132 q 488 -99 496 -103 q 465 -78 472 -92 l 465 -61 q 474 -44 468 -51 q 486 -26 479 -36 l 486 4 q 482 11 483 10 q 470 18 476 18 q 458 15 464 18 q 441 3 450 8 q 422 -10 432 -3 q 407 -11 415 -11 q 390 -11 399 -11 l 361 -11 q 356 -15 358 -14 q 351 -18 354 -15 q 347 -32 349 -25 q 342 -49 344 -39 q 340 -60 340 -53 q 340 -74 340 -67 q 339 -78 339 -76 q 338 -81 339 -79 q 333 -103 333 -92 q 331 -115 333 -110 q 326 -128 329 -121 l 326 -144 q 321 -165 326 -158 q 318 -176 318 -171 q 318 -187 318 -182 q 316 -198 318 -193 q 313 -208 314 -203 q 311 -219 311 -214 q 308 -229 311 -224 q 304 -247 303 -237 q 303 -261 306 -254 q 297 -275 300 -268 l 297 -354 q 301 -362 300 -358 q 304 -369 301 -365 l 304 -512 q 308 -521 307 -517 q 311 -529 308 -525 q 312 -552 311 -540 q 310 -575 313 -564 q 306 -579 310 -578 q 300 -578 303 -581 q 293 -571 296 -575 q 288 -562 290 -567 q 282 -551 285 -557 l 282 -450 q 278 -442 279 -446 q 275 -435 278 -439 q 274 -392 274 -414 q 275 -349 275 -371 q 278 -340 278 -344 q 282 -329 279 -336 l 282 -282 q 285 -274 285 -278 q 289 -265 286 -269 l 289 -232 q 292 -224 292 -228 q 296 -215 293 -219 l 296 -168 q 300 -157 299 -161 q 304 -149 301 -153 l 304 -42 q 290 -26 300 -31 l 274 -26 q 271 -29 271 -29 q 264 -46 268 -37 q 260 -64 260 -54 q 253 -90 263 -79 l 253 -249 q 244 -240 246 -246 q 239 -229 242 -235 l 239 -79 q 243 -67 240 -72 q 246 -57 246 -62 q 247 -42 246 -50 q 251 -28 247 -35 q 253 -16 254 -22 q 251 -3 253 -10 q 243 3 249 3 q 240 4 242 4 q 228 9 233 7 q 217 14 224 11 q 205 19 210 17 q 193 24 200 21 q 187 26 190 25 q 178 31 183 28 q 156 53 167 42 q 133 76 144 65 q 112 100 121 88 q 93 126 103 113 q 82 144 86 135 q 71 160 78 153 q 58 182 64 168 q 53 197 56 189 q 49 213 50 206 q 45 228 49 221 q 42 242 42 235 q 40 253 42 249 q 35 265 38 258 q 37 273 35 269 q 40 279 39 276 q 39 300 43 290 q 37 306 38 303 q 35 311 36 308 l 35 361 q 37 367 36 364 q 40 376 38 371 q 41 390 40 383 q 42 406 42 397 q 44 411 43 408 q 47 418 46 414 q 55 443 50 431 q 64 469 60 456 q 72 491 67 481 q 85 511 78 501 q 119 553 100 536 q 133 566 126 560 q 146 578 139 572 q 190 604 167 592 q 221 619 206 611 q 256 632 236 626 l 282 632 q 289 635 285 635 q 297 639 293 636 l 383 639 q 390 636 386 638 q 399 632 393 635 q 417 632 407 632 q 438 631 426 632 q 451 621 444 625 q 468 615 458 617 q 499 601 483 608 q 531 585 514 593 q 561 553 546 569 q 592 522 576 538 q 603 502 599 513 q 614 485 607 492 q 617 478 617 483 q 624 460 619 468 q 632 444 628 453 q 639 413 632 425 l 639 319 q 635 308 636 313 q 633 299 633 303 q 633 288 632 294 q 636 269 633 281 m 488 196 q 497 209 492 203 q 506 224 503 215 q 510 238 508 231 q 515 256 513 246 l 515 318 q 524 334 519 326 q 531 349 528 342 l 531 367 q 529 375 529 371 q 528 382 529 379 q 524 395 524 389 q 521 408 524 401 q 515 418 518 414 q 508 428 511 422 q 501 438 506 433 q 494 449 497 442 q 467 476 483 469 q 444 494 454 485 q 432 506 436 503 q 422 507 426 507 q 413 508 417 507 q 404 511 408 510 q 397 514 400 513 l 314 514 q 285 506 297 510 q 269 493 276 499 q 254 479 261 488 q 250 478 251 479 q 247 478 249 478 l 244 478 q 227 461 232 471 q 215 444 222 451 q 208 428 208 438 q 201 411 207 419 l 201 369 q 198 361 199 365 q 194 354 197 357 l 194 328 q 199 317 196 321 q 200 308 201 314 q 194 281 193 294 q 194 257 196 268 q 210 215 201 233 q 228 179 218 196 q 242 164 235 171 q 260 154 249 157 q 272 144 264 147 q 283 133 279 140 q 293 126 288 128 q 306 121 299 124 q 324 117 317 118 q 344 121 332 121 q 353 121 349 121 q 363 124 358 121 q 370 126 365 126 q 379 128 375 126 q 403 135 392 131 q 426 146 415 139 q 471 167 447 163 q 478 176 475 172 q 485 183 482 181 q 487 190 486 188 q 488 196 488 193 z "},"P":{"ha":558,"x_min":13,"x_max":544,"o":"m 78 481 q 75 485 75 483 q 74 488 75 486 q 68 490 71 490 q 65 490 67 492 q 64 486 64 489 q 63 475 64 479 q 57 457 60 464 q 56 422 56 440 q 56 386 56 404 q 53 383 56 383 q 50 386 50 381 q 49 404 49 393 l 49 492 l 49 515 q 39 536 44 525 q 31 545 36 540 q 22 556 26 550 q 19 572 19 564 q 14 588 19 581 q 13 593 13 590 q 14 599 14 596 l 31 615 q 39 614 36 615 q 54 619 46 617 q 74 626 63 622 l 193 626 q 201 629 197 628 q 207 632 204 631 q 217 631 213 633 q 228 626 221 628 l 339 626 q 358 621 350 625 q 372 618 365 617 q 376 619 375 619 q 379 618 378 618 q 395 612 386 611 q 411 610 404 613 q 428 604 417 607 q 435 601 433 601 q 449 594 442 597 q 464 586 457 590 l 521 529 q 527 517 524 524 q 533 503 531 510 q 539 488 536 496 q 544 471 542 479 l 544 394 q 538 375 542 385 q 532 354 535 365 q 528 346 529 350 q 524 338 526 342 q 489 296 508 313 l 472 279 q 437 261 454 269 q 401 244 419 253 q 399 237 400 240 q 397 228 399 233 q 386 213 394 224 q 384 183 383 197 q 385 154 385 169 q 388 146 388 150 q 392 138 389 142 l 392 133 l 392 -57 q 394 -65 393 -61 q 399 -76 396 -69 l 399 -137 q 403 -147 401 -143 q 407 -158 404 -151 l 407 -242 q 413 -257 410 -249 q 413 -272 413 -261 q 414 -294 414 -282 q 413 -319 414 -307 q 413 -340 413 -332 q 397 -356 406 -353 q 388 -351 390 -356 q 385 -339 386 -346 q 392 -324 386 -335 q 392 -302 392 -312 q 385 -281 392 -292 q 384 -224 383 -253 q 385 -164 385 -194 q 381 -156 382 -160 q 378 -146 381 -151 l 378 -85 q 374 -76 375 -81 q 371 -67 374 -72 l 371 119 q 367 129 368 125 q 363 140 365 133 l 363 181 q 356 197 358 189 q 343 208 353 204 q 329 210 336 211 q 315 210 322 210 q 307 208 310 210 q 297 197 304 206 q 297 172 296 185 q 297 147 297 160 q 301 138 300 142 q 304 128 301 133 l 304 81 q 307 74 306 78 q 311 64 308 69 q 311 50 311 57 q 313 35 311 43 q 318 21 315 26 q 319 -14 319 4 q 319 -51 318 -32 q 322 -60 321 -56 q 326 -69 324 -64 l 326 -218 q 329 -226 328 -222 q 333 -236 331 -231 l 333 -311 q 325 -322 333 -321 q 313 -317 319 -324 q 312 -299 313 -308 q 311 -281 311 -290 q 308 -272 310 -276 q 304 -262 307 -268 l 304 -135 q 301 -126 301 -129 q 297 -117 300 -122 l 297 -40 q 294 -32 294 -36 q 290 -24 293 -28 l 290 39 q 286 49 288 44 q 282 58 285 53 l 282 106 q 279 114 281 110 q 276 122 278 118 q 275 143 275 129 q 274 147 274 146 q 272 150 274 149 q 264 163 268 157 q 254 176 260 169 q 238 185 247 181 q 221 193 229 189 q 214 194 218 194 q 207 193 211 196 q 203 188 203 190 q 203 163 203 175 q 201 140 203 151 q 206 131 204 135 q 210 121 207 126 l 210 31 q 215 16 213 22 q 214 3 218 10 q 206 -1 210 -1 q 193 -3 199 -3 q 181 -3 188 -3 q 175 -7 179 -3 q 175 -20 172 -14 q 181 -35 178 -26 q 180 -47 181 -40 q 179 -61 179 -54 q 174 -65 179 -65 q 168 -64 169 -65 q 160 -57 165 -62 q 151 -39 154 -46 q 151 -27 151 -33 q 150 -14 151 -21 q 147 -10 147 -11 q 143 -6 146 -8 q 133 -3 138 -3 q 122 -10 125 -1 l 122 -36 l 122 -190 q 118 -197 119 -193 q 114 -208 117 -201 l 114 -224 q 114 -235 115 -231 q 110 -246 113 -240 q 107 -256 107 -250 q 106 -267 107 -261 q 88 -268 99 -276 q 86 -260 85 -261 l 100 -218 l 100 -157 q 103 -149 101 -153 q 107 -140 104 -146 l 107 -104 q 100 -89 106 -100 l 100 -53 q 106 -14 111 -33 q 99 -6 103 -10 q 93 4 96 -1 l 93 61 q 89 71 90 67 q 86 81 88 75 l 86 228 q 82 240 83 235 q 78 250 81 244 q 81 258 79 254 q 85 268 82 263 q 86 314 86 276 q 85 406 86 351 q 82 414 83 410 q 78 424 81 418 l 78 481 m 397 388 q 399 395 399 392 q 400 401 399 399 q 406 419 406 410 q 406 438 407 428 l 397 454 q 392 458 394 457 q 386 461 389 458 q 360 475 374 474 q 347 481 356 475 l 306 481 q 295 485 299 483 q 289 488 292 486 l 236 488 q 231 486 233 488 q 226 483 229 485 q 224 455 224 468 q 224 428 225 442 q 217 413 218 417 l 217 357 q 204 328 210 344 q 240 326 222 326 q 274 326 257 326 q 306 335 288 335 q 321 340 313 340 q 336 343 329 340 q 353 351 344 347 q 371 360 361 356 q 383 373 376 367 q 397 388 389 379 m 63 276 q 57 292 56 285 q 56 304 58 299 l 60 308 q 63 303 63 306 l 63 276 z "},"Q":{"ha":689,"x_min":32,"x_max":657,"o":"m 75 106 q 66 114 71 110 q 58 121 61 118 q 54 140 54 132 q 54 154 54 147 q 60 161 57 157 q 65 169 63 165 q 64 175 64 171 q 58 196 61 186 q 47 215 54 206 q 47 225 47 221 q 46 235 46 229 l 33 251 q 33 276 33 261 q 32 310 32 292 q 32 346 32 328 q 33 379 32 364 q 39 394 35 388 l 39 428 q 48 452 44 443 q 56 471 51 461 q 68 494 61 481 q 88 533 75 508 l 135 581 q 151 596 146 592 q 167 606 158 601 q 182 614 175 610 q 206 626 193 621 q 232 635 219 631 q 251 642 238 636 l 286 642 q 294 645 290 644 q 303 649 299 646 l 353 649 q 360 645 357 646 q 368 642 364 644 l 415 642 q 436 635 422 640 q 479 619 456 629 q 501 606 492 614 q 522 592 511 599 q 547 575 535 585 q 564 559 556 568 q 581 542 572 550 q 594 522 586 531 q 603 501 601 514 q 606 494 603 500 q 622 460 615 478 q 633 424 628 443 q 638 407 639 413 q 639 392 636 399 q 644 378 642 385 l 644 279 q 641 270 643 275 q 639 260 639 265 q 631 233 636 244 q 624 207 626 221 q 617 194 621 200 q 611 181 614 188 q 602 165 608 172 q 593 150 596 158 q 585 140 590 144 q 576 131 581 136 q 567 122 571 126 q 558 113 563 117 q 538 99 551 106 q 552 94 546 93 q 565 94 558 94 q 572 98 568 97 q 579 101 575 99 q 613 102 596 101 q 647 100 631 103 q 651 90 651 93 q 653 66 653 78 q 653 43 653 54 q 653 30 653 36 q 657 18 654 24 l 654 15 q 646 14 651 14 l 575 14 q 565 10 569 11 q 556 7 561 10 l 486 7 q 477 10 482 10 q 468 14 472 11 q 453 8 457 14 q 446 -4 449 3 q 438 -3 442 -4 q 432 -3 435 -3 q 428 -8 428 -7 q 426 -19 426 -11 q 431 -33 428 -26 q 433 -47 435 -39 q 439 -71 432 -58 q 440 -82 440 -75 q 441 -93 440 -87 q 442 -103 442 -99 q 444 -110 443 -107 q 447 -118 446 -114 l 447 -175 q 444 -181 446 -178 q 440 -192 443 -185 l 440 -236 q 436 -250 439 -244 q 431 -260 433 -256 q 426 -254 426 -256 l 426 -222 l 426 -92 q 422 -80 424 -85 q 419 -69 419 -75 q 416 -53 419 -61 q 408 -39 413 -46 q 388 -32 403 -31 q 382 -46 382 -37 q 381 -60 382 -56 q 379 -67 381 -64 q 375 -75 378 -71 l 375 -124 q 382 -140 376 -126 l 382 -211 q 385 -218 385 -214 q 389 -226 386 -222 q 390 -244 389 -235 q 390 -264 390 -254 q 394 -272 393 -268 q 397 -279 394 -275 l 397 -314 q 401 -322 400 -318 q 404 -331 401 -325 l 404 -397 l 404 -465 q 401 -475 401 -471 q 397 -485 400 -479 l 397 -562 q 392 -574 394 -569 q 386 -583 389 -579 q 378 -589 382 -590 q 371 -583 375 -587 q 369 -566 369 -572 q 368 -556 368 -560 q 369 -547 368 -551 q 374 -535 371 -542 q 376 -499 376 -517 q 375 -462 375 -482 l 375 -394 q 380 -378 376 -385 q 382 -365 383 -372 q 388 -340 382 -351 q 388 -312 393 -331 q 383 -295 382 -304 q 382 -276 383 -286 l 382 -271 q 376 -256 378 -264 q 374 -239 375 -247 q 368 -221 367 -231 q 367 -203 369 -211 q 360 -185 360 -194 q 360 -168 361 -176 q 354 -154 357 -162 q 353 -140 353 -147 q 353 -126 353 -133 q 347 -113 350 -119 q 346 -100 344 -107 q 344 -90 346 -93 q 340 -78 343 -83 q 339 -65 338 -72 q 338 -55 339 -60 q 338 -44 338 -50 q 333 -34 335 -39 q 325 -24 331 -29 q 299 -22 313 -21 q 271 -22 286 -24 q 260 -17 265 -19 q 250 -11 256 -14 q 244 -1 247 -6 q 238 10 240 3 q 227 15 232 13 q 215 21 222 18 q 210 20 213 21 q 204 19 207 19 q 201 15 203 17 q 200 10 200 13 q 193 -24 200 -7 q 201 -45 194 -36 q 214 -64 207 -54 l 214 -82 q 201 -101 214 -97 q 192 -108 196 -104 q 186 -118 189 -111 q 185 -194 185 -156 q 185 -271 186 -233 q 174 -282 181 -282 q 172 -272 171 -276 q 171 -261 172 -267 q 168 -252 169 -257 q 164 -240 167 -247 q 163 -208 163 -225 q 164 -175 164 -192 q 163 -140 163 -157 q 164 -106 164 -122 q 158 -90 161 -97 q 158 -71 154 -82 q 167 -52 163 -62 q 178 -31 172 -42 l 178 22 q 164 32 171 29 q 146 42 157 35 q 139 49 143 44 q 131 58 135 53 q 123 72 126 65 q 117 85 119 78 q 96 94 106 90 q 75 106 86 99 m 365 117 q 380 121 374 119 q 393 125 386 122 q 403 132 399 128 q 414 139 407 136 q 426 147 421 142 q 438 156 431 153 q 456 174 450 161 q 467 182 457 179 q 472 183 469 183 q 476 185 474 183 q 479 188 479 188 q 494 217 489 201 q 506 247 500 232 q 506 256 507 251 q 508 265 506 261 q 513 279 513 272 q 515 293 514 286 q 522 308 518 300 q 529 331 526 317 q 527 339 531 333 q 521 351 524 344 l 521 388 q 514 403 514 394 q 511 421 514 411 q 499 435 506 428 q 488 451 492 442 q 485 456 488 454 q 481 460 483 457 l 440 500 q 435 503 438 501 q 429 506 432 504 q 406 515 418 510 q 381 518 394 519 q 369 520 374 517 q 360 524 365 524 q 351 521 356 522 q 342 518 347 519 l 304 518 q 279 508 292 511 q 257 497 267 506 q 251 490 254 493 q 246 483 249 486 q 235 480 240 481 q 225 474 229 479 q 217 463 222 471 q 201 439 207 451 q 197 425 199 432 q 193 411 196 418 q 195 403 194 407 q 197 396 196 400 q 192 373 190 385 q 192 350 194 361 q 190 347 192 347 q 186 333 188 340 q 189 319 185 326 q 190 294 196 310 q 185 274 188 288 q 187 259 183 265 q 192 246 190 253 q 193 235 193 240 q 193 229 193 231 q 208 197 199 210 q 224 169 217 183 q 239 154 231 161 q 251 147 247 151 q 276 133 265 135 q 292 127 285 131 q 308 124 300 124 q 321 121 315 124 q 333 117 326 118 l 365 117 z "},"R":{"ha":579,"x_min":33,"x_max":547,"o":"m 339 -219 q 332 -237 332 -228 q 329 -253 332 -246 q 317 -253 322 -257 l 304 -240 q 303 -235 304 -237 q 303 -229 303 -232 q 304 -216 301 -222 q 310 -200 307 -210 l 310 -75 q 313 -66 313 -69 q 317 -58 314 -62 l 317 13 q 324 28 321 21 q 331 43 328 36 l 331 101 q 324 114 328 108 q 315 126 319 119 q 304 140 310 133 q 290 151 299 147 q 283 149 286 151 q 281 138 281 143 l 281 76 l 281 24 q 274 8 279 19 q 272 2 272 6 q 268 -4 272 -1 q 261 8 267 0 q 261 25 257 17 q 263 31 263 28 q 265 36 264 33 l 265 99 q 269 107 268 103 q 272 115 269 111 q 272 153 275 135 q 254 172 267 167 l 246 172 q 240 167 243 169 q 233 160 236 164 q 225 142 229 151 q 215 125 221 133 q 214 103 215 110 q 211 94 213 99 q 208 86 210 90 l 208 50 q 211 42 210 46 q 214 36 213 39 l 214 32 l 214 -44 q 210 -49 214 -47 q 203 -49 206 -51 q 200 -47 200 -47 q 198 -44 199 -46 q 196 -42 197 -43 q 194 -27 193 -35 q 192 -12 194 -19 q 190 -10 190 -11 q 188 -7 189 -8 q 181 -3 186 -6 q 167 -1 174 0 q 153 -1 160 -1 q 135 -15 142 -1 q 134 -48 133 -31 q 135 -82 135 -65 l 135 -151 q 131 -160 132 -156 q 128 -171 131 -165 l 128 -314 q 120 -329 122 -321 q 110 -342 118 -337 q 99 -331 103 -337 q 98 -301 97 -315 q 99 -275 99 -287 q 103 -261 100 -267 q 106 -249 106 -256 l 106 -228 q 109 -220 108 -224 q 113 -212 110 -217 l 113 -183 q 116 -177 115 -181 q 119 -169 117 -174 q 120 -127 121 -149 q 119 -83 119 -106 q 117 -75 118 -79 q 113 -64 115 -71 l 113 -25 q 107 -13 110 -18 q 101 -4 104 -8 q 83 -1 88 -1 q 67 -3 79 0 q 64 -6 65 -6 q 63 -10 63 -7 q 62 -20 63 -15 q 61 -31 61 -25 l 61 -122 l 61 -147 q 55 -157 58 -153 q 44 -160 51 -161 q 33 -140 39 -154 l 33 -82 q 36 -74 35 -78 q 39 -65 38 -69 l 39 -8 q 33 7 35 -1 l 33 458 q 35 465 35 461 q 39 474 36 469 q 40 514 40 493 q 40 556 39 535 q 40 596 40 575 q 40 636 39 617 q 45 639 43 638 q 50 640 47 640 q 67 642 58 642 q 83 642 75 642 q 99 635 86 639 l 285 635 q 294 631 290 632 q 304 628 299 631 l 335 628 q 351 622 343 625 q 367 619 358 618 q 381 615 374 617 q 394 610 388 613 q 410 603 403 607 q 425 596 417 599 q 449 570 436 583 q 476 542 461 557 l 490 514 q 492 503 492 508 q 494 493 492 499 q 493 444 506 469 q 492 430 493 438 q 492 415 492 422 q 489 408 490 413 q 486 401 488 404 q 485 378 485 394 q 476 362 481 371 q 468 344 472 353 q 454 329 461 336 q 438 318 447 322 q 404 296 421 306 q 369 276 388 286 q 364 272 367 275 q 363 269 363 269 q 371 250 368 256 q 382 238 376 243 q 393 225 388 232 q 406 207 397 214 q 421 192 414 200 q 426 183 424 188 q 432 174 429 178 q 442 162 438 167 q 453 151 447 157 l 465 126 q 476 114 469 119 q 486 100 483 108 q 489 94 486 97 q 498 85 493 89 q 507 75 503 81 q 514 65 511 71 q 521 54 517 60 q 535 38 529 47 q 547 19 540 28 q 546 17 547 18 q 540 14 543 14 q 532 14 536 14 l 415 14 q 397 13 404 14 q 395 11 396 13 q 392 8 394 10 q 390 -24 389 -8 q 390 -54 390 -39 q 396 -71 393 -64 q 397 -85 399 -78 q 399 -97 396 -92 q 404 -110 401 -103 l 404 -146 q 401 -154 401 -150 q 397 -164 400 -158 l 397 -210 q 394 -218 396 -214 q 390 -228 393 -222 l 390 -401 q 396 -440 401 -422 q 393 -443 396 -443 q 390 -442 390 -442 q 383 -432 385 -436 q 381 -419 383 -425 q 376 -407 378 -414 l 376 -324 q 382 -307 379 -312 l 382 -236 q 380 -229 381 -233 q 376 -219 379 -225 l 376 -178 q 379 -169 378 -174 q 382 -160 381 -165 l 382 -83 q 372 -60 379 -69 q 358 -40 364 -51 l 350 -40 q 344 -53 347 -47 q 339 -68 342 -60 l 339 -219 m 274 343 q 294 353 285 349 q 313 363 303 357 q 323 367 318 365 q 333 371 328 369 q 351 380 344 374 q 363 396 357 386 q 369 413 367 404 q 374 429 371 421 q 374 447 379 439 q 369 463 368 454 q 365 478 369 471 q 353 491 356 489 q 340 499 350 493 q 335 500 339 500 q 324 497 326 497 q 308 503 315 499 l 197 503 q 192 501 194 503 q 188 499 190 500 q 186 474 185 486 q 185 451 188 463 q 181 443 182 447 q 178 435 181 439 q 178 399 178 417 q 179 365 179 382 q 180 363 179 364 q 181 361 181 363 q 201 351 189 353 q 224 343 213 349 l 274 343 m 207 190 q 202 199 204 196 q 197 207 200 203 q 190 208 196 211 l 189 207 q 186 200 186 201 l 186 111 q 190 99 188 104 q 193 89 193 94 q 192 78 193 82 q 188 68 190 74 q 188 50 183 58 q 192 46 188 46 q 197 46 194 43 q 199 51 199 49 q 200 58 200 53 l 200 119 q 201 125 200 122 q 201 131 201 128 q 203 138 203 133 q 207 146 204 142 l 207 190 z "},"S":{"ha":513,"x_min":26,"x_max":486,"o":"m 319 -72 q 318 -40 317 -56 q 317 -10 319 -25 q 312 -7 314 -8 q 307 -6 310 -6 l 261 -6 q 246 -12 257 -7 l 182 -12 q 178 -11 179 -11 q 174 -10 176 -11 q 163 -7 165 -7 q 153 -15 160 -7 q 151 -22 151 -18 l 151 -85 q 158 -108 157 -96 q 157 -132 158 -119 q 149 -143 154 -135 q 139 -149 143 -146 q 137 -140 136 -144 q 135 -131 138 -135 q 132 -122 133 -126 q 129 -114 131 -118 q 128 -59 128 -86 q 128 -4 129 -32 q 118 1 124 -1 q 108 6 113 4 q 99 8 104 7 q 86 1 90 10 q 84 -23 83 -10 q 85 -49 85 -36 q 88 -55 88 -51 q 92 -62 89 -58 q 92 -92 93 -78 q 92 -122 92 -107 q 81 -133 88 -132 q 77 -122 76 -128 q 78 -110 78 -115 q 77 -98 76 -103 q 78 -87 78 -93 q 71 -69 72 -76 q 70 -31 69 -50 q 69 8 71 -11 q 60 18 65 15 q 49 24 54 21 q 28 43 35 29 q 26 98 26 67 q 28 150 26 129 q 40 151 32 156 q 50 147 46 149 q 60 143 54 146 q 76 147 71 138 q 77 150 76 149 q 78 154 78 151 l 78 211 q 74 221 75 217 q 71 231 72 225 l 71 283 q 66 296 69 290 q 63 308 63 301 q 65 319 63 314 q 69 331 67 324 q 63 346 67 338 q 56 363 58 354 q 49 380 53 372 q 42 397 44 388 q 41 415 40 406 q 35 431 42 424 q 34 445 35 438 q 35 460 33 453 q 37 469 35 465 q 40 478 39 474 q 41 485 42 481 q 42 492 40 489 q 49 508 43 497 q 53 522 50 514 q 60 539 57 531 q 65 556 64 547 q 86 576 76 567 q 107 597 96 586 l 140 614 q 153 619 147 617 q 167 625 160 622 q 179 628 174 626 q 192 631 185 629 q 200 633 196 632 q 210 636 204 635 l 311 636 q 325 631 319 633 q 342 630 333 631 q 363 629 351 629 q 368 626 365 628 q 374 624 371 625 q 387 623 381 622 q 400 621 393 624 q 410 617 406 619 q 421 615 414 615 q 434 612 428 615 q 447 604 440 608 q 449 594 449 597 q 450 584 450 590 q 449 568 450 578 q 449 542 449 558 q 447 536 447 539 q 443 529 446 533 q 442 510 443 519 q 440 490 442 500 q 439 488 439 488 q 400 499 419 493 q 358 513 381 506 l 329 513 q 299 521 308 521 q 274 514 289 521 l 242 514 q 210 502 226 507 q 182 482 194 497 q 178 468 181 475 q 174 453 176 461 q 183 438 179 446 q 194 422 188 431 q 204 417 199 419 q 215 413 210 414 q 231 406 224 410 q 247 403 239 403 q 258 401 254 404 q 268 397 263 399 q 277 397 272 396 q 286 394 282 397 q 305 390 294 389 q 324 383 315 390 q 336 382 331 382 q 349 381 342 382 l 382 364 q 404 353 393 358 q 426 342 415 347 q 447 322 438 332 q 463 300 456 313 q 476 276 474 289 q 486 250 479 263 l 486 157 q 478 136 482 146 q 472 115 475 126 q 457 86 465 96 l 449 74 q 418 44 438 54 q 413 42 415 43 q 408 38 411 40 q 407 31 408 35 q 406 24 406 26 l 406 -50 q 405 -55 406 -53 q 404 -60 404 -57 q 394 -56 397 -57 q 385 -43 392 -54 q 384 -17 385 -31 q 383 10 383 -4 q 371 15 378 18 q 357 11 364 13 q 343 7 350 10 q 328 -3 332 1 q 326 -19 325 -11 q 326 -35 326 -28 q 329 -42 328 -39 q 333 -50 331 -46 l 333 -85 q 336 -92 335 -89 q 340 -100 338 -96 l 340 -129 l 347 -143 q 347 -158 347 -150 q 349 -174 347 -165 q 352 -182 351 -178 q 354 -189 353 -186 l 354 -194 q 349 -208 351 -201 q 344 -222 347 -215 l 338 -222 q 335 -219 336 -219 q 333 -215 333 -218 q 325 -201 328 -207 l 325 -87 q 322 -79 324 -83 q 319 -72 321 -75 m 181 164 q 179 223 179 193 q 179 283 179 253 q 178 288 179 286 l 178 289 q 176 292 176 290 q 163 297 169 294 q 149 301 156 299 q 129 288 135 300 q 129 192 126 239 q 133 184 132 188 q 136 176 133 181 q 135 164 136 169 q 136 151 135 158 q 135 137 136 144 q 139 122 135 129 q 153 117 146 119 q 167 113 160 115 q 179 115 175 113 q 186 124 183 118 q 187 145 188 140 q 181 164 186 150 m 253 144 q 261 118 257 129 q 271 114 265 111 q 282 118 276 117 q 294 122 288 119 q 311 142 306 129 q 312 193 311 167 q 310 243 313 219 q 298 257 306 254 q 283 264 290 260 q 276 265 279 264 q 269 265 272 265 q 262 267 265 267 q 253 269 258 268 l 253 144 m 242 114 q 244 128 243 122 q 245 142 244 135 q 245 161 246 150 q 244 192 244 172 q 242 197 243 194 q 240 201 242 199 q 239 207 239 204 q 238 213 239 210 q 228 233 233 224 q 211 249 222 243 q 196 246 203 251 q 192 238 193 243 q 188 229 190 233 l 188 200 q 191 190 190 194 q 194 182 192 186 l 194 126 q 208 113 199 114 q 224 111 217 111 q 242 114 232 111 m 92 -287 q 88 -301 89 -294 q 83 -314 86 -307 q 81 -315 81 -314 l 78 -312 l 78 -199 q 81 -192 78 -197 q 86 -190 83 -189 q 89 -192 89 -192 q 92 -203 92 -200 l 92 -287 z "},"T":{"ha":590,"x_min":29,"x_max":563,"o":"m 429 465 q 425 477 428 472 q 421 485 422 482 q 408 489 414 489 q 394 489 401 489 q 382 481 389 488 q 379 466 378 474 q 378 450 381 458 q 376 444 376 447 q 372 438 375 442 l 372 267 q 365 246 367 253 q 358 229 364 240 q 357 218 358 222 q 358 215 357 217 q 359 212 358 213 q 360 208 360 211 q 375 203 367 204 q 390 194 383 201 l 386 178 l 386 160 q 373 144 381 150 q 360 128 365 138 q 357 120 357 125 q 357 111 357 115 l 357 31 q 357 22 357 26 q 356 13 357 17 q 351 10 353 11 q 346 8 349 8 q 329 7 338 7 q 313 7 321 7 q 303 4 311 7 q 293 -19 297 -7 q 293 -47 289 -32 q 301 -58 294 -54 q 313 -71 308 -62 q 310 -81 311 -76 q 307 -90 308 -85 q 306 -110 306 -97 q 303 -116 304 -112 q 300 -124 301 -119 q 299 -151 299 -137 q 299 -181 299 -165 q 302 -189 301 -185 q 306 -199 303 -193 l 306 -537 q 313 -556 310 -547 q 319 -575 315 -565 q 320 -582 321 -578 q 319 -589 319 -586 q 310 -596 319 -596 q 305 -589 307 -593 q 300 -579 303 -585 q 299 -564 299 -572 q 299 -547 299 -556 q 293 -535 296 -543 q 292 -533 293 -533 q 292 -531 292 -532 l 292 -250 q 288 -242 289 -246 q 285 -232 288 -237 l 285 -121 q 271 -79 276 -101 q 269 -40 268 -60 q 268 1 271 -19 q 260 6 263 6 q 251 4 258 7 q 247 -8 247 1 q 246 -24 249 -17 q 240 -37 243 -31 l 240 -114 q 235 -126 238 -122 q 235 -149 231 -139 q 240 -164 239 -156 q 240 -181 240 -172 q 242 -190 240 -187 q 247 -204 244 -199 l 247 -211 q 248 -232 247 -222 q 246 -251 249 -242 q 222 -275 239 -262 q 217 -275 219 -278 q 213 -269 213 -275 q 214 -266 214 -267 q 215 -262 214 -265 q 216 -258 215 -260 q 218 -254 217 -257 l 218 -154 q 217 -144 218 -149 q 214 -135 215 -140 q 217 -126 215 -131 q 217 -115 219 -121 q 208 -108 213 -112 q 200 -101 204 -104 q 195 -92 197 -96 q 190 -81 193 -87 l 190 -37 q 196 -22 193 -29 q 197 -8 196 -15 q 197 7 197 0 q 203 22 200 14 q 204 36 204 29 q 204 51 204 43 q 210 90 215 69 l 193 103 q 193 131 185 118 q 196 156 199 140 q 190 163 193 160 q 185 171 188 167 q 200 179 196 176 q 202 189 201 185 q 203 199 203 193 q 203 214 204 204 q 203 242 203 224 q 201 247 201 244 q 197 256 200 250 q 197 276 197 265 q 196 297 196 286 q 193 306 194 301 q 190 315 192 310 q 189 331 189 322 q 189 347 189 339 q 176 364 189 360 q 161 351 167 364 q 160 342 160 347 q 158 333 160 338 q 149 325 156 325 l 146 328 l 146 364 q 151 376 149 371 q 153 389 154 382 q 154 403 151 396 q 160 418 157 411 l 160 460 q 149 479 156 472 q 138 482 143 482 q 126 482 133 482 q 110 468 115 479 q 109 426 108 447 q 108 382 110 404 q 109 340 108 361 q 108 299 110 319 q 99 288 104 289 q 92 286 97 286 q 88 290 89 289 q 83 293 86 290 q 78 307 81 300 q 74 322 76 314 l 74 379 q 79 394 76 388 q 79 410 79 401 q 81 429 79 419 q 83 438 82 433 q 86 447 85 442 q 88 467 88 457 q 86 489 89 478 q 81 496 85 492 q 58 497 69 496 q 35 497 46 497 q 32 501 33 500 q 31 504 31 501 q 29 511 29 506 l 29 599 q 30 604 29 601 q 31 610 31 607 q 49 614 39 615 q 68 615 58 613 q 74 617 71 617 q 81 621 76 618 l 172 621 q 188 626 179 624 q 201 622 194 625 q 217 621 208 619 q 240 628 229 621 l 263 628 l 529 628 q 542 628 536 628 q 554 626 547 628 q 558 625 557 626 q 561 622 558 624 q 562 590 563 606 q 561 557 561 574 q 558 549 560 553 q 554 539 557 544 l 554 489 q 551 486 551 488 q 547 483 550 485 q 528 482 538 482 q 510 481 519 482 q 502 472 504 476 q 497 461 500 467 q 496 444 496 453 q 496 425 496 435 q 492 417 493 421 q 489 407 492 413 l 489 331 q 485 324 486 328 q 482 313 485 319 l 482 296 l 482 200 q 488 185 485 192 q 489 169 490 178 q 490 157 488 163 q 496 144 493 151 l 496 81 q 493 74 494 78 q 489 64 492 71 l 489 10 q 485 1 486 6 q 482 -7 485 -3 l 482 -31 q 481 -78 481 -54 q 481 -125 482 -101 q 478 -136 481 -128 q 475 -132 475 -131 q 474 -56 475 -93 q 474 21 474 -18 q 469 31 472 25 q 469 49 465 40 q 474 60 471 51 l 474 106 q 481 126 479 119 q 476 142 481 135 q 474 158 472 150 q 468 174 471 167 q 463 190 465 182 q 450 201 458 193 q 443 202 447 204 q 439 197 439 200 q 436 183 438 190 q 431 168 435 175 l 431 24 q 426 13 426 17 q 424 6 425 10 q 422 -1 424 1 q 419 -11 422 -6 q 411 -12 417 -12 l 403 -4 q 401 8 401 1 l 401 57 q 405 66 404 63 q 408 74 406 69 l 408 117 q 405 123 406 119 q 401 131 404 126 l 401 160 q 408 178 403 164 l 408 247 q 415 262 411 254 q 422 276 418 269 q 423 305 424 290 q 424 335 422 319 q 426 342 425 338 q 429 351 428 346 l 429 465 m 151 90 q 147 86 149 88 q 142 82 144 85 q 138 83 139 82 q 135 83 136 83 l 132 86 q 131 152 129 119 q 131 217 132 185 q 135 226 133 222 q 139 236 136 231 l 139 293 q 142 303 139 300 q 144 304 143 304 q 150 301 150 307 q 153 292 153 296 l 153 103 q 152 97 153 100 q 151 90 151 94 m 488 -160 q 488 -199 489 -178 l 485 -201 q 475 -179 475 -189 l 471 -158 q 472 -156 469 -157 q 475 -154 474 -154 q 488 -160 481 -153 z "},"U":{"ha":596,"x_min":31,"x_max":565,"o":"m 331 -99 q 319 -100 328 -100 l 299 -121 q 293 -131 296 -126 q 288 -143 290 -136 l 288 -286 q 285 -294 286 -290 q 281 -304 283 -299 l 281 -332 l 293 -365 q 285 -375 296 -375 q 278 -376 282 -376 q 272 -375 275 -375 q 258 -358 258 -371 l 258 -326 q 264 -312 261 -321 q 265 -277 264 -301 q 265 -226 265 -253 q 265 -175 265 -199 q 264 -140 264 -151 q 253 -127 260 -132 q 239 -117 246 -122 q 241 -105 236 -108 q 249 -94 246 -101 q 249 -87 249 -87 q 236 -69 242 -78 q 224 -51 231 -61 q 235 -26 229 -40 q 226 -7 236 -12 q 223 -5 224 -6 q 219 -3 222 -4 q 208 1 214 0 q 196 6 203 3 q 186 13 190 8 q 175 19 182 17 q 147 36 158 26 q 138 42 143 40 q 129 46 133 43 q 100 42 115 49 q 60 40 69 39 q 43 43 51 40 q 53 47 47 49 q 64 49 58 46 q 85 56 78 54 q 94 60 90 57 q 103 65 99 63 l 103 69 q 95 82 100 76 q 88 94 90 88 q 81 104 85 100 q 71 114 76 108 q 67 122 69 118 q 64 131 65 126 q 60 138 61 135 q 56 147 58 142 q 53 162 53 154 q 47 176 54 169 q 47 192 47 185 q 46 207 46 200 q 43 214 44 210 q 40 221 42 218 q 38 269 39 231 q 39 367 38 307 q 44 378 40 374 q 46 390 47 383 q 44 402 46 397 q 39 414 42 407 l 39 557 q 36 564 38 560 q 33 571 35 568 q 31 590 31 581 q 32 610 32 600 l 39 617 l 151 617 q 156 616 154 617 q 160 614 157 615 q 161 610 160 611 q 163 606 163 608 q 164 577 164 590 q 164 551 164 564 q 167 544 165 547 q 169 536 168 540 l 169 449 q 164 435 167 440 q 163 399 163 417 q 164 363 164 382 q 163 326 163 344 q 163 290 163 308 q 171 272 168 279 l 171 235 q 180 206 174 219 q 186 176 186 192 q 191 167 189 172 q 196 156 193 163 q 209 144 203 150 q 222 131 215 138 q 237 125 229 128 q 251 121 244 122 q 267 117 260 119 q 285 113 275 115 q 292 116 288 115 q 301 119 296 117 q 315 120 308 119 q 329 121 322 121 q 340 124 335 124 q 350 128 344 125 q 371 136 361 131 q 388 151 381 142 q 394 167 390 158 q 403 183 399 175 q 404 196 404 190 q 406 208 404 201 q 408 215 407 211 q 411 224 408 219 l 411 476 q 415 484 414 481 q 418 492 415 488 q 419 555 421 524 q 419 618 417 586 q 423 621 422 619 q 426 622 424 622 q 433 624 428 624 l 550 624 q 555 623 553 624 q 560 622 557 622 q 562 619 561 619 q 564 615 563 618 q 565 610 564 613 q 565 604 565 607 l 565 444 q 565 439 565 442 q 564 433 564 436 q 561 427 563 431 q 557 418 560 424 l 557 189 q 552 175 554 181 q 550 163 550 169 q 547 150 550 156 q 543 138 544 144 q 538 124 540 131 q 533 111 536 118 q 526 99 531 104 q 518 86 521 93 q 511 76 515 81 q 504 65 507 71 q 497 56 501 60 q 489 50 493 53 q 474 40 479 47 q 461 28 468 33 q 418 6 436 17 q 413 -1 415 3 q 408 -10 411 -6 q 401 -16 406 -14 q 390 -15 397 -18 q 383 -12 385 -12 q 367 -17 372 -10 q 365 -19 365 -18 q 361 -24 364 -21 q 360 -35 361 -29 q 360 -49 360 -42 q 356 -51 357 -50 q 351 -56 354 -53 q 326 -89 332 -67 q 328 -94 328 -92 q 331 -99 329 -96 m 331 -99 q 335 -103 336 -101 l 332 -103 q 331 -99 332 -100 z "},"V":{"ha":671,"x_min":38,"x_max":633,"o":"m 438 89 l 438 -14 q 441 -22 440 -18 q 444 -29 442 -25 l 444 -94 q 441 -101 442 -97 q 438 -108 440 -104 l 438 -146 q 443 -183 449 -164 q 440 -185 442 -185 q 436 -187 438 -186 q 424 -176 426 -185 q 417 -161 421 -168 q 415 -139 415 -150 q 422 -117 415 -128 l 422 -92 q 425 -83 425 -83 q 424 -44 436 -62 q 423 -25 424 -35 q 422 -6 422 -15 q 399 -3 413 4 q 392 -15 392 -8 q 390 -29 393 -22 q 385 -43 388 -36 q 379 -60 382 -50 l 379 -86 l 379 -250 q 378 -271 379 -264 q 371 -275 375 -275 q 367 -271 367 -275 q 365 -260 365 -268 q 364 -185 364 -222 q 364 -111 364 -149 q 371 -93 369 -100 q 372 -80 372 -86 q 371 -65 371 -74 q 369 -59 369 -62 q 365 -50 368 -56 q 365 -40 365 -46 q 364 -29 364 -35 q 359 -16 361 -22 q 354 -3 357 -10 q 343 0 346 0 q 333 -1 340 0 q 328 -13 326 -7 q 325 -25 329 -19 q 320 -15 319 -21 q 318 -4 321 -10 q 314 -1 315 -3 q 310 0 313 0 q 302 1 306 1 q 294 0 299 0 q 281 1 290 1 l 272 10 q 267 19 269 15 q 264 29 265 24 q 260 40 261 35 q 256 50 258 44 q 251 63 253 57 q 246 76 249 69 q 240 96 242 86 q 231 114 238 106 q 226 129 226 121 q 219 144 225 138 q 213 160 215 151 q 208 175 211 168 q 201 190 206 182 q 196 206 197 197 q 179 246 185 225 q 164 286 174 267 q 154 310 157 297 q 146 338 151 324 q 138 360 142 349 q 132 382 135 371 q 129 389 129 385 q 126 396 129 393 q 115 422 119 408 q 104 449 111 436 q 95 474 99 461 q 88 500 92 488 q 86 504 86 503 q 85 507 86 506 q 73 538 78 522 q 63 568 68 553 q 56 588 60 578 q 47 606 53 597 q 44 615 44 611 q 40 626 43 622 q 38 636 38 631 q 39 639 39 639 q 49 642 44 640 q 64 644 54 643 q 89 644 74 644 q 131 643 104 643 q 138 640 133 640 q 147 636 142 639 q 165 636 156 636 q 182 635 174 636 q 194 617 192 629 q 205 588 200 601 q 215 560 210 574 q 225 532 222 546 q 235 504 228 518 q 246 474 240 489 q 257 443 251 458 q 267 413 263 428 q 278 382 272 397 q 278 378 278 379 q 279 375 279 376 q 292 344 288 360 q 303 314 297 329 q 308 293 306 303 q 314 272 310 283 q 315 268 314 269 q 335 260 321 253 q 342 263 336 260 q 358 263 350 263 q 374 264 367 264 q 383 272 378 267 q 396 306 388 289 q 401 321 400 313 q 408 336 403 329 q 414 349 413 342 q 418 363 415 356 q 424 383 421 369 q 427 394 425 389 q 429 404 429 399 q 433 422 429 414 q 439 439 438 429 q 459 499 450 469 q 479 560 468 529 q 484 573 482 567 q 489 586 486 579 q 497 607 496 597 q 507 625 499 614 q 514 628 513 628 l 624 628 q 628 626 626 628 q 633 624 631 625 q 626 597 631 610 q 617 572 621 585 q 610 551 614 561 q 601 532 607 542 q 592 506 599 518 q 582 481 585 494 q 565 439 571 461 q 551 396 558 417 q 548 383 549 389 q 546 371 547 378 q 532 343 539 357 q 518 315 525 329 q 506 290 511 303 q 496 263 501 276 q 493 251 496 254 q 478 217 483 235 q 467 181 474 199 q 469 173 468 176 q 471 165 469 169 q 469 163 469 164 q 468 160 469 161 q 463 153 465 157 q 460 144 461 150 q 451 117 456 131 q 438 89 446 103 m 364 -422 l 364 -332 q 365 -315 364 -324 q 365 -299 365 -307 q 368 -296 365 -296 q 371 -300 371 -296 q 372 -315 372 -306 l 372 -450 q 367 -467 368 -458 q 363 -485 365 -475 q 356 -486 360 -487 q 354 -485 354 -486 q 353 -485 354 -485 q 352 -483 353 -483 q 351 -482 351 -483 q 351 -474 351 -478 q 351 -467 350 -469 q 356 -452 354 -460 q 358 -436 357 -444 q 361 -428 360 -432 q 364 -422 363 -425 z "},"W":{"ha":851,"x_min":3,"x_max":849,"o":"m 639 -7 q 615 -9 628 -10 q 589 -8 603 -8 l 544 -8 q 529 -24 533 -12 q 528 -38 529 -31 q 528 -54 528 -46 l 528 -171 q 526 -185 528 -181 q 524 -187 526 -187 l 522 -187 q 521 -186 521 -187 q 513 -176 515 -182 q 507 -162 511 -169 l 507 -139 l 507 -26 q 506 -13 507 -19 q 506 -3 506 -7 q 493 7 503 4 q 491 8 492 7 q 488 11 490 10 q 493 26 490 18 q 499 44 496 35 q 500 63 500 53 q 493 85 500 74 q 492 92 492 86 q 486 114 490 103 q 483 138 482 125 q 478 155 479 146 q 474 172 478 164 q 471 186 471 179 q 468 200 471 193 q 463 215 464 207 q 463 229 463 222 q 461 236 463 233 q 455 255 454 244 q 450 274 456 265 q 448 281 447 276 q 449 288 449 285 q 447 296 447 292 q 446 303 447 300 q 442 317 442 310 q 440 331 442 324 q 438 340 440 335 q 433 351 436 344 l 433 378 q 430 385 431 381 q 426 393 429 389 q 426 415 426 404 q 425 438 426 426 q 417 442 425 444 q 414 440 414 442 q 406 425 408 429 q 404 410 403 418 q 401 396 406 403 q 397 382 397 389 q 394 368 397 375 q 389 339 389 356 q 385 318 390 332 q 381 299 382 308 q 375 279 379 289 q 371 260 376 268 q 367 240 365 251 q 360 222 364 231 q 353 201 357 213 l 353 82 q 346 65 351 76 l 346 44 q 344 33 346 36 q 339 14 338 24 q 338 -7 340 4 q 333 -20 336 -14 q 331 -33 329 -26 q 328 -51 332 -42 q 324 -69 324 -60 q 323 -80 324 -75 q 319 -90 322 -85 q 317 -104 317 -99 q 311 -129 317 -118 q 310 -136 310 -132 q 308 -143 310 -140 q 306 -151 307 -147 q 303 -162 306 -156 q 302 -175 303 -168 q 301 -189 301 -182 q 299 -197 300 -193 q 294 -207 297 -201 l 294 -242 q 299 -249 297 -246 q 301 -258 300 -253 l 301 -292 q 305 -299 304 -296 q 308 -308 306 -303 l 308 -444 q 315 -458 313 -451 q 317 -467 317 -462 q 317 -476 317 -472 l 317 -489 q 307 -501 313 -500 q 296 -495 300 -500 q 288 -483 292 -490 l 288 -425 q 284 -417 285 -421 q 281 -410 283 -414 l 281 -212 q 283 -206 282 -210 q 286 -199 285 -203 q 288 -181 288 -190 q 288 -162 288 -172 q 291 -154 290 -158 q 294 -144 292 -150 l 294 -104 q 298 -96 297 -100 q 301 -87 299 -92 q 302 -64 301 -76 q 301 -37 303 -51 q 302 -22 301 -31 q 300 -6 303 -14 q 293 -3 294 -3 q 276 -1 285 0 q 257 -1 267 -1 l 251 -7 q 251 -29 250 -18 q 251 -51 251 -40 q 257 -65 254 -60 q 258 -70 257 -68 q 258 -75 258 -72 l 258 -139 q 247 -151 254 -150 q 242 -143 243 -149 q 236 -133 240 -137 l 236 -31 q 236 -20 236 -25 q 235 -8 236 -15 q 233 -6 235 -7 q 231 -3 232 -6 q 218 -1 224 -1 q 206 0 213 -1 q 193 13 194 6 q 188 31 190 22 q 182 50 185 40 q 168 85 175 71 q 165 92 165 88 q 163 101 164 97 q 153 128 158 115 q 143 156 147 142 q 136 174 140 165 q 133 194 132 183 l 133 199 q 128 213 131 206 q 122 229 125 221 q 119 243 119 236 q 115 257 118 250 q 109 272 111 264 q 104 288 107 281 q 103 294 104 293 q 85 340 92 317 q 69 386 78 363 q 64 403 67 394 q 58 421 61 413 q 56 426 57 424 q 54 431 56 428 q 43 472 47 458 q 28 510 39 485 q 26 517 26 513 q 24 524 26 521 q 14 553 18 539 q 4 582 10 567 q 3 587 3 585 q 4 592 4 589 q 21 611 10 601 q 25 612 24 611 q 28 613 26 613 l 119 613 q 124 612 122 613 q 126 611 125 611 q 135 607 131 611 q 140 600 140 603 q 144 578 140 589 q 151 558 147 568 q 172 498 163 528 q 192 438 181 468 q 194 426 192 431 q 200 414 197 421 q 204 403 203 408 q 208 390 206 397 q 215 365 213 381 q 218 357 217 361 q 221 349 219 353 q 222 334 221 342 q 222 319 222 326 q 227 310 225 314 q 232 300 229 306 q 243 288 238 293 q 256 278 249 282 q 260 279 258 279 q 263 281 261 279 q 267 288 265 283 q 272 297 269 292 l 272 346 q 276 356 275 351 q 279 364 278 360 q 282 378 281 371 q 286 392 283 385 q 289 406 289 399 q 293 419 289 413 q 298 443 293 432 q 303 465 303 454 q 309 486 308 475 q 314 507 310 497 q 318 523 318 514 q 324 539 318 532 q 324 550 324 544 q 325 563 324 556 q 338 588 329 572 q 338 598 338 593 q 340 610 339 603 q 345 615 343 613 q 350 619 347 617 q 374 619 363 619 q 397 621 386 619 q 405 624 401 622 q 411 626 408 625 q 445 627 419 628 q 488 625 471 626 q 499 611 497 621 q 506 583 499 600 q 508 571 508 576 q 511 558 508 565 q 515 541 514 550 q 521 524 515 532 q 522 508 519 515 q 528 493 525 500 q 533 477 531 485 q 536 461 536 469 q 540 447 536 454 q 543 433 543 440 q 548 416 544 424 q 551 399 551 408 q 563 376 558 388 q 576 354 568 365 q 588 324 588 340 q 590 317 588 322 q 600 325 597 317 q 606 346 603 336 q 614 367 610 356 q 622 392 618 379 q 631 418 626 404 q 635 433 633 425 q 639 450 638 440 q 643 465 640 457 q 649 481 646 472 q 656 501 651 492 q 661 522 660 511 q 663 531 661 526 q 667 539 665 535 q 678 577 672 558 q 692 615 685 596 l 693 617 q 749 620 710 619 q 836 619 789 621 q 846 617 840 619 q 847 613 846 614 q 847 610 849 611 q 828 555 838 582 q 811 500 819 528 q 806 485 806 493 q 803 468 806 476 q 797 449 800 458 q 789 428 793 439 q 778 394 783 411 q 768 363 774 378 q 760 342 764 351 q 753 322 757 332 q 742 297 746 310 q 735 271 739 283 q 722 231 728 251 q 708 192 715 211 q 703 171 706 185 q 696 150 701 164 q 685 115 692 135 q 674 81 681 100 q 668 64 671 72 q 663 47 665 56 q 657 29 660 38 q 651 13 654 21 q 639 -7 649 1 z "},"X":{"ha":668,"x_min":24,"x_max":646,"o":"m 349 64 l 349 40 q 346 31 347 35 q 342 21 344 26 l 342 -58 q 340 -65 342 -64 q 338 -72 339 -68 q 335 -81 338 -76 l 335 -364 q 338 -370 336 -367 q 340 -376 339 -374 q 342 -419 343 -408 q 338 -440 342 -431 q 335 -434 335 -437 q 333 -428 335 -431 q 328 -414 331 -422 l 328 -375 q 324 -365 325 -369 q 319 -356 322 -361 l 319 -279 q 317 -272 318 -276 q 313 -261 315 -268 l 313 -231 l 313 90 q 313 107 313 99 q 311 124 313 115 q 308 129 311 126 q 301 131 307 131 q 299 128 300 129 q 296 126 297 128 l 290 121 q 281 108 286 114 q 272 94 276 101 q 263 78 267 86 q 254 60 260 69 l 254 8 q 251 1 251 4 q 247 -7 250 -3 l 247 -62 q 244 -69 244 -65 q 240 -78 243 -74 q 239 -84 239 -81 q 235 -90 239 -87 q 233 -87 233 -87 l 233 -14 q 238 25 243 7 q 234 28 238 26 q 229 28 231 29 q 224 24 226 25 q 221 21 222 24 q 193 -11 213 3 q 185 -14 188 -14 l 115 -14 q 109 -10 113 -11 q 101 -7 106 -10 q 63 -7 82 -6 q 24 -6 43 -8 q 28 7 26 1 q 33 17 29 13 q 49 37 43 26 q 64 57 56 47 q 67 63 67 60 q 71 69 68 67 q 82 83 78 76 q 90 96 86 89 q 103 114 97 104 q 117 131 108 124 q 124 141 122 135 q 131 151 125 147 q 146 172 142 161 q 148 175 147 174 q 150 178 149 176 q 162 192 157 185 q 172 207 167 200 q 183 219 178 214 q 192 233 189 225 q 211 257 203 244 q 228 282 219 269 q 231 288 229 285 q 236 293 233 290 q 246 306 240 297 q 249 313 249 308 q 253 321 250 317 q 248 335 250 328 q 240 347 246 342 q 224 367 231 357 q 210 388 218 378 q 197 409 203 399 q 181 429 190 419 q 169 444 174 436 q 160 460 165 451 q 144 483 153 472 q 129 508 136 494 q 127 511 128 510 q 124 514 126 513 q 101 544 110 528 q 81 575 92 560 q 66 597 72 586 q 53 618 60 607 q 54 619 54 618 q 56 619 54 619 q 84 621 64 621 q 127 621 104 621 q 170 621 150 621 q 199 619 190 621 q 220 589 210 604 q 239 556 231 574 q 251 538 244 546 q 261 519 257 529 q 272 499 267 508 q 282 479 276 490 q 290 464 286 472 q 300 449 294 456 q 306 442 303 446 q 313 436 310 439 q 332 410 322 426 q 346 404 338 403 q 358 415 350 407 q 367 428 363 422 q 378 442 371 435 q 386 453 382 447 q 394 465 390 458 q 405 483 400 474 q 415 499 410 492 q 439 539 431 518 q 449 558 443 550 q 461 574 456 565 l 482 607 q 486 613 482 608 q 511 613 496 613 q 544 614 526 614 q 578 614 561 614 q 607 613 594 614 q 617 603 615 610 q 607 590 614 596 q 597 578 600 585 q 589 565 594 571 q 578 553 583 560 q 558 519 571 535 q 535 483 546 503 q 515 458 524 472 q 497 431 507 444 q 479 403 488 417 q 461 376 471 390 q 452 363 456 369 q 443 350 449 357 q 422 325 432 335 l 422 313 q 433 300 428 306 q 443 288 439 294 q 451 276 446 281 q 461 264 456 271 q 467 253 465 260 q 475 243 469 247 q 484 234 481 239 q 490 224 488 229 q 500 213 492 218 q 510 202 506 207 q 517 194 514 197 q 524 185 522 186 q 545 145 532 164 q 569 107 558 126 q 576 99 572 103 q 583 90 581 96 q 600 67 590 78 q 617 43 610 57 q 625 33 622 39 q 631 22 628 28 q 638 14 635 18 q 646 6 642 10 q 642 3 643 4 q 640 1 642 1 q 605 1 622 1 q 569 0 588 1 q 563 -3 567 -1 q 551 -7 558 -4 l 517 -7 q 501 -6 510 -7 q 485 -10 493 -6 q 478 -25 479 -17 q 472 -18 474 -22 q 467 -8 469 -14 q 466 7 467 -1 q 465 24 465 15 q 463 28 464 26 q 460 32 461 29 q 447 52 453 42 q 431 69 440 63 q 417 90 424 81 q 403 111 410 100 q 399 119 400 115 q 393 128 397 124 q 385 131 390 131 q 378 128 381 131 q 374 123 375 125 q 371 118 374 121 q 349 64 360 99 z "},"Y":{"ha":588,"x_min":3,"x_max":582,"o":"m 11 638 q 39 640 21 639 q 76 640 57 640 q 115 640 96 640 q 146 639 133 639 q 153 635 151 636 q 166 615 160 625 q 178 594 172 606 q 188 575 183 585 q 200 557 192 565 q 217 526 207 540 q 235 494 228 511 q 249 472 242 482 q 256 463 253 468 q 261 450 258 457 q 280 411 271 431 q 300 372 289 392 q 310 378 307 374 q 317 386 314 382 q 331 413 324 397 q 342 435 336 424 q 356 456 347 446 q 364 467 358 463 q 374 479 369 472 q 385 498 381 488 q 396 517 389 508 q 402 525 400 519 q 407 535 404 531 q 425 572 417 554 q 443 610 433 590 q 449 619 446 615 q 454 629 451 624 q 465 632 463 632 l 526 632 q 538 633 532 632 q 551 636 543 635 q 565 632 554 635 q 579 629 575 632 q 581 625 579 626 q 581 622 582 624 q 563 586 572 604 q 552 568 558 576 q 540 550 546 560 q 538 547 539 547 q 535 544 536 546 q 526 526 531 535 q 517 508 521 518 q 506 492 513 499 q 496 475 499 485 q 495 454 496 464 q 494 435 494 444 q 490 424 492 429 q 485 414 488 419 q 477 407 481 411 q 469 399 474 403 q 456 385 463 392 q 444 372 450 379 q 433 358 438 365 q 424 342 429 350 q 422 331 422 336 q 421 318 422 325 q 418 311 419 315 q 415 303 417 307 l 415 247 q 412 240 413 243 q 408 232 411 236 q 407 205 407 218 q 407 178 407 192 l 407 124 q 410 115 410 119 q 414 104 411 111 l 414 74 q 421 57 419 63 q 421 39 422 47 q 410 31 417 31 q 401 46 407 35 q 400 58 400 53 q 399 71 400 64 q 397 78 397 74 q 393 85 396 82 q 393 103 393 94 q 392 121 393 111 q 386 131 392 125 q 383 132 385 132 q 379 128 379 132 q 378 117 378 125 l 378 31 q 382 26 378 29 q 383 17 386 22 q 381 14 381 14 q 367 9 374 11 q 353 4 360 7 q 342 8 347 7 q 332 11 338 8 q 329 6 331 8 q 328 0 328 3 q 327 -22 326 -11 q 328 -44 328 -33 q 319 -62 324 -51 l 319 -278 q 316 -287 317 -283 q 313 -297 315 -292 l 313 -379 q 308 -393 310 -386 q 303 -407 306 -400 l 300 -407 q 292 -393 297 -401 q 292 -381 289 -386 q 297 -369 294 -375 l 297 -360 l 297 -254 l 297 -224 q 301 -215 300 -218 q 304 -207 303 -211 l 304 -128 q 299 -112 301 -119 q 298 -57 296 -85 q 297 0 300 -29 q 292 3 294 1 q 288 4 290 4 l 243 4 q 234 5 239 4 q 225 6 229 6 q 218 11 224 6 l 218 39 l 218 236 q 217 251 218 243 q 217 265 217 258 q 207 272 217 271 q 201 264 203 269 q 193 256 200 258 q 187 269 188 263 q 181 282 186 275 l 181 332 q 175 344 178 339 q 169 356 172 349 q 160 368 163 360 q 150 381 157 376 q 139 375 142 381 q 132 367 136 369 q 129 301 129 342 q 131 181 129 261 q 133 174 132 178 q 138 164 135 169 l 138 125 q 135 118 138 124 q 125 111 132 110 q 123 121 122 115 q 122 132 124 126 q 119 140 121 136 q 115 151 118 144 l 115 186 q 112 194 113 190 q 108 204 111 199 l 108 236 q 104 245 106 242 q 101 254 103 249 l 101 288 q 97 295 99 292 q 94 303 96 299 q 93 320 93 311 q 93 339 93 329 q 90 347 90 343 q 86 357 89 351 l 86 389 q 83 397 85 393 q 79 407 82 401 l 79 442 q 85 456 82 449 q 93 472 89 464 q 92 482 93 479 q 71 517 78 500 q 63 528 68 524 q 56 540 58 533 q 43 558 49 549 q 33 578 38 568 q 21 600 26 589 q 7 622 15 611 q 11 638 3 626 m 371 188 l 371 160 q 372 149 371 153 q 378 146 374 146 q 383 149 383 146 q 385 172 386 160 q 385 194 385 183 q 381 202 382 199 q 378 210 381 206 l 378 226 l 378 238 q 372 242 375 242 q 369 240 371 240 q 367 237 368 238 q 365 233 367 236 q 363 210 363 222 q 371 188 364 199 z "},"Z":{"ha":574,"x_min":28,"x_max":549,"o":"m 411 404 q 407 403 410 403 q 403 397 404 400 q 381 361 393 378 q 358 326 369 344 q 342 301 350 314 q 326 274 333 289 q 320 265 324 269 q 314 257 317 261 q 303 242 311 247 q 292 228 296 236 q 283 214 289 219 q 271 201 278 208 q 263 184 267 193 q 254 167 258 175 l 254 133 q 260 124 254 129 q 306 122 283 121 q 350 122 328 122 l 442 122 q 488 123 465 122 q 532 121 510 124 q 538 115 536 119 q 539 104 539 113 l 539 72 q 544 35 549 54 q 541 23 543 29 q 536 10 539 17 q 529 7 531 7 q 513 6 521 6 q 497 6 504 6 l 332 6 l 301 6 q 290 1 294 3 q 279 -1 285 0 q 270 -2 275 -3 q 261 -1 265 -1 q 254 -3 257 -3 q 249 -8 251 -4 q 247 -47 247 -19 q 246 -110 246 -75 q 247 -181 246 -144 q 247 -249 247 -218 q 250 -257 249 -253 q 254 -267 251 -261 q 255 -290 254 -278 q 253 -317 256 -303 q 243 -321 250 -322 q 238 -308 240 -314 q 232 -293 235 -301 l 232 -172 q 225 -156 231 -167 q 224 -119 224 -137 q 225 -81 225 -100 q 225 -44 225 -62 q 224 -8 225 -26 l 218 -3 q 189 -1 203 -1 q 160 -1 175 -1 q 155 -4 157 -4 q 150 -7 153 -4 q 132 -7 140 -11 q 127 -5 129 -6 q 122 -3 125 -4 l 94 -3 q 79 -8 86 -6 q 32 -7 54 -11 q 29 -2 31 -4 q 28 3 28 0 l 28 78 q 42 103 33 93 q 57 125 50 114 q 67 138 64 132 q 76 151 71 144 q 88 169 83 160 q 101 186 93 179 q 112 199 108 192 q 121 214 115 207 q 128 226 125 219 q 136 239 132 232 q 137 244 136 242 q 138 249 138 246 l 138 332 q 134 340 135 336 q 131 350 133 344 l 131 397 q 122 431 122 414 q 101 457 107 447 q 97 462 99 460 q 93 465 96 464 q 61 499 75 476 q 56 506 60 503 q 50 514 53 510 l 50 532 l 50 613 q 56 625 50 621 q 110 626 67 625 q 206 626 153 626 q 313 626 260 626 q 399 625 367 626 q 417 619 410 622 l 503 619 q 508 615 506 617 q 511 613 510 614 q 515 606 513 613 q 517 583 518 594 q 517 561 517 572 q 503 535 511 547 q 485 510 494 522 q 465 475 472 497 q 463 467 464 471 q 458 456 461 463 l 458 424 q 455 415 456 419 q 451 407 454 411 q 451 391 451 400 q 450 372 451 382 q 444 354 447 361 l 444 322 q 440 314 442 318 q 436 303 439 310 l 436 269 q 433 262 435 265 q 429 254 432 258 l 429 219 q 419 192 424 207 q 417 195 418 194 q 415 197 415 196 l 415 229 q 415 310 414 269 q 414 390 415 350 q 414 397 414 393 q 411 404 414 401 m 167 333 l 167 306 q 168 299 167 300 q 172 293 168 293 q 178 294 174 290 q 191 314 185 304 q 206 332 197 324 q 225 364 217 344 l 225 444 q 219 457 219 450 q 217 471 218 464 q 206 485 217 481 q 202 482 204 483 q 199 478 200 481 q 192 461 196 469 q 189 443 189 453 q 185 433 188 438 q 182 422 183 428 q 181 410 181 415 q 179 397 181 404 q 174 383 179 394 l 174 350 q 170 341 171 344 q 167 333 169 338 z "},"a":{"ha":590,"x_min":-6,"x_max":596,"o":"m 532 186 q 535 173 535 179 q 538 160 535 167 q 546 136 543 149 q 556 113 549 124 q 563 90 561 101 q 572 69 565 79 q 574 66 574 67 q 576 63 575 65 q 581 47 579 54 q 585 31 582 39 q 591 18 588 24 q 596 4 594 13 q 592 3 593 4 q 589 1 590 1 l 524 1 q 501 6 511 1 q 490 3 500 6 q 475 7 486 4 q 465 2 468 7 q 456 -1 463 -3 q 452 13 453 6 q 449 26 451 19 q 444 40 446 33 q 439 53 442 46 l 414 132 q 397 140 406 140 q 377 132 386 138 q 358 122 368 126 q 349 106 354 117 q 346 103 347 104 q 343 101 344 103 q 340 100 342 100 q 335 111 336 106 q 331 124 333 117 q 306 149 322 140 q 299 151 303 150 q 293 154 296 153 l 257 154 q 233 132 243 149 q 229 119 231 125 q 225 107 228 114 q 219 83 219 97 q 217 69 219 78 q 215 64 215 67 q 213 58 214 61 l 213 4 q 209 -4 210 0 q 206 -14 208 -8 l 206 -92 q 211 -107 208 -100 q 211 -121 214 -114 q 201 -135 211 -126 q 190 -124 194 -133 l 190 -72 q 194 -65 193 -69 q 197 -56 194 -60 l 197 44 q 194 53 194 49 q 192 60 193 57 q 190 87 189 74 q 189 114 192 100 q 178 124 181 124 q 165 122 175 125 q 163 119 163 122 q 160 103 161 111 q 154 89 158 96 q 153 83 153 86 q 151 78 153 81 q 142 54 144 67 q 132 31 139 42 q 122 14 128 22 q 113 11 117 8 q 103 15 108 14 q 96 13 100 14 q 86 8 92 11 q 42 8 64 8 q -3 10 19 8 q -6 18 -6 18 q 1 37 -3 28 q 8 56 6 46 q 11 67 8 61 q 21 89 18 78 q 29 111 24 100 l 29 135 q 22 144 25 140 q 15 153 18 149 q 15 181 14 168 q 15 207 15 194 q 19 212 18 210 q 22 217 21 214 q 33 222 28 219 q 42 226 38 224 q 51 228 47 228 q 60 229 56 228 q 71 238 69 232 q 85 261 78 250 q 99 285 93 272 q 103 301 101 293 q 110 315 104 308 q 117 331 115 322 q 121 346 118 339 q 128 367 125 357 q 139 386 132 376 q 139 401 139 393 q 140 415 139 408 q 149 442 144 429 q 160 467 154 454 q 167 490 164 478 q 175 514 171 503 q 176 519 176 517 q 178 525 176 522 q 192 558 188 540 q 204 592 197 575 q 206 601 206 596 q 210 610 207 606 q 215 623 213 617 q 224 635 218 629 q 274 638 242 638 q 351 636 307 638 q 365 625 358 635 q 368 617 367 621 q 371 611 369 614 q 379 590 374 600 q 388 567 385 579 q 396 545 390 556 q 404 524 401 535 q 422 480 415 503 q 438 435 428 457 q 444 416 439 424 q 451 399 449 408 q 457 378 454 388 q 464 360 460 369 q 477 327 472 344 q 489 292 482 310 q 490 287 490 289 q 492 282 490 285 q 501 263 497 272 q 507 244 504 254 q 515 226 511 235 q 522 208 519 218 q 527 197 525 201 q 532 186 529 192 m 271 397 q 265 381 267 388 q 260 367 263 374 q 257 354 257 360 q 254 342 257 349 q 250 328 251 335 q 247 314 249 321 q 236 292 243 303 q 246 279 231 279 q 253 280 249 279 q 260 281 257 281 q 266 283 263 282 q 274 286 269 285 l 317 286 q 322 288 319 286 q 326 290 324 289 q 325 322 332 306 q 319 339 322 331 q 315 357 315 347 q 313 375 315 367 q 307 392 310 383 q 303 402 306 397 q 300 413 301 407 q 296 432 300 424 q 289 450 292 440 q 286 451 288 451 q 283 453 285 451 q 276 444 279 449 q 271 433 274 439 l 271 397 m 464 -90 q 467 -96 467 -93 q 469 -117 468 -107 q 467 -139 469 -128 q 464 -140 465 -140 q 460 -124 461 -129 q 461 -96 460 -119 q 463 -92 461 -93 q 464 -90 464 -92 m 38 -156 q 36 -174 38 -167 q 32 -176 36 -181 q 31 -174 31 -174 l 31 -137 q 35 -135 31 -131 q 35 -136 35 -136 q 36 -137 36 -136 q 37 -147 36 -142 q 38 -156 38 -151 m 486 -293 q 485 -291 486 -292 q 483 -289 483 -290 q 486 -281 481 -281 q 488 -282 488 -281 q 489 -292 489 -285 q 486 -293 488 -293 z "},"b":{"ha":565,"x_min":32,"x_max":533,"o":"m 336 -115 q 331 -127 333 -122 q 329 -137 329 -132 l 329 -196 q 328 -201 329 -199 q 328 -206 328 -203 q 317 -199 319 -207 q 315 -187 315 -193 q 315 -176 315 -182 q 318 -168 317 -172 q 322 -157 319 -164 l 322 -104 q 328 -83 328 -89 q 328 -62 329 -78 q 322 -54 324 -56 q 317 -49 319 -51 q 313 -44 315 -47 l 304 -44 q 288 -60 293 -51 q 279 -79 283 -68 q 275 -90 276 -85 q 271 -106 274 -96 l 271 -190 l 271 -250 q 267 -258 271 -258 q 258 -251 261 -257 q 250 -233 253 -240 l 250 -211 q 253 -204 251 -208 q 256 -194 254 -200 q 257 -181 257 -187 q 257 -167 257 -174 q 260 -160 260 -164 q 264 -151 261 -156 l 264 -29 q 254 -10 263 -21 q 247 -7 249 -7 q 218 -7 232 -6 q 212 -16 214 -11 q 206 -26 210 -21 l 206 -71 q 202 -78 203 -74 q 199 -87 201 -82 l 199 -122 q 202 -130 201 -126 q 206 -137 203 -133 l 206 -201 q 202 -210 203 -206 q 199 -221 201 -214 l 199 -349 q 194 -356 196 -353 q 190 -365 193 -360 l 190 -501 q 182 -521 185 -515 q 169 -521 172 -524 q 163 -512 168 -518 l 163 -474 q 165 -467 164 -471 q 168 -458 165 -462 q 169 -437 171 -447 q 175 -417 168 -426 q 176 -402 176 -410 q 176 -387 176 -394 q 180 -379 179 -383 q 183 -369 181 -375 l 183 -276 q 180 -269 181 -272 q 176 -260 179 -265 l 176 -212 q 173 -204 174 -208 q 169 -196 172 -200 l 169 -149 q 165 -137 167 -142 q 163 -126 164 -132 q 161 -108 161 -119 q 146 -96 157 -94 q 138 -103 140 -99 q 133 -114 136 -108 q 132 -132 133 -125 q 129 -138 131 -135 q 125 -146 128 -142 l 125 -207 l 125 -339 q 122 -353 125 -349 q 117 -354 121 -354 q 106 -346 108 -354 q 104 -335 104 -342 q 103 -306 103 -319 q 103 -278 103 -292 q 106 -270 106 -274 q 110 -261 107 -267 l 110 -207 q 114 -196 113 -200 q 118 -186 115 -192 l 118 -118 q 125 -101 119 -112 q 126 -83 126 -92 q 132 -67 125 -74 q 132 3 135 -31 q 130 6 131 6 q 128 10 129 7 q 108 14 119 18 q 100 10 104 13 q 93 7 96 8 q 89 -8 89 1 l 89 -107 l 89 -142 q 83 -157 86 -150 q 78 -171 81 -164 q 75 -172 76 -171 q 71 -172 74 -172 q 63 -165 68 -171 q 60 -148 60 -157 q 53 -131 60 -139 l 53 -94 q 56 -87 54 -92 q 58 -79 57 -83 q 60 -62 60 -71 q 60 -44 60 -54 q 65 -28 65 -33 q 67 -17 67 -22 q 67 -6 67 -11 q 64 4 67 -1 q 58 8 61 7 q 50 11 54 8 q 46 18 46 14 q 43 26 46 22 q 32 36 39 29 l 32 54 q 37 59 35 57 q 42 64 39 61 q 44 71 44 67 l 44 103 l 44 519 l 44 556 q 48 563 47 558 q 51 569 49 567 q 52 603 54 586 q 53 638 50 621 q 60 643 57 642 q 65 644 63 643 q 71 644 68 644 q 183 644 128 644 q 296 643 239 644 l 301 643 q 308 641 304 642 q 315 638 311 640 l 356 638 q 377 629 367 633 q 399 622 388 625 q 413 617 406 619 q 428 608 421 614 q 441 599 435 601 q 454 589 447 596 q 476 563 467 576 q 496 529 485 550 q 497 509 499 519 q 503 488 496 499 q 500 481 501 485 q 499 474 499 476 q 497 457 497 465 q 492 442 497 449 q 490 429 490 435 q 489 417 490 424 q 484 406 486 411 q 479 396 482 401 q 463 379 472 388 q 446 364 454 371 q 436 358 442 360 q 428 351 431 356 q 428 342 426 346 q 443 333 435 335 q 460 326 451 331 q 475 319 468 324 q 492 311 482 315 q 510 292 496 306 q 516 279 513 286 q 522 265 519 272 q 528 249 525 257 q 533 233 531 242 l 533 208 q 530 198 532 203 q 528 188 528 193 q 526 172 526 179 q 521 156 525 164 q 519 148 518 153 q 518 139 519 143 q 510 126 514 132 q 503 114 507 121 q 494 104 499 108 q 485 94 490 100 q 474 85 479 90 q 465 76 469 81 q 462 64 463 69 q 458 54 461 58 q 453 44 456 49 q 449 35 451 39 q 447 -6 458 14 l 447 -68 q 443 -79 444 -75 q 439 -89 442 -83 l 439 -158 q 435 -167 436 -164 q 432 -174 435 -171 l 432 -237 q 438 -251 435 -244 q 439 -264 440 -257 q 440 -278 438 -271 q 446 -292 443 -285 l 446 -371 q 440 -385 443 -376 q 440 -390 440 -387 q 439 -396 439 -393 l 439 -429 q 433 -433 439 -433 q 431 -431 433 -433 q 425 -418 425 -426 l 425 -365 q 428 -358 426 -362 q 432 -349 429 -354 l 432 -293 q 427 -278 429 -286 q 422 -264 425 -271 q 413 -253 418 -258 q 400 -249 408 -249 q 394 -258 396 -253 q 388 -267 392 -262 l 388 -411 q 385 -422 386 -418 q 382 -431 383 -426 q 380 -440 379 -435 q 378 -449 381 -444 q 367 -442 371 -446 q 360 -432 364 -439 q 358 -414 357 -424 q 358 -396 360 -404 q 363 -386 361 -390 q 365 -376 364 -382 l 365 -315 q 358 -294 364 -308 q 362 -286 361 -290 q 365 -275 363 -282 l 365 -204 q 373 -190 369 -197 q 381 -172 376 -182 l 381 -117 q 384 -109 383 -112 q 388 -101 385 -106 q 388 -57 389 -79 q 388 -11 388 -35 l 388 -4 q 381 11 382 3 q 378 26 381 19 q 367 31 372 31 q 357 29 363 31 q 352 26 354 28 q 347 24 350 25 q 342 8 344 15 q 336 -10 339 0 l 336 -115 m 181 289 q 176 267 176 281 q 178 219 175 254 q 181 213 179 215 q 183 207 182 210 q 183 174 185 190 q 185 143 182 158 q 190 138 188 140 q 196 133 193 136 q 235 133 218 131 q 244 138 240 136 q 251 140 249 139 q 275 134 269 135 q 296 135 281 133 q 327 149 311 142 q 358 165 343 157 q 373 180 365 172 q 388 197 381 188 q 388 236 389 218 q 383 243 385 242 q 375 253 379 249 q 368 260 371 257 q 341 269 353 265 q 315 272 329 274 q 307 274 311 272 q 297 279 303 276 l 222 279 q 210 283 215 282 q 201 286 206 285 q 181 289 188 289 m 279 381 l 317 381 q 326 381 322 381 q 336 385 331 382 q 353 401 344 392 q 371 418 363 410 q 376 430 374 425 q 381 439 378 435 l 381 468 q 377 475 378 471 q 375 482 376 479 q 372 491 372 486 q 367 500 372 496 q 353 509 360 504 q 338 519 346 514 l 324 519 l 307 519 q 299 516 303 517 q 292 513 296 515 l 249 513 l 217 513 q 199 499 206 513 q 199 462 197 481 q 197 425 200 443 q 193 414 194 417 q 194 404 190 407 q 203 397 200 399 q 219 395 211 394 q 235 392 228 396 q 251 388 242 388 q 267 386 260 389 q 272 385 269 386 q 279 381 275 383 m 436 -615 q 433 -612 433 -612 q 425 -587 429 -603 l 425 -472 q 428 -462 425 -468 q 431 -461 428 -461 q 436 -464 436 -458 q 439 -469 439 -467 l 439 -612 l 436 -615 z "},"c":{"ha":563,"x_min":36,"x_max":525,"o":"m 489 517 q 472 517 481 517 q 457 521 464 517 q 443 524 450 525 q 429 528 436 524 q 415 531 422 532 q 399 533 407 531 q 386 538 394 535 l 338 538 q 322 533 331 535 q 306 528 314 531 q 268 513 285 522 q 235 492 251 503 q 226 483 228 488 l 206 454 q 201 446 203 450 q 199 438 199 442 q 192 422 196 429 q 189 406 189 415 q 188 395 190 400 q 182 383 185 390 l 182 324 l 182 265 q 189 248 185 256 q 190 232 193 240 q 203 206 197 218 q 218 182 210 193 q 250 150 231 163 q 274 136 261 143 q 299 124 286 129 q 313 122 306 121 q 325 115 319 122 q 377 115 351 114 q 428 115 403 115 q 436 119 432 117 q 446 121 440 121 q 462 124 454 122 q 476 129 469 126 q 490 135 483 132 q 504 140 497 138 q 514 143 510 143 q 525 136 522 146 l 525 129 l 525 88 q 519 72 522 81 q 518 48 517 60 q 517 25 519 36 q 493 13 507 15 q 481 8 486 11 q 471 3 476 6 q 462 -15 464 -4 q 457 -36 460 -25 q 450 -28 454 -32 q 444 -25 447 -25 q 440 -28 442 -25 q 430 -51 438 -42 q 415 -72 422 -61 q 413 -76 414 -75 q 410 -81 411 -78 q 408 -94 408 -87 q 408 -107 408 -100 l 408 -125 q 406 -133 407 -129 q 403 -142 404 -137 q 413 -161 408 -156 q 417 -169 415 -165 q 422 -175 419 -172 q 423 -179 422 -178 q 422 -183 424 -181 q 417 -199 419 -190 q 415 -215 414 -207 q 414 -226 417 -221 q 408 -237 411 -231 l 408 -278 q 415 -293 410 -282 q 416 -335 415 -304 q 417 -399 417 -365 q 416 -462 417 -433 q 415 -497 415 -492 q 414 -500 414 -500 q 411 -503 411 -503 q 403 -499 403 -506 q 401 -478 401 -492 l 401 -294 l 401 -260 q 395 -240 396 -246 q 393 -212 394 -235 q 390 -206 392 -210 q 388 -199 389 -201 q 387 -193 388 -196 q 386 -187 386 -190 l 386 -35 q 386 -28 386 -32 q 383 -21 386 -24 q 378 -18 382 -18 q 367 -26 371 -19 q 362 -41 364 -33 q 357 -57 360 -49 l 357 -203 q 354 -212 356 -208 q 350 -222 353 -217 l 350 -257 q 353 -263 351 -260 q 357 -272 354 -267 q 357 -353 360 -312 q 343 -365 350 -365 q 338 -366 340 -367 q 332 -365 335 -365 q 336 -336 336 -349 q 335 -285 335 -310 q 336 -233 336 -260 q 335 -226 336 -231 q 335 -219 335 -222 q 330 -215 332 -217 q 325 -210 328 -212 q 332 -204 328 -207 q 339 -199 336 -201 q 342 -193 340 -196 q 343 -187 343 -190 l 343 -50 q 340 -42 343 -47 q 332 -31 338 -35 q 322 -21 326 -26 q 312 -15 317 -18 q 301 -10 307 -12 q 288 -9 294 -10 q 275 -8 282 -8 q 251 3 264 -1 q 226 11 239 7 q 219 13 224 14 q 211 14 215 13 q 187 25 199 19 q 164 40 175 31 q 152 47 157 43 q 142 57 147 51 q 117 82 129 69 q 92 106 104 94 q 72 144 82 125 q 53 183 63 164 q 51 197 50 190 q 47 210 51 203 q 43 226 43 215 q 36 253 46 242 l 36 338 q 38 342 38 342 q 43 357 39 350 q 43 370 43 364 q 44 383 43 376 q 49 397 47 390 q 51 410 51 403 q 56 424 51 415 q 60 438 58 431 q 65 454 63 446 q 70 467 68 461 q 78 481 72 474 q 88 497 85 488 q 99 517 92 506 q 129 548 114 532 q 161 579 144 564 q 176 591 168 586 q 190 601 183 596 q 258 626 217 618 q 270 630 265 628 q 282 633 275 632 q 306 640 297 636 l 429 640 q 436 638 432 639 q 446 633 440 636 l 474 633 q 496 626 485 628 q 517 613 507 624 q 519 583 519 597 q 518 553 518 568 q 511 539 514 546 q 496 524 507 528 q 489 517 490 521 m 410 -635 q 409 -601 408 -607 q 413 -590 410 -596 q 416 -598 417 -593 q 417 -607 415 -603 q 420 -615 418 -611 q 422 -624 422 -619 q 429 -651 424 -636 q 429 -667 432 -658 q 425 -669 429 -672 q 422 -668 422 -668 q 417 -658 418 -665 q 413 -647 414 -653 q 410 -635 413 -642 m 411 -531 q 417 -544 418 -537 q 415 -558 415 -551 q 410 -560 413 -560 q 406 -562 408 -561 q 403 -558 406 -561 q 403 -533 399 -546 q 411 -531 406 -528 m 457 -181 q 456 -203 465 -193 q 457 -181 449 -189 m 489 517 q 493 513 493 517 q 490 514 490 513 q 489 517 489 514 z "},"d":{"ha":611,"x_min":29,"x_max":582,"o":"m 374 -110 q 356 -121 363 -108 l 356 -157 q 352 -165 353 -161 q 349 -175 351 -169 l 349 -222 q 345 -229 346 -225 q 342 -239 344 -233 q 340 -260 340 -250 q 340 -282 340 -271 q 336 -286 340 -286 q 332 -285 333 -286 q 325 -274 326 -281 q 319 -264 324 -268 l 319 -240 l 319 -219 q 313 -201 314 -208 l 313 -160 q 315 -153 314 -157 q 318 -143 315 -149 l 318 -81 l 318 -76 q 315 -71 317 -74 q 313 -65 314 -68 q 312 -50 313 -58 q 311 -32 311 -42 q 306 -27 308 -29 q 301 -22 304 -25 q 267 -21 285 -18 q 259 -30 261 -25 q 254 -42 257 -35 l 254 -92 q 259 -105 256 -99 q 260 -119 263 -111 q 257 -125 260 -122 q 254 -126 257 -126 q 249 -125 249 -129 q 242 -102 246 -112 q 236 -81 239 -92 q 226 -68 231 -74 q 214 -60 221 -62 q 206 -62 210 -60 q 197 -67 201 -64 q 196 -72 197 -69 q 194 -76 194 -74 l 194 -157 q 199 -165 197 -161 q 203 -176 200 -169 q 201 -197 201 -186 q 201 -218 201 -207 l 199 -221 q 188 -210 192 -221 l 188 -128 l 188 -49 q 183 -33 186 -39 q 181 -19 179 -26 q 177 -6 181 -12 q 169 7 174 0 q 155 10 158 10 q 140 7 151 10 q 136 -3 138 1 q 135 -14 136 -10 q 129 -28 132 -22 l 129 -100 q 133 -106 132 -103 q 136 -115 133 -110 l 136 -179 q 143 -194 139 -186 q 151 -211 147 -201 l 151 -281 q 154 -288 153 -285 q 157 -297 156 -292 l 157 -333 q 151 -358 151 -344 q 157 -385 150 -371 q 157 -446 160 -414 q 153 -450 154 -449 q 150 -454 153 -451 q 140 -456 146 -458 q 136 -442 136 -451 l 136 -431 q 133 -422 133 -426 q 129 -411 132 -418 l 129 -276 q 124 -265 126 -269 q 117 -257 122 -260 q 100 -275 106 -264 q 93 -293 94 -283 q 86 -311 92 -303 l 86 -347 q 88 -353 88 -350 q 92 -362 89 -357 q 92 -373 92 -368 q 93 -383 93 -378 q 92 -467 92 -425 q 92 -551 92 -510 q 88 -556 92 -556 q 86 -553 86 -554 q 85 -545 86 -549 q 85 -537 85 -542 l 85 -487 l 85 -460 q 82 -453 83 -457 q 78 -442 81 -449 l 78 -387 q 74 -378 75 -382 q 71 -369 74 -374 l 71 -315 q 76 -301 72 -308 q 78 -286 79 -294 q 85 -262 78 -271 q 85 -211 86 -236 q 85 -161 85 -186 q 82 -151 83 -156 q 78 -142 81 -147 l 78 -72 q 74 -63 75 -67 q 71 -56 74 -60 l 71 -17 q 61 13 67 -3 q 56 16 58 14 q 51 21 54 18 q 49 38 49 29 q 47 54 50 46 q 42 68 44 63 l 42 103 q 45 111 44 107 q 49 121 46 115 l 49 183 q 46 190 47 186 q 42 200 44 194 l 42 254 q 39 263 40 258 q 35 272 38 267 l 35 300 l 35 581 q 34 601 33 592 q 29 619 35 610 q 48 623 39 624 q 71 626 57 622 q 71 626 68 625 q 78 629 74 628 l 128 629 q 136 626 132 628 q 146 624 140 625 l 274 624 l 286 628 q 307 628 297 632 q 319 624 314 625 q 332 622 325 622 q 350 618 342 622 q 364 615 357 615 q 378 613 371 615 q 397 605 388 608 q 414 597 406 601 q 440 586 429 594 q 461 571 450 578 q 478 560 469 565 q 493 547 486 554 q 502 538 497 542 q 511 529 507 533 q 517 520 514 525 q 522 510 519 515 q 540 485 532 497 q 554 457 549 472 q 563 438 558 447 q 567 417 567 428 q 567 413 568 414 q 568 410 567 411 q 574 390 575 400 q 575 368 574 379 q 578 361 576 365 q 581 353 579 357 q 582 331 582 342 q 575 310 582 321 l 575 285 q 575 263 574 275 q 572 253 575 257 q 568 243 568 249 q 560 213 567 226 q 551 183 554 199 q 542 164 550 175 q 533 152 536 158 q 525 140 531 146 q 518 129 521 135 q 511 118 515 124 q 500 106 506 111 q 489 94 494 101 q 483 90 486 92 q 478 85 479 88 q 467 63 471 72 q 469 53 465 57 q 475 47 472 50 q 488 40 479 46 q 493 28 496 35 q 492 23 493 25 q 490 19 490 21 q 481 19 485 18 q 475 22 478 21 q 453 14 461 26 l 451 13 l 451 10 l 451 -26 q 453 -33 453 -29 q 457 -43 454 -37 l 457 -76 q 460 -83 460 -79 q 464 -93 461 -87 q 465 -120 464 -106 q 464 -151 465 -135 q 460 -161 464 -156 q 457 -175 457 -167 q 447 -185 454 -182 q 438 -175 439 -183 q 433 -162 435 -168 q 428 -147 431 -157 q 428 -89 428 -119 q 428 -28 429 -58 q 426 -6 428 -12 q 422 1 426 -3 l 397 1 q 388 -7 393 -1 q 385 -13 386 -10 q 384 -23 385 -17 q 384 -40 383 -29 q 385 -71 385 -51 q 390 -84 388 -78 q 392 -97 393 -90 q 393 -110 390 -104 q 399 -124 396 -117 l 399 -185 q 403 -193 401 -189 q 407 -203 404 -197 l 407 -250 q 410 -261 410 -257 q 414 -271 411 -265 q 415 -317 414 -294 q 413 -365 415 -340 q 403 -369 407 -368 q 398 -365 400 -367 q 394 -360 396 -362 q 393 -357 393 -358 l 393 -356 q 392 -353 393 -354 q 392 -351 392 -353 l 392 -344 l 392 -156 q 386 -140 389 -147 q 383 -122 383 -132 q 374 -110 383 -115 m 165 381 l 165 201 q 162 191 163 196 q 158 182 161 186 q 158 153 158 167 q 160 125 157 139 q 167 115 161 121 q 181 110 174 113 q 196 106 189 108 l 224 106 q 233 108 229 107 q 240 111 236 110 l 297 111 q 307 119 303 115 q 315 125 311 122 q 335 135 329 131 q 357 149 346 142 q 378 167 368 156 q 403 192 390 181 q 417 226 413 208 q 428 258 421 243 l 428 344 q 422 361 425 350 q 421 380 421 371 q 421 397 421 389 q 406 422 414 411 q 392 444 399 433 q 381 447 386 446 q 371 450 376 449 q 353 467 358 463 q 344 469 349 469 q 338 471 340 469 q 328 477 333 474 q 319 483 324 481 q 310 483 315 483 q 301 485 306 483 q 290 488 296 486 q 278 492 285 489 l 232 492 q 220 497 225 494 q 208 499 215 499 l 190 499 q 174 485 179 497 q 173 440 172 463 q 172 396 174 418 q 169 388 169 392 q 165 381 168 385 m 344 -536 q 333 -524 336 -532 q 326 -510 331 -517 q 326 -459 326 -485 q 325 -411 325 -433 q 326 -372 325 -389 q 328 -347 326 -354 q 331 -346 328 -346 q 333 -356 333 -350 q 333 -367 332 -361 q 336 -375 335 -371 q 340 -386 338 -379 q 340 -401 340 -393 q 342 -419 340 -410 q 347 -433 343 -426 q 349 -447 350 -440 q 349 -460 347 -454 q 354 -472 351 -465 q 354 -525 357 -497 q 350 -532 351 -531 q 347 -534 349 -533 q 344 -536 346 -535 m 267 -257 l 257 -267 q 249 -265 254 -265 q 247 -255 247 -260 q 245 -243 246 -250 q 245 -224 244 -236 q 246 -189 246 -211 q 256 -162 251 -179 q 258 -164 258 -164 q 260 -178 261 -171 q 261 -194 260 -186 q 264 -201 263 -197 q 268 -211 265 -206 q 268 -234 268 -222 q 267 -257 268 -246 m 82 -629 q 79 -626 79 -626 q 77 -601 76 -614 q 79 -574 78 -587 q 89 -569 81 -569 q 92 -579 92 -575 q 92 -594 93 -586 q 92 -610 92 -603 q 82 -629 90 -621 z "},"e":{"ha":572,"x_min":35,"x_max":539,"o":"m 311 381 q 336 374 325 374 l 417 374 q 435 372 428 374 q 437 371 436 372 q 440 368 438 369 q 442 316 442 349 q 440 263 442 283 q 437 260 438 261 q 435 258 436 258 q 423 258 428 258 q 413 257 418 257 l 226 257 q 215 257 221 257 q 204 254 210 257 q 201 244 201 249 q 200 219 200 232 q 200 196 200 207 q 196 184 197 189 q 193 174 194 179 q 207 149 190 156 q 253 148 231 147 q 301 147 276 149 q 308 144 304 146 q 318 140 313 143 l 350 140 q 357 138 353 139 q 364 136 361 138 q 371 134 367 135 q 378 132 375 133 l 390 115 q 400 112 396 113 q 408 111 404 111 q 422 109 415 111 q 435 104 428 107 l 479 104 q 494 100 489 103 q 504 97 499 97 q 514 97 510 97 q 524 96 518 96 q 528 92 526 93 q 533 89 531 90 q 535 21 539 76 q 528 13 532 17 q 522 3 525 8 l 522 -18 q 522 -24 521 -21 q 521 -29 522 -26 q 515 -47 514 -37 q 514 -65 515 -56 q 511 -68 511 -65 q 508 -60 507 -64 q 507 -51 508 -56 q 506 -49 506 -50 q 506 -47 507 -49 q 497 -28 501 -37 q 488 -12 493 -19 q 475 -7 482 -4 q 461 -15 469 -10 q 456 -22 458 -17 q 447 -40 449 -31 q 443 -57 446 -49 q 436 -74 440 -65 q 433 -92 432 -82 q 429 -96 433 -96 q 427 -84 426 -90 q 426 -71 428 -78 q 422 -60 424 -65 q 419 -47 419 -54 q 416 -35 418 -40 q 413 -22 414 -29 q 407 -11 410 -15 q 403 -1 404 -7 q 379 0 390 4 q 361 -19 371 -6 l 361 -61 q 358 -71 358 -67 q 354 -79 357 -75 l 354 -187 q 358 -195 357 -192 q 361 -203 358 -199 l 361 -244 q 350 -265 356 -260 q 344 -261 346 -264 q 340 -256 343 -258 q 346 -218 336 -233 l 346 -146 q 343 -139 344 -143 q 339 -129 342 -135 l 339 -69 q 335 -56 338 -61 q 332 -44 332 -50 l 332 -26 q 322 -6 326 -15 q 306 7 317 3 q 296 6 300 8 q 288 1 292 3 l 232 1 q 224 -4 225 -1 q 221 -10 222 -7 l 213 -31 q 206 -23 207 -28 q 200 -15 204 -18 q 191 -8 194 -12 q 185 -1 188 -4 q 151 2 165 1 q 111 0 136 3 q 99 -17 99 -4 q 96 -31 99 -22 q 93 -35 94 -33 q 90 -39 92 -36 q 78 -37 83 -37 q 65 -40 72 -36 q 63 -40 64 -42 q 58 -39 61 -39 q 55 -29 54 -35 q 53 -18 56 -24 q 46 -3 51 -10 q 40 5 43 1 q 35 11 38 8 q 47 47 40 31 q 56 83 53 64 q 62 97 58 90 q 68 110 65 103 q 66 117 67 113 q 63 126 65 122 q 65 133 64 129 q 68 140 67 136 l 68 219 q 66 226 67 222 q 64 233 65 231 q 65 243 63 239 q 68 254 68 247 l 68 504 q 66 511 67 507 q 63 519 65 515 q 61 581 61 554 q 64 625 61 607 q 69 628 67 626 q 74 629 71 629 l 94 629 l 460 629 q 473 629 467 629 q 486 628 479 629 q 490 624 486 628 q 492 595 492 613 q 492 559 492 578 q 492 523 492 540 q 490 496 492 506 q 485 492 488 493 l 460 492 q 350 490 404 490 q 240 490 296 490 q 230 491 235 490 q 221 489 225 492 q 215 475 215 485 q 208 446 215 463 l 208 392 q 210 387 208 389 q 213 382 211 385 q 263 381 238 379 q 311 381 288 383 m 88 -265 q 84 -248 85 -254 q 85 -219 83 -242 q 88 -214 85 -217 q 91 -230 90 -225 q 90 -258 92 -235 q 89 -262 90 -261 q 88 -265 88 -262 m 522 -278 q 522 -290 521 -285 q 519 -300 522 -294 l 517 -300 q 515 -297 515 -299 l 515 -262 q 519 -258 515 -258 q 521 -261 521 -261 q 522 -270 521 -265 q 522 -278 522 -275 m 67 -424 q 64 -424 64 -424 q 63 -415 60 -419 q 64 -412 64 -412 q 68 -415 68 -408 q 67 -424 68 -421 m 440 -197 q 438 -199 438 -200 q 436 -193 433 -199 l 438 -192 q 440 -197 440 -193 m 521 -343 l 518 -346 q 515 -340 515 -344 l 518 -337 q 521 -343 521 -339 z "},"f":{"ha":479,"x_min":25,"x_max":454,"o":"m 104 -140 q 108 -133 107 -136 q 111 -124 108 -129 l 111 -82 q 106 -69 108 -75 q 104 -57 103 -64 q 99 -33 104 -43 q 103 -12 93 -25 q 106 -8 104 -10 q 108 -4 107 -7 l 106 -1 q 81 0 93 0 q 58 1 69 0 q 56 5 57 4 q 54 7 54 6 q 53 25 53 14 l 53 135 q 47 152 50 144 q 44 169 43 160 q 39 178 42 174 q 33 185 36 182 q 31 194 31 189 q 31 203 32 199 q 28 211 29 207 q 25 221 26 215 q 30 226 28 224 q 35 231 32 228 q 38 236 38 233 q 38 242 39 239 q 39 247 38 244 q 42 256 40 251 q 44 264 44 260 q 46 277 46 271 q 46 290 46 283 l 46 443 q 42 451 43 447 q 39 463 40 456 l 39 592 q 44 604 39 601 q 73 606 58 607 q 103 607 88 604 q 111 610 107 608 q 119 613 115 611 l 183 613 q 190 610 186 611 q 199 607 194 610 l 315 607 q 329 613 324 610 q 347 613 338 613 q 365 614 356 614 q 374 617 369 615 q 382 619 378 618 q 413 620 397 619 q 443 619 428 621 q 448 618 446 619 q 453 615 450 617 q 453 587 453 604 q 454 551 454 569 q 453 515 454 532 q 453 488 453 497 q 447 483 449 483 q 436 482 442 482 q 425 482 431 482 l 225 482 q 210 482 218 482 q 196 481 203 482 q 190 476 193 478 q 185 471 188 474 q 185 388 182 426 q 199 374 189 378 q 231 372 214 371 q 267 372 249 372 l 336 372 q 370 373 353 372 q 404 371 388 374 q 408 368 407 369 q 410 365 408 367 l 410 358 l 410 256 q 406 243 410 246 q 393 243 399 240 q 381 249 388 246 q 290 249 336 247 q 199 247 244 250 q 194 244 200 247 q 188 229 193 240 q 181 246 182 240 q 171 239 171 244 q 170 231 169 235 q 171 225 171 228 q 178 219 174 219 q 188 217 183 219 q 197 206 190 213 q 207 203 201 203 q 218 201 213 204 q 213 197 215 199 q 208 193 211 196 q 208 190 208 190 q 207 186 207 189 q 211 158 204 168 q 211 143 214 154 q 193 129 201 136 q 178 111 185 122 q 177 80 178 100 q 176 38 176 60 q 177 -6 176 15 q 178 -37 178 -26 q 188 -49 181 -44 q 196 -54 190 -51 q 191 -58 193 -57 q 186 -62 189 -60 q 185 -67 186 -65 q 185 -72 185 -69 l 185 -182 q 188 -207 183 -193 q 183 -211 188 -211 q 165 -201 172 -212 q 163 -194 163 -196 l 163 -117 q 165 -110 164 -114 q 168 -103 167 -107 q 170 -85 171 -94 q 169 -65 169 -75 q 166 -58 167 -61 q 163 -51 165 -54 l 163 -40 q 163 -22 163 -31 q 161 -4 163 -12 q 160 1 161 -1 q 158 6 158 3 q 144 6 147 7 q 135 -4 142 4 q 133 -24 132 -14 q 132 -44 135 -33 q 130 -50 131 -47 q 126 -58 129 -53 q 126 -73 126 -65 q 125 -87 125 -81 q 119 -103 121 -94 q 119 -108 119 -106 q 118 -114 118 -111 l 118 -329 q 118 -337 118 -333 q 115 -346 118 -342 q 110 -349 114 -349 q 107 -346 107 -346 q 106 -343 106 -346 q 104 -329 104 -339 l 104 -140 m 107 -433 q 110 -449 110 -443 q 111 -481 111 -454 q 106 -496 108 -487 q 100 -511 103 -504 q 94 -514 97 -514 q 90 -510 90 -517 q 90 -500 88 -506 q 95 -481 93 -490 q 100 -461 97 -471 q 103 -448 104 -456 q 107 -433 103 -440 m 110 -374 q 117 -378 115 -376 q 119 -391 118 -385 q 117 -404 119 -397 q 110 -407 115 -407 q 108 -406 108 -407 q 107 -406 108 -406 q 106 -403 106 -403 q 106 -381 101 -390 q 110 -374 106 -378 m 64 -26 q 67 -37 67 -35 q 64 -47 67 -40 q 60 -36 60 -39 q 64 -26 60 -33 z "},"g":{"ha":601,"x_min":33,"x_max":568,"o":"m 261 -490 q 265 -499 264 -496 q 268 -507 265 -503 q 268 -528 268 -518 q 267 -550 268 -539 q 263 -555 267 -553 q 256 -554 258 -557 q 254 -553 254 -554 q 253 -553 254 -553 q 251 -550 251 -551 q 247 -546 250 -549 q 246 -512 244 -529 q 244 -476 247 -496 q 242 -471 243 -474 q 239 -462 242 -468 q 238 -428 238 -446 q 239 -392 239 -410 l 239 -319 q 242 -310 242 -314 q 246 -300 243 -306 l 246 -268 q 249 -260 247 -264 q 253 -250 250 -256 l 253 -208 q 256 -201 256 -204 q 260 -194 257 -197 q 260 -163 260 -182 q 261 -125 261 -144 q 260 -87 261 -106 q 260 -60 260 -69 q 236 -56 251 -50 q 224 -82 225 -68 q 217 -104 224 -94 q 217 -183 215 -144 q 215 -260 218 -221 q 213 -261 214 -261 q 208 -254 210 -258 q 204 -246 207 -250 q 203 -243 203 -244 l 203 -239 l 203 -99 q 206 -92 204 -96 q 208 -83 207 -87 q 210 -65 210 -75 q 215 -49 210 -56 l 215 -31 q 208 -25 213 -25 q 200 -22 203 -25 q 197 -19 197 -19 q 196 -17 196 -18 q 194 -11 194 -14 q 193 -6 194 -8 q 178 29 183 11 q 160 64 172 47 q 136 82 147 71 q 114 104 125 93 q 110 110 111 107 q 101 124 107 118 q 89 138 94 131 q 53 222 64 182 q 35 265 46 246 q 34 313 33 289 q 35 361 35 338 q 40 376 38 369 q 42 391 42 383 q 42 407 42 399 q 47 422 46 414 q 50 438 49 429 q 59 456 54 447 q 68 474 64 464 q 74 487 71 481 q 79 500 78 493 q 82 507 79 504 q 94 525 89 515 q 107 542 99 535 q 125 558 117 550 q 142 575 133 567 q 150 585 146 581 q 160 593 154 590 q 178 605 169 599 q 197 615 186 611 q 215 624 207 619 q 233 633 224 629 q 253 640 243 639 q 265 646 260 643 q 278 647 271 649 q 285 649 283 647 q 300 654 292 654 q 317 654 308 654 q 322 655 319 654 q 326 656 324 656 q 334 658 331 657 q 342 661 338 660 l 449 661 q 456 659 451 660 q 465 656 460 658 q 473 655 468 656 q 482 654 478 654 q 491 654 486 654 q 500 651 496 654 q 517 647 508 647 q 531 643 524 647 q 540 641 535 642 q 549 638 544 640 q 564 631 557 636 q 566 626 565 628 q 567 622 567 625 l 567 575 q 564 569 565 572 q 561 560 563 565 q 560 531 560 546 q 560 501 560 517 q 546 494 553 493 q 535 498 540 497 q 525 501 531 499 q 488 508 506 510 q 480 512 483 511 q 474 515 476 513 q 451 517 463 518 q 431 522 440 515 q 398 523 414 524 q 367 524 382 522 q 355 519 360 521 q 344 517 350 517 q 316 512 329 517 q 289 501 303 507 q 279 496 283 499 q 268 490 275 493 l 231 453 q 219 438 224 446 q 208 424 215 431 q 199 408 201 417 q 193 390 196 400 q 188 376 190 383 q 188 363 186 369 q 181 342 188 353 l 181 297 q 183 291 182 294 q 186 283 185 288 q 188 269 188 276 q 188 256 188 263 q 199 224 193 240 q 215 193 204 208 l 254 154 q 271 146 263 150 q 286 138 279 142 l 290 138 q 319 150 303 143 l 346 150 q 353 149 350 150 q 364 143 358 146 q 375 136 369 140 q 387 128 381 131 q 400 122 393 125 q 417 123 410 121 q 428 136 424 125 l 428 165 q 419 185 425 171 q 410 195 415 190 q 401 204 406 200 q 401 221 400 214 q 410 236 404 229 q 419 251 415 243 q 417 257 422 257 q 407 260 411 260 l 349 260 q 341 260 344 260 q 333 261 338 261 q 331 263 332 263 q 328 267 329 264 q 328 335 325 300 q 333 339 332 339 q 344 340 338 340 l 376 340 q 384 344 381 343 q 393 347 388 344 l 535 347 q 544 351 540 350 q 554 354 549 353 q 565 349 558 356 q 567 300 567 339 q 568 213 568 261 q 567 119 568 165 q 567 50 567 74 q 565 39 567 43 q 541 28 554 32 q 515 19 528 25 l 507 19 q 483 14 494 19 q 473 11 478 11 q 463 10 468 11 q 444 -8 450 4 q 444 -14 444 -11 q 443 -19 443 -17 l 443 -43 q 454 -68 447 -57 q 465 -92 461 -79 q 464 -97 464 -94 q 463 -101 464 -99 q 460 -107 461 -104 q 458 -114 460 -110 l 458 -228 q 458 -237 457 -233 q 456 -246 458 -242 q 449 -249 453 -251 q 446 -247 447 -247 q 444 -244 444 -244 q 444 -237 444 -240 q 443 -229 443 -233 l 443 -153 q 442 -133 443 -139 q 432 -121 438 -122 q 407 -99 415 -114 l 407 -89 q 419 -72 414 -81 q 428 -53 425 -64 l 428 -17 q 424 -8 425 -12 q 419 0 422 -3 q 397 3 408 7 q 394 1 396 1 q 392 -3 393 0 q 387 -12 389 -8 q 385 -22 385 -17 q 372 -37 383 -31 q 342 -39 357 -40 q 311 -40 326 -37 q 303 -50 304 -44 q 297 -58 301 -56 l 297 -90 q 294 -97 294 -93 q 290 -104 293 -100 q 290 -118 290 -111 q 289 -132 290 -125 q 288 -139 289 -136 q 282 -156 282 -150 q 278 -181 283 -168 q 275 -194 275 -185 q 271 -217 275 -207 q 268 -231 268 -225 q 263 -254 268 -244 q 261 -261 261 -257 q 260 -269 261 -265 q 258 -278 258 -274 q 254 -289 257 -282 l 254 -337 q 260 -353 257 -346 q 260 -387 261 -369 q 261 -424 260 -404 l 261 -490 z "},"h":{"ha":600,"x_min":28,"x_max":571,"o":"m 81 -203 q 77 -195 78 -199 q 74 -186 76 -192 l 74 -124 q 70 -116 71 -119 q 67 -108 69 -112 q 66 -80 65 -94 q 67 -50 67 -65 q 72 -34 69 -43 q 72 -15 75 -25 q 71 -10 72 -12 q 68 -6 69 -8 q 51 -5 60 -6 q 36 -4 43 -4 q 30 14 28 6 q 36 32 32 22 q 37 81 38 56 q 38 132 36 107 l 38 235 l 38 336 q 40 344 39 340 q 44 356 42 349 l 44 390 l 44 594 q 46 615 44 608 q 50 621 46 617 q 76 622 60 622 q 110 622 92 622 q 144 622 128 622 q 169 621 160 622 q 174 615 174 617 q 175 608 175 614 l 175 544 q 172 537 174 540 q 168 528 171 533 l 168 408 q 164 396 165 401 q 161 385 163 390 q 175 361 158 367 l 211 361 q 219 364 215 363 q 228 367 224 365 l 321 367 q 328 365 324 365 q 338 361 332 364 q 435 361 383 358 q 440 366 438 364 q 443 371 442 368 q 443 381 446 376 q 439 392 440 385 l 439 542 q 435 549 436 546 q 432 557 435 553 q 432 617 429 586 q 439 622 436 621 l 446 622 q 540 622 493 624 q 550 621 547 622 q 553 617 551 618 q 554 614 554 617 q 556 601 556 607 q 556 589 556 596 l 556 479 q 558 471 557 475 q 563 460 560 467 l 563 201 q 566 193 565 197 q 569 186 567 189 q 570 163 571 175 q 563 142 569 151 q 563 78 561 110 q 561 17 564 47 q 558 14 561 14 q 549 10 554 10 q 539 10 544 11 q 527 7 532 8 q 515 3 522 6 q 474 2 496 3 q 431 3 453 1 q 428 6 429 6 q 425 10 426 7 q 424 24 424 17 q 424 39 424 31 q 421 45 422 42 q 418 53 419 49 q 417 63 417 56 l 417 215 q 417 230 417 222 q 415 244 417 238 q 413 247 414 246 q 410 250 411 247 q 385 249 396 253 q 381 243 383 246 q 381 219 381 231 q 379 197 381 208 q 385 180 382 188 q 388 164 389 172 q 389 152 386 157 q 394 140 392 147 l 394 79 q 398 68 397 72 q 401 58 399 64 l 401 11 q 406 2 404 6 q 408 -4 407 -1 l 408 -8 l 408 -99 q 397 -107 408 -107 q 388 -100 390 -104 q 387 -48 386 -74 q 388 6 388 -22 l 388 110 q 382 126 383 118 q 379 142 381 135 q 363 154 376 156 q 351 138 351 150 q 351 121 351 129 q 350 106 350 113 q 347 98 349 101 q 343 89 346 94 l 343 42 q 338 24 340 35 q 336 1 336 13 q 335 -21 336 -10 q 329 -25 335 -22 l 328 -25 q 325 -24 326 -25 q 319 -10 322 -17 q 314 4 317 -4 l 314 44 q 307 61 313 50 l 307 104 q 310 111 310 107 q 314 121 311 115 l 314 178 q 308 192 311 183 q 307 212 307 203 q 306 231 307 221 q 301 238 303 236 q 299 240 300 239 q 294 243 297 240 l 269 243 q 251 226 258 238 q 249 219 249 221 l 249 172 q 254 158 251 165 q 256 144 257 151 q 253 139 254 140 q 246 136 253 138 q 242 146 242 140 q 240 158 242 151 l 224 192 q 196 197 213 204 q 192 192 192 193 q 190 181 190 189 l 190 107 q 193 100 192 104 q 197 89 194 96 l 197 54 q 196 44 197 47 q 190 35 193 39 q 183 26 186 31 q 183 13 183 19 q 182 1 182 7 q 175 -4 178 -3 q 165 -5 169 -4 q 154 -6 160 -6 q 149 -10 151 -7 q 149 -23 146 -17 q 153 -36 151 -29 l 153 -69 q 151 -76 151 -72 q 147 -85 150 -81 q 146 -106 146 -96 q 153 -128 146 -117 q 153 -154 154 -140 q 154 -181 153 -168 q 145 -190 147 -189 q 136 -193 143 -192 q 131 -175 131 -185 q 125 -158 132 -165 l 125 -60 q 125 -40 125 -50 q 124 -19 125 -31 q 122 -10 124 -12 q 101 -6 114 -3 q 99 -8 100 -8 q 96 -11 97 -8 q 91 -20 93 -15 q 88 -31 89 -25 q 85 -39 86 -35 q 81 -50 83 -43 l 81 -85 q 86 -99 83 -90 q 88 -140 88 -110 q 89 -208 89 -171 q 88 -283 89 -244 q 88 -346 88 -321 q 83 -360 85 -353 q 78 -374 81 -367 q 74 -369 75 -371 q 73 -361 74 -367 q 73 -344 72 -356 q 74 -312 74 -333 q 76 -306 75 -310 q 81 -296 78 -301 l 81 -203 m 336 -157 q 343 -172 340 -169 q 343 -186 343 -179 q 344 -200 343 -193 q 347 -208 346 -204 q 350 -217 349 -212 l 350 -260 q 344 -269 350 -264 q 335 -269 342 -276 l 322 -249 l 322 -222 l 322 -85 q 324 -83 324 -85 q 325 -82 324 -82 q 328 -86 328 -82 q 329 -101 329 -93 q 329 -115 329 -108 q 333 -122 332 -118 q 336 -131 333 -126 l 336 -157 m 263 10 q 253 -3 260 1 q 247 -3 250 -4 q 243 1 243 -1 q 242 4 243 3 q 242 8 242 6 l 242 76 l 250 93 l 253 93 q 256 86 256 90 q 256 79 256 82 q 256 74 256 76 q 257 68 257 71 q 259 61 258 65 q 263 54 260 57 l 263 47 q 263 28 263 38 q 263 10 264 18 z "},"i":{"ha":285,"x_min":28,"x_max":257,"o":"m 39 560 q 28 569 32 567 l 28 576 q 33 581 31 579 q 39 586 36 583 q 40 599 39 593 q 40 611 40 604 q 46 616 43 614 q 51 621 49 618 q 54 628 53 625 q 57 636 56 632 l 68 625 q 100 624 83 624 q 132 624 117 625 l 197 624 q 228 613 213 618 q 257 597 244 608 q 254 587 256 592 q 251 576 253 582 q 251 565 250 571 q 247 550 251 558 q 242 545 246 547 q 232 540 238 543 q 228 533 229 538 q 224 526 226 529 q 223 522 224 524 q 222 518 222 521 l 222 456 q 219 446 222 451 q 217 444 219 444 q 210 446 213 443 q 208 458 207 453 q 207 471 208 464 q 204 482 207 474 q 201 483 203 483 q 196 481 199 485 q 193 471 193 475 l 193 407 q 190 400 192 404 q 186 390 189 396 l 186 263 q 182 251 183 256 q 178 243 181 247 l 178 35 q 175 28 176 32 q 172 18 174 24 q 170 1 169 10 q 164 -17 171 -8 q 163 -60 163 -39 q 164 -104 164 -82 l 164 -187 q 169 -203 165 -197 q 171 -215 172 -208 q 174 -228 171 -222 q 178 -240 176 -233 q 180 -253 179 -247 q 182 -264 181 -258 q 167 -271 178 -275 q 163 -260 164 -265 q 158 -247 161 -254 q 157 -237 157 -242 q 156 -226 157 -232 q 153 -218 154 -222 q 150 -207 153 -214 q 149 -197 150 -203 q 149 -183 149 -190 l 149 -35 l 149 -10 q 144 -7 146 -8 q 142 -6 143 -6 q 131 -4 138 -4 l 97 -4 q 79 2 86 -1 q 65 6 72 6 q 60 22 61 14 q 57 36 60 29 q 58 71 49 51 q 60 74 60 74 q 61 78 60 75 l 61 121 q 58 128 58 125 q 54 136 57 132 l 54 178 q 51 185 51 182 q 47 194 50 189 l 47 432 q 44 441 44 436 q 40 451 43 446 l 40 489 q 33 508 35 503 q 34 519 32 515 q 39 529 36 524 l 39 560 m 208 299 l 208 315 q 210 319 208 318 q 211 321 211 319 l 214 318 l 214 275 q 211 271 214 274 q 208 274 208 274 q 208 286 208 281 q 207 299 207 292 l 208 299 z "},"j":{"ha":372,"x_min":26,"x_max":346,"o":"m 147 -71 q 141 -58 144 -64 q 135 -44 138 -51 q 124 -17 133 -33 q 109 -13 117 -14 q 93 -10 101 -12 q 90 -11 92 -11 q 88 -12 89 -11 q 76 -27 81 -19 q 68 -44 72 -35 q 65 -54 68 -49 q 58 -54 58 -54 q 54 -49 57 -54 q 54 -35 54 -42 q 53 -22 54 -29 q 49 -9 50 -15 q 44 4 47 -3 q 33 14 40 7 q 31 42 29 28 q 26 69 33 57 q 29 76 29 74 q 32 83 29 79 l 32 122 q 31 140 32 131 q 33 158 31 149 q 39 157 36 157 q 44 156 42 157 q 58 150 51 153 q 71 144 64 147 q 83 141 78 142 q 96 139 89 140 q 106 135 101 138 q 117 133 111 133 q 138 128 131 131 q 147 125 142 125 q 154 125 151 125 q 166 130 161 128 q 175 135 171 132 q 188 146 182 140 q 199 160 193 151 q 200 184 201 171 q 200 213 199 197 q 203 219 201 215 q 207 228 204 222 l 207 467 q 210 474 210 471 q 214 482 211 478 q 215 532 215 507 q 214 583 214 557 q 219 597 217 590 q 224 610 221 603 q 227 613 226 611 q 231 614 228 614 l 300 614 l 317 614 q 322 607 322 608 q 324 597 324 604 q 331 576 329 583 q 331 560 332 568 q 331 543 331 551 l 331 515 q 335 506 333 510 q 338 497 336 501 q 338 492 338 494 q 339 486 339 489 l 339 435 q 335 426 336 431 q 332 417 335 422 q 335 410 333 414 q 339 401 336 407 q 338 310 339 357 q 339 215 338 263 q 346 197 340 208 l 346 157 q 341 142 343 150 q 338 126 339 135 q 333 113 336 119 q 328 99 331 106 q 322 84 325 92 q 314 68 318 76 q 301 55 307 61 q 289 42 296 49 q 281 7 286 24 q 267 -28 275 -10 q 265 -42 265 -35 q 265 -56 265 -49 q 262 -64 263 -60 q 258 -74 261 -68 l 258 -114 q 255 -121 256 -117 q 251 -131 254 -125 l 251 -210 q 256 -226 256 -222 q 257 -242 257 -231 q 247 -251 254 -250 q 236 -240 240 -250 q 235 -187 235 -214 q 236 -132 236 -160 l 236 -28 q 231 -18 233 -22 q 226 -10 229 -14 q 217 -7 221 -7 q 204 -6 210 -6 q 193 -7 199 -7 q 174 -22 183 -10 q 169 -33 171 -28 q 165 -44 168 -39 q 163 -58 163 -51 q 160 -72 163 -65 q 156 -85 157 -79 q 153 -97 156 -90 q 149 -90 150 -93 q 147 -71 149 -86 m 56 -340 q 53 -299 54 -325 q 53 -245 53 -272 q 53 -196 53 -218 q 56 -165 54 -174 l 57 -164 q 60 -167 60 -164 q 60 -200 60 -175 q 61 -253 61 -225 q 60 -305 61 -281 q 60 -336 60 -329 l 56 -340 z "},"k":{"ha":629,"x_min":28,"x_max":601,"o":"m 188 404 q 199 393 192 394 q 208 401 206 394 q 217 415 210 407 l 267 465 q 281 479 274 472 q 293 496 288 486 q 298 503 294 500 q 304 510 301 507 q 313 519 308 515 q 319 531 317 524 q 322 533 321 532 q 324 536 322 535 q 356 575 342 553 q 376 600 368 586 q 396 628 385 614 q 409 633 403 631 q 422 638 415 635 q 508 638 461 639 q 576 636 554 638 l 581 628 q 567 613 575 619 q 557 596 560 606 q 553 590 556 593 q 547 585 550 588 q 531 568 539 576 q 514 553 522 560 q 506 537 510 544 q 497 521 501 529 q 487 510 492 515 q 476 499 482 504 q 463 479 471 488 q 446 463 454 471 q 439 454 440 457 q 425 435 433 443 q 408 418 417 426 q 397 405 403 411 q 389 392 392 399 q 379 381 388 389 q 369 370 374 375 q 360 360 364 365 q 358 343 353 350 q 374 338 365 336 q 389 335 382 340 q 383 322 386 328 q 378 308 381 315 l 378 288 q 394 274 382 274 q 403 280 399 276 q 413 286 407 283 q 418 282 417 288 q 403 264 411 275 q 400 242 397 254 q 402 239 401 240 q 404 236 403 238 q 419 220 411 228 q 432 201 426 213 q 437 195 433 199 q 443 189 440 192 q 451 179 447 183 q 458 168 456 175 q 469 154 461 163 q 483 141 476 147 q 496 128 489 135 q 519 99 504 111 q 546 71 533 86 q 554 63 550 67 q 561 51 558 58 q 565 46 563 49 q 569 40 567 43 q 582 28 576 33 q 593 15 588 22 q 601 -1 597 8 q 592 -4 593 -4 l 496 -4 q 488 -1 492 -3 q 479 1 483 0 q 447 3 463 3 q 414 3 431 3 q 412 3 413 3 q 410 4 411 4 q 407 6 408 6 q 404 8 406 7 q 381 40 393 26 q 368 51 374 46 q 357 63 363 57 q 347 74 351 68 q 339 86 342 79 q 329 97 338 92 q 323 106 326 101 q 317 115 319 110 q 307 125 315 119 q 297 135 299 131 q 283 152 290 144 q 267 167 275 160 q 250 168 263 171 q 247 163 249 165 q 246 158 246 161 l 246 107 q 242 99 243 103 q 239 89 242 94 l 239 -18 q 242 -25 240 -21 q 246 -35 243 -29 l 246 -54 q 249 -68 246 -60 q 253 -85 253 -76 q 253 -100 253 -93 q 245 -110 247 -108 q 236 -112 243 -111 q 229 -103 232 -108 q 224 -92 226 -99 l 224 -29 l 224 22 q 223 37 224 29 q 218 51 222 44 q 217 61 217 54 q 213 78 217 71 q 204 92 208 85 q 201 94 203 93 q 199 96 200 94 q 192 96 196 97 q 189 92 189 94 q 188 81 189 86 q 188 69 188 76 l 188 15 q 182 13 185 14 q 176 11 179 11 q 160 10 168 10 q 144 8 153 10 q 141 7 142 8 q 138 4 140 6 q 143 -19 140 -6 q 144 -31 144 -25 q 143 -40 143 -36 q 147 -48 146 -44 q 151 -57 149 -51 l 151 -90 q 154 -98 153 -94 q 157 -106 156 -101 q 158 -115 158 -108 q 154 -129 158 -124 q 151 -140 151 -137 q 150 -147 150 -143 q 149 -154 150 -151 q 144 -168 147 -160 q 142 -173 143 -171 q 140 -178 142 -175 q 133 -192 139 -183 q 118 -200 129 -194 q 107 -187 111 -197 l 107 -144 q 110 -136 110 -140 q 114 -126 111 -132 l 114 -86 q 121 -71 119 -75 q 122 -67 121 -68 q 122 -64 122 -67 q 122 -47 121 -56 q 119 -31 122 -39 q 104 -19 108 -22 q 100 -3 99 -11 q 99 11 101 4 q 90 17 96 17 q 79 21 83 18 q 78 47 76 35 q 78 72 79 60 q 73 85 76 79 q 71 97 69 90 q 64 118 71 107 q 64 135 64 126 q 63 154 64 144 q 58 167 61 161 q 56 182 56 174 q 51 194 56 189 q 49 206 47 199 q 46 219 50 213 q 42 233 42 226 q 56 275 49 254 q 71 318 63 296 l 71 389 q 67 395 68 392 q 64 403 67 399 q 63 444 63 424 q 64 486 64 465 q 63 527 63 507 q 64 567 64 547 q 68 581 65 575 q 71 594 71 588 q 74 608 69 601 q 81 621 78 614 q 88 622 85 621 q 93 622 90 622 q 172 622 132 624 q 186 617 182 622 q 188 581 189 599 q 188 544 188 564 l 188 475 l 188 404 m 190 240 q 200 232 193 231 q 203 235 203 233 q 207 239 204 236 q 190 240 199 247 m 28 133 q 31 138 29 138 q 38 139 32 139 q 45 127 42 133 q 49 113 49 121 q 44 108 44 108 q 40 110 42 108 q 36 115 38 113 q 28 133 31 126 z "},"l":{"ha":490,"x_min":26,"x_max":464,"o":"m 354 -385 q 351 -377 353 -381 q 347 -368 350 -374 l 347 -283 q 343 -272 344 -275 q 340 -262 342 -271 l 340 -194 q 337 -185 338 -189 q 333 -178 336 -182 l 333 -129 q 330 -122 331 -125 q 326 -112 329 -118 l 326 -74 q 321 -57 324 -64 q 315 -42 318 -50 q 302 -28 308 -35 q 289 -15 296 -22 q 276 -10 282 -12 q 265 -6 271 -8 q 246 3 251 0 q 233 3 239 3 q 219 3 226 4 q 211 -1 215 3 q 208 -10 208 -7 l 208 -118 q 213 -128 211 -124 q 217 -137 214 -132 l 217 -185 q 222 -200 219 -192 q 223 -204 222 -203 q 224 -207 224 -206 l 224 -254 q 221 -261 224 -258 q 211 -259 214 -264 q 204 -251 208 -254 q 199 -237 201 -244 q 194 -219 197 -229 l 194 -187 q 191 -180 192 -183 q 188 -171 190 -176 l 188 -124 q 183 -114 185 -118 q 181 -106 182 -110 q 180 -100 181 -103 q 179 -94 179 -97 l 179 -11 q 174 3 179 -3 q 140 4 157 6 q 107 4 122 3 q 100 -10 99 -4 q 106 -25 101 -18 q 106 -58 107 -42 q 107 -90 106 -75 q 88 -104 99 -106 q 83 -99 85 -101 q 78 -94 81 -97 q 78 -49 76 -71 q 76 -4 79 -26 q 74 -1 75 -1 q 71 3 72 0 q 51 4 61 4 q 31 6 42 4 q 28 10 29 8 q 26 15 26 13 l 26 119 q 29 126 28 122 q 33 136 31 131 l 33 338 q 37 345 36 342 q 40 354 38 349 q 41 400 42 376 q 40 447 40 424 l 40 538 l 40 632 l 46 638 q 53 638 50 638 q 58 639 56 639 l 106 639 q 113 635 108 636 q 121 632 117 635 q 135 632 128 632 q 151 631 143 632 q 157 624 153 628 q 158 596 158 610 q 157 567 157 582 q 158 538 158 551 q 157 508 157 524 l 157 450 q 160 443 160 447 q 164 435 161 439 q 165 382 165 408 q 165 328 164 356 q 169 317 168 322 q 172 306 169 313 q 165 289 171 300 q 165 267 165 278 q 171 246 164 257 q 172 197 174 222 q 172 147 171 172 q 181 138 178 143 q 185 137 183 138 q 189 136 188 136 l 289 136 q 303 142 297 139 l 339 142 q 346 139 342 140 q 357 135 350 138 l 383 135 q 400 135 392 135 q 417 135 408 136 q 431 135 424 135 q 446 132 439 136 q 451 119 449 125 q 457 104 454 113 l 457 76 q 460 70 460 74 q 464 64 461 67 l 464 60 l 464 26 q 463 22 464 24 q 463 17 463 19 q 451 11 458 10 q 439 8 444 13 q 436 1 436 3 q 435 -19 435 -6 l 435 -132 q 439 -142 438 -137 q 442 -151 440 -146 l 442 -300 q 446 -308 444 -304 q 450 -319 447 -312 l 450 -367 q 453 -374 451 -371 q 456 -382 454 -378 q 456 -415 456 -393 q 457 -462 457 -437 q 456 -510 457 -487 q 456 -546 456 -533 q 450 -554 453 -550 q 440 -557 447 -558 q 435 -543 435 -551 l 435 -469 l 435 -436 q 431 -427 432 -431 q 428 -418 431 -424 l 428 -311 q 424 -303 425 -307 q 421 -296 424 -300 q 420 -239 419 -268 q 421 -181 421 -210 q 414 -162 415 -169 l 414 -50 q 410 -42 411 -46 q 407 -33 410 -37 q 406 -17 404 -25 q 404 -1 407 -8 q 401 1 401 1 q 386 10 390 7 q 371 8 379 11 q 361 4 365 6 q 350 0 357 3 q 349 -5 350 -3 q 347 -10 347 -7 l 347 -96 q 353 -116 353 -111 q 356 -140 354 -121 q 360 -153 357 -147 q 363 -168 364 -160 q 364 -181 361 -175 q 369 -194 367 -187 l 369 -351 q 373 -361 372 -357 q 376 -371 374 -365 l 376 -447 q 381 -456 379 -453 q 383 -464 382 -460 q 384 -486 383 -475 q 383 -508 385 -497 q 367 -526 378 -519 q 357 -518 360 -526 q 356 -504 356 -514 q 354 -466 354 -485 q 354 -428 354 -447 l 354 -385 z "}}}
